<?xml version="1.0" encoding="utf-8" standalone="no"?>
<!DOCTYPE svg PUBLIC "-//W3C//DTD SVG 1.1//EN"
  "http://www.w3.org/Graphics/SVG/1.1/DTD/svg11.dtd">
<svg xmlns:xlink="http://www.w3.org/1999/xlink" width="1008pt" height="360pt" viewBox="0 0 1008 360" xmlns="http://www.w3.org/2000/svg" version="1.1">
 <metadata>
  <rdf:RDF xmlns:dc="http://purl.org/dc/elements/1.1/" xmlns:cc="http://creativecommons.org/ns#" xmlns:rdf="http://www.w3.org/1999/02/22-rdf-syntax-ns#">
   <cc:Work>
    <dc:type rdf:resource="http://purl.org/dc/dcmitype/StillImage"/>
    <dc:date>2022-05-07T19:55:53.638063</dc:date>
    <dc:format>image/svg+xml</dc:format>
    <dc:creator>
     <cc:Agent>
      <dc:title>Matplotlib v3.5.1, https://matplotlib.org/</dc:title>
     </cc:Agent>
    </dc:creator>
   </cc:Work>
  </rdf:RDF>
 </metadata>
 <defs>
  <style type="text/css">*{stroke-linejoin: round; stroke-linecap: butt}</style>
 </defs>
 <g id="figure_1">
  <g id="patch_1">
   <path d="M 0 360 
L 1008 360 
L 1008 0 
L 0 0 
L 0 360 
z
" style="fill: none"/>
  </g>
  <g id="axes_1">
   <g id="patch_2">
    <path d="M 392.878673 173.392302 
C 386.783012 138.822093 368.485217 107.559293 341.328472 85.315919 
C 314.171727 63.072546 279.917229 51.291149 244.823607 52.124304 
L 248.307817 198.884044 
L 392.878673 173.392302 
z
" style="fill: #c6dbef"/>
   </g>
   <g id="patch_3">
    <path d="M 244.823607 52.124304 
C 229.925884 52.477989 215.168492 55.098045 201.059506 59.894267 
C 186.950519 64.690488 173.653735 71.607195 161.62694 80.406254 
C 149.600145 89.205314 138.982964 99.784575 130.140929 111.77981 
C 121.298894 123.775045 114.334656 137.046996 109.487983 151.138732 
C 104.64131 165.230467 101.96847 179.97839 101.561483 194.874752 
C 101.154495 209.771114 103.018087 224.642978 107.088096 238.978328 
C 111.158106 253.313678 117.387283 266.94609 125.561167 279.406221 
C 133.735051 291.866352 143.758748 303.009548 155.287157 312.452165 
C 166.815567 321.894782 179.714851 329.527197 193.540908 335.086639 
C 207.366965 340.646081 221.959282 344.068007 236.815469 345.234607 
C 251.671656 346.401206 266.619241 345.298935 281.143602 341.965742 
C 295.667964 338.63255 309.600482 333.107133 322.461483 325.579723 
C 335.322484 318.052313 346.962658 308.610298 356.981253 297.578753 
C 366.999848 286.547207 375.280554 274.054201 381.538279 260.529848 
C 387.796004 247.005495 391.9581 232.606805 393.881272 217.829503 
C 395.804444 203.052201 395.466365 188.067843 392.878675 173.392315 
L 248.307817 198.884044 
L 244.823607 52.124304 
z
" style="fill: #2070b4"/>
   </g>
   <g id="matplotlib.axis_1"/>
   <g id="matplotlib.axis_2"/>
   <g id="text_1">
    <!-- Concluintes após período ideal -->
    <g transform="translate(350.630537 76.918482)scale(0.1 -0.1)">
     <defs>
      <path id="DejaVuSans-43" d="M 4122 4306 
L 4122 3641 
Q 3803 3938 3442 4084 
Q 3081 4231 2675 4231 
Q 1875 4231 1450 3742 
Q 1025 3253 1025 2328 
Q 1025 1406 1450 917 
Q 1875 428 2675 428 
Q 3081 428 3442 575 
Q 3803 722 4122 1019 
L 4122 359 
Q 3791 134 3420 21 
Q 3050 -91 2638 -91 
Q 1578 -91 968 557 
Q 359 1206 359 2328 
Q 359 3453 968 4101 
Q 1578 4750 2638 4750 
Q 3056 4750 3426 4639 
Q 3797 4528 4122 4306 
z
" transform="scale(0.015625)"/>
      <path id="DejaVuSans-6f" d="M 1959 3097 
Q 1497 3097 1228 2736 
Q 959 2375 959 1747 
Q 959 1119 1226 758 
Q 1494 397 1959 397 
Q 2419 397 2687 759 
Q 2956 1122 2956 1747 
Q 2956 2369 2687 2733 
Q 2419 3097 1959 3097 
z
M 1959 3584 
Q 2709 3584 3137 3096 
Q 3566 2609 3566 1747 
Q 3566 888 3137 398 
Q 2709 -91 1959 -91 
Q 1206 -91 779 398 
Q 353 888 353 1747 
Q 353 2609 779 3096 
Q 1206 3584 1959 3584 
z
" transform="scale(0.015625)"/>
      <path id="DejaVuSans-6e" d="M 3513 2113 
L 3513 0 
L 2938 0 
L 2938 2094 
Q 2938 2591 2744 2837 
Q 2550 3084 2163 3084 
Q 1697 3084 1428 2787 
Q 1159 2491 1159 1978 
L 1159 0 
L 581 0 
L 581 3500 
L 1159 3500 
L 1159 2956 
Q 1366 3272 1645 3428 
Q 1925 3584 2291 3584 
Q 2894 3584 3203 3211 
Q 3513 2838 3513 2113 
z
" transform="scale(0.015625)"/>
      <path id="DejaVuSans-63" d="M 3122 3366 
L 3122 2828 
Q 2878 2963 2633 3030 
Q 2388 3097 2138 3097 
Q 1578 3097 1268 2742 
Q 959 2388 959 1747 
Q 959 1106 1268 751 
Q 1578 397 2138 397 
Q 2388 397 2633 464 
Q 2878 531 3122 666 
L 3122 134 
Q 2881 22 2623 -34 
Q 2366 -91 2075 -91 
Q 1284 -91 818 406 
Q 353 903 353 1747 
Q 353 2603 823 3093 
Q 1294 3584 2113 3584 
Q 2378 3584 2631 3529 
Q 2884 3475 3122 3366 
z
" transform="scale(0.015625)"/>
      <path id="DejaVuSans-6c" d="M 603 4863 
L 1178 4863 
L 1178 0 
L 603 0 
L 603 4863 
z
" transform="scale(0.015625)"/>
      <path id="DejaVuSans-75" d="M 544 1381 
L 544 3500 
L 1119 3500 
L 1119 1403 
Q 1119 906 1312 657 
Q 1506 409 1894 409 
Q 2359 409 2629 706 
Q 2900 1003 2900 1516 
L 2900 3500 
L 3475 3500 
L 3475 0 
L 2900 0 
L 2900 538 
Q 2691 219 2414 64 
Q 2138 -91 1772 -91 
Q 1169 -91 856 284 
Q 544 659 544 1381 
z
M 1991 3584 
L 1991 3584 
z
" transform="scale(0.015625)"/>
      <path id="DejaVuSans-69" d="M 603 3500 
L 1178 3500 
L 1178 0 
L 603 0 
L 603 3500 
z
M 603 4863 
L 1178 4863 
L 1178 4134 
L 603 4134 
L 603 4863 
z
" transform="scale(0.015625)"/>
      <path id="DejaVuSans-74" d="M 1172 4494 
L 1172 3500 
L 2356 3500 
L 2356 3053 
L 1172 3053 
L 1172 1153 
Q 1172 725 1289 603 
Q 1406 481 1766 481 
L 2356 481 
L 2356 0 
L 1766 0 
Q 1100 0 847 248 
Q 594 497 594 1153 
L 594 3053 
L 172 3053 
L 172 3500 
L 594 3500 
L 594 4494 
L 1172 4494 
z
" transform="scale(0.015625)"/>
      <path id="DejaVuSans-65" d="M 3597 1894 
L 3597 1613 
L 953 1613 
Q 991 1019 1311 708 
Q 1631 397 2203 397 
Q 2534 397 2845 478 
Q 3156 559 3463 722 
L 3463 178 
Q 3153 47 2828 -22 
Q 2503 -91 2169 -91 
Q 1331 -91 842 396 
Q 353 884 353 1716 
Q 353 2575 817 3079 
Q 1281 3584 2069 3584 
Q 2775 3584 3186 3129 
Q 3597 2675 3597 1894 
z
M 3022 2063 
Q 3016 2534 2758 2815 
Q 2500 3097 2075 3097 
Q 1594 3097 1305 2825 
Q 1016 2553 972 2059 
L 3022 2063 
z
" transform="scale(0.015625)"/>
      <path id="DejaVuSans-73" d="M 2834 3397 
L 2834 2853 
Q 2591 2978 2328 3040 
Q 2066 3103 1784 3103 
Q 1356 3103 1142 2972 
Q 928 2841 928 2578 
Q 928 2378 1081 2264 
Q 1234 2150 1697 2047 
L 1894 2003 
Q 2506 1872 2764 1633 
Q 3022 1394 3022 966 
Q 3022 478 2636 193 
Q 2250 -91 1575 -91 
Q 1294 -91 989 -36 
Q 684 19 347 128 
L 347 722 
Q 666 556 975 473 
Q 1284 391 1588 391 
Q 1994 391 2212 530 
Q 2431 669 2431 922 
Q 2431 1156 2273 1281 
Q 2116 1406 1581 1522 
L 1381 1569 
Q 847 1681 609 1914 
Q 372 2147 372 2553 
Q 372 3047 722 3315 
Q 1072 3584 1716 3584 
Q 2034 3584 2315 3537 
Q 2597 3491 2834 3397 
z
" transform="scale(0.015625)"/>
      <path id="DejaVuSans-20" transform="scale(0.015625)"/>
      <path id="DejaVuSans-61" d="M 2194 1759 
Q 1497 1759 1228 1600 
Q 959 1441 959 1056 
Q 959 750 1161 570 
Q 1363 391 1709 391 
Q 2188 391 2477 730 
Q 2766 1069 2766 1631 
L 2766 1759 
L 2194 1759 
z
M 3341 1997 
L 3341 0 
L 2766 0 
L 2766 531 
Q 2569 213 2275 61 
Q 1981 -91 1556 -91 
Q 1019 -91 701 211 
Q 384 513 384 1019 
Q 384 1609 779 1909 
Q 1175 2209 1959 2209 
L 2766 2209 
L 2766 2266 
Q 2766 2663 2505 2880 
Q 2244 3097 1772 3097 
Q 1472 3097 1187 3025 
Q 903 2953 641 2809 
L 641 3341 
Q 956 3463 1253 3523 
Q 1550 3584 1831 3584 
Q 2591 3584 2966 3190 
Q 3341 2797 3341 1997 
z
" transform="scale(0.015625)"/>
      <path id="DejaVuSans-70" d="M 1159 525 
L 1159 -1331 
L 581 -1331 
L 581 3500 
L 1159 3500 
L 1159 2969 
Q 1341 3281 1617 3432 
Q 1894 3584 2278 3584 
Q 2916 3584 3314 3078 
Q 3713 2572 3713 1747 
Q 3713 922 3314 415 
Q 2916 -91 2278 -91 
Q 1894 -91 1617 61 
Q 1341 213 1159 525 
z
M 3116 1747 
Q 3116 2381 2855 2742 
Q 2594 3103 2138 3103 
Q 1681 3103 1420 2742 
Q 1159 2381 1159 1747 
Q 1159 1113 1420 752 
Q 1681 391 2138 391 
Q 2594 391 2855 752 
Q 3116 1113 3116 1747 
z
" transform="scale(0.015625)"/>
      <path id="DejaVuSans-f3" d="M 1959 3097 
Q 1497 3097 1228 2736 
Q 959 2375 959 1747 
Q 959 1119 1226 758 
Q 1494 397 1959 397 
Q 2419 397 2687 759 
Q 2956 1122 2956 1747 
Q 2956 2369 2687 2733 
Q 2419 3097 1959 3097 
z
M 1959 3584 
Q 2709 3584 3137 3096 
Q 3566 2609 3566 1747 
Q 3566 888 3137 398 
Q 2709 -91 1959 -91 
Q 1206 -91 779 398 
Q 353 888 353 1747 
Q 353 2609 779 3096 
Q 1206 3584 1959 3584 
z
M 2394 5119 
L 3016 5119 
L 1997 3944 
L 1519 3944 
L 2394 5119 
z
" transform="scale(0.015625)"/>
      <path id="DejaVuSans-72" d="M 2631 2963 
Q 2534 3019 2420 3045 
Q 2306 3072 2169 3072 
Q 1681 3072 1420 2755 
Q 1159 2438 1159 1844 
L 1159 0 
L 581 0 
L 581 3500 
L 1159 3500 
L 1159 2956 
Q 1341 3275 1631 3429 
Q 1922 3584 2338 3584 
Q 2397 3584 2469 3576 
Q 2541 3569 2628 3553 
L 2631 2963 
z
" transform="scale(0.015625)"/>
      <path id="DejaVuSans-ed" d="M 1325 5119 
L 1947 5119 
L 928 3944 
L 450 3944 
L 1325 5119 
z
M 603 3500 
L 1178 3500 
L 1178 0 
L 603 0 
L 603 3500 
z
M 891 3584 
L 891 3584 
z
" transform="scale(0.015625)"/>
      <path id="DejaVuSans-64" d="M 2906 2969 
L 2906 4863 
L 3481 4863 
L 3481 0 
L 2906 0 
L 2906 525 
Q 2725 213 2448 61 
Q 2172 -91 1784 -91 
Q 1150 -91 751 415 
Q 353 922 353 1747 
Q 353 2572 751 3078 
Q 1150 3584 1784 3584 
Q 2172 3584 2448 3432 
Q 2725 3281 2906 2969 
z
M 947 1747 
Q 947 1113 1208 752 
Q 1469 391 1925 391 
Q 2381 391 2643 752 
Q 2906 1113 2906 1747 
Q 2906 2381 2643 2742 
Q 2381 3103 1925 3103 
Q 1469 3103 1208 2742 
Q 947 2381 947 1747 
z
" transform="scale(0.015625)"/>
     </defs>
     <use xlink:href="#DejaVuSans-43"/>
     <use xlink:href="#DejaVuSans-6f" x="69.824219"/>
     <use xlink:href="#DejaVuSans-6e" x="131.005859"/>
     <use xlink:href="#DejaVuSans-63" x="194.384766"/>
     <use xlink:href="#DejaVuSans-6c" x="249.365234"/>
     <use xlink:href="#DejaVuSans-75" x="277.148438"/>
     <use xlink:href="#DejaVuSans-69" x="340.527344"/>
     <use xlink:href="#DejaVuSans-6e" x="368.310547"/>
     <use xlink:href="#DejaVuSans-74" x="431.689453"/>
     <use xlink:href="#DejaVuSans-65" x="470.898438"/>
     <use xlink:href="#DejaVuSans-73" x="532.421875"/>
     <use xlink:href="#DejaVuSans-20" x="584.521484"/>
     <use xlink:href="#DejaVuSans-61" x="616.308594"/>
     <use xlink:href="#DejaVuSans-70" x="677.587891"/>
     <use xlink:href="#DejaVuSans-f3" x="741.064453"/>
     <use xlink:href="#DejaVuSans-73" x="802.246094"/>
     <use xlink:href="#DejaVuSans-20" x="854.345703"/>
     <use xlink:href="#DejaVuSans-70" x="886.132812"/>
     <use xlink:href="#DejaVuSans-65" x="949.609375"/>
     <use xlink:href="#DejaVuSans-72" x="1011.132812"/>
     <use xlink:href="#DejaVuSans-ed" x="1052.246094"/>
     <use xlink:href="#DejaVuSans-6f" x="1080.029297"/>
     <use xlink:href="#DejaVuSans-64" x="1141.210938"/>
     <use xlink:href="#DejaVuSans-6f" x="1204.6875"/>
     <use xlink:href="#DejaVuSans-20" x="1265.869141"/>
     <use xlink:href="#DejaVuSans-69" x="1297.65625"/>
     <use xlink:href="#DejaVuSans-64" x="1325.439453"/>
     <use xlink:href="#DejaVuSans-65" x="1388.916016"/>
     <use xlink:href="#DejaVuSans-61" x="1450.439453"/>
     <use xlink:href="#DejaVuSans-6c" x="1511.71875"/>
    </g>
   </g>
   <g id="text_2">
    <!-- 22.6% (113) -->
    <g transform="translate(273.202241 133.502544)scale(0.1 -0.1)">
     <defs>
      <path id="DejaVuSans-32" d="M 1228 531 
L 3431 531 
L 3431 0 
L 469 0 
L 469 531 
Q 828 903 1448 1529 
Q 2069 2156 2228 2338 
Q 2531 2678 2651 2914 
Q 2772 3150 2772 3378 
Q 2772 3750 2511 3984 
Q 2250 4219 1831 4219 
Q 1534 4219 1204 4116 
Q 875 4013 500 3803 
L 500 4441 
Q 881 4594 1212 4672 
Q 1544 4750 1819 4750 
Q 2544 4750 2975 4387 
Q 3406 4025 3406 3419 
Q 3406 3131 3298 2873 
Q 3191 2616 2906 2266 
Q 2828 2175 2409 1742 
Q 1991 1309 1228 531 
z
" transform="scale(0.015625)"/>
      <path id="DejaVuSans-2e" d="M 684 794 
L 1344 794 
L 1344 0 
L 684 0 
L 684 794 
z
" transform="scale(0.015625)"/>
      <path id="DejaVuSans-36" d="M 2113 2584 
Q 1688 2584 1439 2293 
Q 1191 2003 1191 1497 
Q 1191 994 1439 701 
Q 1688 409 2113 409 
Q 2538 409 2786 701 
Q 3034 994 3034 1497 
Q 3034 2003 2786 2293 
Q 2538 2584 2113 2584 
z
M 3366 4563 
L 3366 3988 
Q 3128 4100 2886 4159 
Q 2644 4219 2406 4219 
Q 1781 4219 1451 3797 
Q 1122 3375 1075 2522 
Q 1259 2794 1537 2939 
Q 1816 3084 2150 3084 
Q 2853 3084 3261 2657 
Q 3669 2231 3669 1497 
Q 3669 778 3244 343 
Q 2819 -91 2113 -91 
Q 1303 -91 875 529 
Q 447 1150 447 2328 
Q 447 3434 972 4092 
Q 1497 4750 2381 4750 
Q 2619 4750 2861 4703 
Q 3103 4656 3366 4563 
z
" transform="scale(0.015625)"/>
      <path id="DejaVuSans-25" d="M 4653 2053 
Q 4381 2053 4226 1822 
Q 4072 1591 4072 1178 
Q 4072 772 4226 539 
Q 4381 306 4653 306 
Q 4919 306 5073 539 
Q 5228 772 5228 1178 
Q 5228 1588 5073 1820 
Q 4919 2053 4653 2053 
z
M 4653 2450 
Q 5147 2450 5437 2106 
Q 5728 1763 5728 1178 
Q 5728 594 5436 251 
Q 5144 -91 4653 -91 
Q 4153 -91 3862 251 
Q 3572 594 3572 1178 
Q 3572 1766 3864 2108 
Q 4156 2450 4653 2450 
z
M 1428 4353 
Q 1159 4353 1004 4120 
Q 850 3888 850 3481 
Q 850 3069 1003 2837 
Q 1156 2606 1428 2606 
Q 1700 2606 1854 2837 
Q 2009 3069 2009 3481 
Q 2009 3884 1853 4118 
Q 1697 4353 1428 4353 
z
M 4250 4750 
L 4750 4750 
L 1831 -91 
L 1331 -91 
L 4250 4750 
z
M 1428 4750 
Q 1922 4750 2215 4408 
Q 2509 4066 2509 3481 
Q 2509 2891 2217 2550 
Q 1925 2209 1428 2209 
Q 931 2209 642 2551 
Q 353 2894 353 3481 
Q 353 4063 643 4406 
Q 934 4750 1428 4750 
z
" transform="scale(0.015625)"/>
      <path id="DejaVuSans-28" d="M 1984 4856 
Q 1566 4138 1362 3434 
Q 1159 2731 1159 2009 
Q 1159 1288 1364 580 
Q 1569 -128 1984 -844 
L 1484 -844 
Q 1016 -109 783 600 
Q 550 1309 550 2009 
Q 550 2706 781 3412 
Q 1013 4119 1484 4856 
L 1984 4856 
z
" transform="scale(0.015625)"/>
      <path id="DejaVuSans-31" d="M 794 531 
L 1825 531 
L 1825 4091 
L 703 3866 
L 703 4441 
L 1819 4666 
L 2450 4666 
L 2450 531 
L 3481 531 
L 3481 0 
L 794 0 
L 794 531 
z
" transform="scale(0.015625)"/>
      <path id="DejaVuSans-33" d="M 2597 2516 
Q 3050 2419 3304 2112 
Q 3559 1806 3559 1356 
Q 3559 666 3084 287 
Q 2609 -91 1734 -91 
Q 1441 -91 1130 -33 
Q 819 25 488 141 
L 488 750 
Q 750 597 1062 519 
Q 1375 441 1716 441 
Q 2309 441 2620 675 
Q 2931 909 2931 1356 
Q 2931 1769 2642 2001 
Q 2353 2234 1838 2234 
L 1294 2234 
L 1294 2753 
L 1863 2753 
Q 2328 2753 2575 2939 
Q 2822 3125 2822 3475 
Q 2822 3834 2567 4026 
Q 2313 4219 1838 4219 
Q 1578 4219 1281 4162 
Q 984 4106 628 3988 
L 628 4550 
Q 988 4650 1302 4700 
Q 1616 4750 1894 4750 
Q 2613 4750 3031 4423 
Q 3450 4097 3450 3541 
Q 3450 3153 3228 2886 
Q 3006 2619 2597 2516 
z
" transform="scale(0.015625)"/>
      <path id="DejaVuSans-29" d="M 513 4856 
L 1013 4856 
Q 1481 4119 1714 3412 
Q 1947 2706 1947 2009 
Q 1947 1309 1714 600 
Q 1481 -109 1013 -844 
L 513 -844 
Q 928 -128 1133 580 
Q 1338 1288 1338 2009 
Q 1338 2731 1133 3434 
Q 928 4138 513 4856 
z
" transform="scale(0.015625)"/>
     </defs>
     <use xlink:href="#DejaVuSans-32"/>
     <use xlink:href="#DejaVuSans-32" x="63.623047"/>
     <use xlink:href="#DejaVuSans-2e" x="127.246094"/>
     <use xlink:href="#DejaVuSans-36" x="159.033203"/>
     <use xlink:href="#DejaVuSans-25" x="222.65625"/>
     <use xlink:href="#DejaVuSans-20" x="317.675781"/>
     <use xlink:href="#DejaVuSans-28" x="349.462891"/>
     <use xlink:href="#DejaVuSans-31" x="388.476562"/>
     <use xlink:href="#DejaVuSans-31" x="452.099609"/>
     <use xlink:href="#DejaVuSans-33" x="515.722656"/>
     <use xlink:href="#DejaVuSans-29" x="579.345703"/>
    </g>
   </g>
   <g id="text_3">
    <!-- Concluintes no período ideal -->
    <g transform="translate(3.380404 326.768352)scale(0.1 -0.1)">
     <use xlink:href="#DejaVuSans-43"/>
     <use xlink:href="#DejaVuSans-6f" x="69.824219"/>
     <use xlink:href="#DejaVuSans-6e" x="131.005859"/>
     <use xlink:href="#DejaVuSans-63" x="194.384766"/>
     <use xlink:href="#DejaVuSans-6c" x="249.365234"/>
     <use xlink:href="#DejaVuSans-75" x="277.148438"/>
     <use xlink:href="#DejaVuSans-69" x="340.527344"/>
     <use xlink:href="#DejaVuSans-6e" x="368.310547"/>
     <use xlink:href="#DejaVuSans-74" x="431.689453"/>
     <use xlink:href="#DejaVuSans-65" x="470.898438"/>
     <use xlink:href="#DejaVuSans-73" x="532.421875"/>
     <use xlink:href="#DejaVuSans-20" x="584.521484"/>
     <use xlink:href="#DejaVuSans-6e" x="616.308594"/>
     <use xlink:href="#DejaVuSans-6f" x="679.6875"/>
     <use xlink:href="#DejaVuSans-20" x="740.869141"/>
     <use xlink:href="#DejaVuSans-70" x="772.65625"/>
     <use xlink:href="#DejaVuSans-65" x="836.132812"/>
     <use xlink:href="#DejaVuSans-72" x="897.65625"/>
     <use xlink:href="#DejaVuSans-ed" x="938.769531"/>
     <use xlink:href="#DejaVuSans-6f" x="966.552734"/>
     <use xlink:href="#DejaVuSans-64" x="1027.734375"/>
     <use xlink:href="#DejaVuSans-6f" x="1091.210938"/>
     <use xlink:href="#DejaVuSans-20" x="1152.392578"/>
     <use xlink:href="#DejaVuSans-69" x="1184.179688"/>
     <use xlink:href="#DejaVuSans-64" x="1211.962891"/>
     <use xlink:href="#DejaVuSans-65" x="1275.439453"/>
     <use xlink:href="#DejaVuSans-61" x="1336.962891"/>
     <use xlink:href="#DejaVuSans-6c" x="1398.242188"/>
    </g>
   </g>
   <g id="text_4">
    <!-- 77.4% (387) -->
    <g transform="translate(161.577452 269.784291)scale(0.1 -0.1)">
     <defs>
      <path id="DejaVuSans-37" d="M 525 4666 
L 3525 4666 
L 3525 4397 
L 1831 0 
L 1172 0 
L 2766 4134 
L 525 4134 
L 525 4666 
z
" transform="scale(0.015625)"/>
      <path id="DejaVuSans-34" d="M 2419 4116 
L 825 1625 
L 2419 1625 
L 2419 4116 
z
M 2253 4666 
L 3047 4666 
L 3047 1625 
L 3713 1625 
L 3713 1100 
L 3047 1100 
L 3047 0 
L 2419 0 
L 2419 1100 
L 313 1100 
L 313 1709 
L 2253 4666 
z
" transform="scale(0.015625)"/>
      <path id="DejaVuSans-38" d="M 2034 2216 
Q 1584 2216 1326 1975 
Q 1069 1734 1069 1313 
Q 1069 891 1326 650 
Q 1584 409 2034 409 
Q 2484 409 2743 651 
Q 3003 894 3003 1313 
Q 3003 1734 2745 1975 
Q 2488 2216 2034 2216 
z
M 1403 2484 
Q 997 2584 770 2862 
Q 544 3141 544 3541 
Q 544 4100 942 4425 
Q 1341 4750 2034 4750 
Q 2731 4750 3128 4425 
Q 3525 4100 3525 3541 
Q 3525 3141 3298 2862 
Q 3072 2584 2669 2484 
Q 3125 2378 3379 2068 
Q 3634 1759 3634 1313 
Q 3634 634 3220 271 
Q 2806 -91 2034 -91 
Q 1263 -91 848 271 
Q 434 634 434 1313 
Q 434 1759 690 2068 
Q 947 2378 1403 2484 
z
M 1172 3481 
Q 1172 3119 1398 2916 
Q 1625 2713 2034 2713 
Q 2441 2713 2670 2916 
Q 2900 3119 2900 3481 
Q 2900 3844 2670 4047 
Q 2441 4250 2034 4250 
Q 1625 4250 1398 4047 
Q 1172 3844 1172 3481 
z
" transform="scale(0.015625)"/>
     </defs>
     <use xlink:href="#DejaVuSans-37"/>
     <use xlink:href="#DejaVuSans-37" x="63.623047"/>
     <use xlink:href="#DejaVuSans-2e" x="127.246094"/>
     <use xlink:href="#DejaVuSans-34" x="159.033203"/>
     <use xlink:href="#DejaVuSans-25" x="222.65625"/>
     <use xlink:href="#DejaVuSans-20" x="317.675781"/>
     <use xlink:href="#DejaVuSans-28" x="349.462891"/>
     <use xlink:href="#DejaVuSans-33" x="388.476562"/>
     <use xlink:href="#DejaVuSans-38" x="452.099609"/>
     <use xlink:href="#DejaVuSans-37" x="515.722656"/>
     <use xlink:href="#DejaVuSans-29" x="579.345703"/>
    </g>
   </g>
   <g id="text_5">
    <!-- População geral -->
    <g transform="translate(200.587282 30.692595)scale(0.12 -0.12)">
     <defs>
      <path id="DejaVuSans-50" d="M 1259 4147 
L 1259 2394 
L 2053 2394 
Q 2494 2394 2734 2622 
Q 2975 2850 2975 3272 
Q 2975 3691 2734 3919 
Q 2494 4147 2053 4147 
L 1259 4147 
z
M 628 4666 
L 2053 4666 
Q 2838 4666 3239 4311 
Q 3641 3956 3641 3272 
Q 3641 2581 3239 2228 
Q 2838 1875 2053 1875 
L 1259 1875 
L 1259 0 
L 628 0 
L 628 4666 
z
" transform="scale(0.015625)"/>
      <path id="DejaVuSans-e7" d="M 3122 3366 
L 3122 2828 
Q 2878 2963 2633 3030 
Q 2388 3097 2138 3097 
Q 1578 3097 1268 2742 
Q 959 2388 959 1747 
Q 959 1106 1268 751 
Q 1578 397 2138 397 
Q 2388 397 2633 464 
Q 2878 531 3122 666 
L 3122 134 
Q 2881 22 2623 -34 
Q 2366 -91 2075 -91 
Q 1284 -91 818 406 
Q 353 903 353 1747 
Q 353 2603 823 3093 
Q 1294 3584 2113 3584 
Q 2378 3584 2631 3529 
Q 2884 3475 3122 3366 
z
M 2309 0 
Q 2481 -194 2565 -358 
Q 2650 -522 2650 -672 
Q 2650 -950 2462 -1092 
Q 2275 -1234 1906 -1234 
Q 1763 -1234 1627 -1215 
Q 1491 -1197 1356 -1159 
L 1356 -750 
Q 1463 -803 1578 -826 
Q 1694 -850 1841 -850 
Q 2025 -850 2119 -775 
Q 2213 -700 2213 -556 
Q 2213 -463 2145 -327 
Q 2078 -191 1938 0 
L 2309 0 
z
" transform="scale(0.015625)"/>
      <path id="DejaVuSans-e3" d="M 2194 1759 
Q 1497 1759 1228 1600 
Q 959 1441 959 1056 
Q 959 750 1161 570 
Q 1363 391 1709 391 
Q 2188 391 2477 730 
Q 2766 1069 2766 1631 
L 2766 1759 
L 2194 1759 
z
M 3341 1997 
L 3341 0 
L 2766 0 
L 2766 531 
Q 2569 213 2275 61 
Q 1981 -91 1556 -91 
Q 1019 -91 701 211 
Q 384 513 384 1019 
Q 384 1609 779 1909 
Q 1175 2209 1959 2209 
L 2766 2209 
L 2766 2266 
Q 2766 2663 2505 2880 
Q 2244 3097 1772 3097 
Q 1472 3097 1187 3025 
Q 903 2953 641 2809 
L 641 3341 
Q 956 3463 1253 3523 
Q 1550 3584 1831 3584 
Q 2591 3584 2966 3190 
Q 3341 2797 3341 1997 
z
M 1844 4281 
L 1666 4453 
Q 1597 4516 1545 4545 
Q 1494 4575 1453 4575 
Q 1334 4575 1278 4461 
Q 1222 4347 1216 4091 
L 825 4091 
Q 831 4513 990 4742 
Q 1150 4972 1434 4972 
Q 1553 4972 1653 4928 
Q 1753 4884 1869 4781 
L 2047 4609 
Q 2116 4547 2167 4517 
Q 2219 4488 2259 4488 
Q 2378 4488 2434 4602 
Q 2491 4716 2497 4972 
L 2888 4972 
Q 2881 4550 2722 4320 
Q 2563 4091 2278 4091 
Q 2159 4091 2059 4134 
Q 1959 4178 1844 4281 
z
" transform="scale(0.015625)"/>
      <path id="DejaVuSans-67" d="M 2906 1791 
Q 2906 2416 2648 2759 
Q 2391 3103 1925 3103 
Q 1463 3103 1205 2759 
Q 947 2416 947 1791 
Q 947 1169 1205 825 
Q 1463 481 1925 481 
Q 2391 481 2648 825 
Q 2906 1169 2906 1791 
z
M 3481 434 
Q 3481 -459 3084 -895 
Q 2688 -1331 1869 -1331 
Q 1566 -1331 1297 -1286 
Q 1028 -1241 775 -1147 
L 775 -588 
Q 1028 -725 1275 -790 
Q 1522 -856 1778 -856 
Q 2344 -856 2625 -561 
Q 2906 -266 2906 331 
L 2906 616 
Q 2728 306 2450 153 
Q 2172 0 1784 0 
Q 1141 0 747 490 
Q 353 981 353 1791 
Q 353 2603 747 3093 
Q 1141 3584 1784 3584 
Q 2172 3584 2450 3431 
Q 2728 3278 2906 2969 
L 2906 3500 
L 3481 3500 
L 3481 434 
z
" transform="scale(0.015625)"/>
     </defs>
     <use xlink:href="#DejaVuSans-50"/>
     <use xlink:href="#DejaVuSans-6f" x="56.677734"/>
     <use xlink:href="#DejaVuSans-70" x="117.859375"/>
     <use xlink:href="#DejaVuSans-75" x="181.335938"/>
     <use xlink:href="#DejaVuSans-6c" x="244.714844"/>
     <use xlink:href="#DejaVuSans-61" x="272.498047"/>
     <use xlink:href="#DejaVuSans-e7" x="333.777344"/>
     <use xlink:href="#DejaVuSans-e3" x="388.757812"/>
     <use xlink:href="#DejaVuSans-6f" x="450.037109"/>
     <use xlink:href="#DejaVuSans-20" x="511.21875"/>
     <use xlink:href="#DejaVuSans-67" x="543.005859"/>
     <use xlink:href="#DejaVuSans-65" x="606.482422"/>
     <use xlink:href="#DejaVuSans-72" x="668.005859"/>
     <use xlink:href="#DejaVuSans-61" x="709.119141"/>
     <use xlink:href="#DejaVuSans-6c" x="770.398438"/>
    </g>
   </g>
  </g>
  <g id="axes_2">
   <g id="patch_4">
    <path d="M 897.865918 174.841156 
C 891.449662 138.452759 871.42839 105.832517 841.88777 83.637121 
C 812.34715 61.441726 775.443257 51.291149 738.706932 55.256781 
L 754.347649 200.1473 
L 897.865918 174.841156 
z
" style="fill: #c6dbef"/>
   </g>
   <g id="patch_5">
    <path d="M 738.706932 55.256781 
C 724.253328 56.817026 710.114205 60.531262 696.759823 66.275956 
C 683.40544 72.020649 670.985509 79.731399 659.913109 89.151749 
C 648.840709 98.5721 639.23997 109.596443 631.430205 121.858115 
C 623.62044 134.119788 617.689202 147.481328 613.833762 161.49834 
C 609.978322 175.515352 608.2419 190.030695 608.68225 204.561598 
C 609.1226 219.092501 611.734784 233.476062 616.431924 247.233893 
C 621.129064 260.991725 627.8585 273.969591 636.396417 285.735858 
C 644.934333 297.502124 655.185014 307.924882 666.807528 316.657478 
C 678.430041 325.390073 691.294091 332.334607 704.971827 337.26011 
C 718.649564 342.185612 732.987649 345.036864 747.509209 345.719035 
C 762.030768 346.401206 776.573004 344.906648 790.652252 341.28507 
C 804.7315 337.663491 818.18992 331.955493 830.579896 324.350918 
C 842.969871 316.746344 854.152501 307.330446 863.755858 296.416392 
C 873.359215 285.502338 881.275639 273.212481 887.241834 259.955575 
C 893.20803 246.698669 897.157112 232.623333 898.957736 218.197703 
C 900.75836 203.772074 900.390341 189.157872 897.865918 174.841156 
L 754.347649 200.1473 
L 738.706932 55.256781 
z
" style="fill: #2070b4"/>
   </g>
   <g id="matplotlib.axis_3"/>
   <g id="matplotlib.axis_4"/>
   <g id="text_6">
    <!-- Concluintes após período ideal -->
    <g transform="translate(850.641782 74.945479)scale(0.1 -0.1)">
     <use xlink:href="#DejaVuSans-43"/>
     <use xlink:href="#DejaVuSans-6f" x="69.824219"/>
     <use xlink:href="#DejaVuSans-6e" x="131.005859"/>
     <use xlink:href="#DejaVuSans-63" x="194.384766"/>
     <use xlink:href="#DejaVuSans-6c" x="249.365234"/>
     <use xlink:href="#DejaVuSans-75" x="277.148438"/>
     <use xlink:href="#DejaVuSans-69" x="340.527344"/>
     <use xlink:href="#DejaVuSans-6e" x="368.310547"/>
     <use xlink:href="#DejaVuSans-74" x="431.689453"/>
     <use xlink:href="#DejaVuSans-65" x="470.898438"/>
     <use xlink:href="#DejaVuSans-73" x="532.421875"/>
     <use xlink:href="#DejaVuSans-20" x="584.521484"/>
     <use xlink:href="#DejaVuSans-61" x="616.308594"/>
     <use xlink:href="#DejaVuSans-70" x="677.587891"/>
     <use xlink:href="#DejaVuSans-f3" x="741.064453"/>
     <use xlink:href="#DejaVuSans-73" x="802.246094"/>
     <use xlink:href="#DejaVuSans-20" x="854.345703"/>
     <use xlink:href="#DejaVuSans-70" x="886.132812"/>
     <use xlink:href="#DejaVuSans-65" x="949.609375"/>
     <use xlink:href="#DejaVuSans-72" x="1011.132812"/>
     <use xlink:href="#DejaVuSans-ed" x="1052.246094"/>
     <use xlink:href="#DejaVuSans-6f" x="1080.029297"/>
     <use xlink:href="#DejaVuSans-64" x="1141.210938"/>
     <use xlink:href="#DejaVuSans-6f" x="1204.6875"/>
     <use xlink:href="#DejaVuSans-20" x="1265.869141"/>
     <use xlink:href="#DejaVuSans-69" x="1297.65625"/>
     <use xlink:href="#DejaVuSans-64" x="1325.439453"/>
     <use xlink:href="#DejaVuSans-65" x="1388.916016"/>
     <use xlink:href="#DejaVuSans-61" x="1450.439453"/>
     <use xlink:href="#DejaVuSans-6c" x="1511.71875"/>
    </g>
   </g>
   <g id="text_7">
    <!-- 23.9% (101) -->
    <g transform="translate(775.953753 133.000568)scale(0.1 -0.1)">
     <defs>
      <path id="DejaVuSans-39" d="M 703 97 
L 703 672 
Q 941 559 1184 500 
Q 1428 441 1663 441 
Q 2288 441 2617 861 
Q 2947 1281 2994 2138 
Q 2813 1869 2534 1725 
Q 2256 1581 1919 1581 
Q 1219 1581 811 2004 
Q 403 2428 403 3163 
Q 403 3881 828 4315 
Q 1253 4750 1959 4750 
Q 2769 4750 3195 4129 
Q 3622 3509 3622 2328 
Q 3622 1225 3098 567 
Q 2575 -91 1691 -91 
Q 1453 -91 1209 -44 
Q 966 3 703 97 
z
M 1959 2075 
Q 2384 2075 2632 2365 
Q 2881 2656 2881 3163 
Q 2881 3666 2632 3958 
Q 2384 4250 1959 4250 
Q 1534 4250 1286 3958 
Q 1038 3666 1038 3163 
Q 1038 2656 1286 2365 
Q 1534 2075 1959 2075 
z
" transform="scale(0.015625)"/>
      <path id="DejaVuSans-30" d="M 2034 4250 
Q 1547 4250 1301 3770 
Q 1056 3291 1056 2328 
Q 1056 1369 1301 889 
Q 1547 409 2034 409 
Q 2525 409 2770 889 
Q 3016 1369 3016 2328 
Q 3016 3291 2770 3770 
Q 2525 4250 2034 4250 
z
M 2034 4750 
Q 2819 4750 3233 4129 
Q 3647 3509 3647 2328 
Q 3647 1150 3233 529 
Q 2819 -91 2034 -91 
Q 1250 -91 836 529 
Q 422 1150 422 2328 
Q 422 3509 836 4129 
Q 1250 4750 2034 4750 
z
" transform="scale(0.015625)"/>
     </defs>
     <use xlink:href="#DejaVuSans-32"/>
     <use xlink:href="#DejaVuSans-33" x="63.623047"/>
     <use xlink:href="#DejaVuSans-2e" x="127.246094"/>
     <use xlink:href="#DejaVuSans-39" x="159.033203"/>
     <use xlink:href="#DejaVuSans-25" x="222.65625"/>
     <use xlink:href="#DejaVuSans-20" x="317.675781"/>
     <use xlink:href="#DejaVuSans-28" x="349.462891"/>
     <use xlink:href="#DejaVuSans-31" x="388.476562"/>
     <use xlink:href="#DejaVuSans-30" x="452.099609"/>
     <use xlink:href="#DejaVuSans-31" x="515.722656"/>
     <use xlink:href="#DejaVuSans-29" x="579.345703"/>
    </g>
   </g>
   <g id="text_8">
    <!-- Concluintes no período ideal -->
    <g transform="translate(515.448828 331.26787)scale(0.1 -0.1)">
     <use xlink:href="#DejaVuSans-43"/>
     <use xlink:href="#DejaVuSans-6f" x="69.824219"/>
     <use xlink:href="#DejaVuSans-6e" x="131.005859"/>
     <use xlink:href="#DejaVuSans-63" x="194.384766"/>
     <use xlink:href="#DejaVuSans-6c" x="249.365234"/>
     <use xlink:href="#DejaVuSans-75" x="277.148438"/>
     <use xlink:href="#DejaVuSans-69" x="340.527344"/>
     <use xlink:href="#DejaVuSans-6e" x="368.310547"/>
     <use xlink:href="#DejaVuSans-74" x="431.689453"/>
     <use xlink:href="#DejaVuSans-65" x="470.898438"/>
     <use xlink:href="#DejaVuSans-73" x="532.421875"/>
     <use xlink:href="#DejaVuSans-20" x="584.521484"/>
     <use xlink:href="#DejaVuSans-6e" x="616.308594"/>
     <use xlink:href="#DejaVuSans-6f" x="679.6875"/>
     <use xlink:href="#DejaVuSans-20" x="740.869141"/>
     <use xlink:href="#DejaVuSans-70" x="772.65625"/>
     <use xlink:href="#DejaVuSans-65" x="836.132812"/>
     <use xlink:href="#DejaVuSans-72" x="897.65625"/>
     <use xlink:href="#DejaVuSans-ed" x="938.769531"/>
     <use xlink:href="#DejaVuSans-6f" x="966.552734"/>
     <use xlink:href="#DejaVuSans-64" x="1027.734375"/>
     <use xlink:href="#DejaVuSans-6f" x="1091.210938"/>
     <use xlink:href="#DejaVuSans-20" x="1152.392578"/>
     <use xlink:href="#DejaVuSans-69" x="1184.179688"/>
     <use xlink:href="#DejaVuSans-64" x="1211.962891"/>
     <use xlink:href="#DejaVuSans-65" x="1275.439453"/>
     <use xlink:href="#DejaVuSans-61" x="1336.962891"/>
     <use xlink:href="#DejaVuSans-6c" x="1398.242188"/>
    </g>
   </g>
   <g id="text_9">
    <!-- 76.1% (321) -->
    <g transform="translate(670.905607 272.812781)scale(0.1 -0.1)">
     <use xlink:href="#DejaVuSans-37"/>
     <use xlink:href="#DejaVuSans-36" x="63.623047"/>
     <use xlink:href="#DejaVuSans-2e" x="127.246094"/>
     <use xlink:href="#DejaVuSans-31" x="159.033203"/>
     <use xlink:href="#DejaVuSans-25" x="222.65625"/>
     <use xlink:href="#DejaVuSans-20" x="317.675781"/>
     <use xlink:href="#DejaVuSans-28" x="349.462891"/>
     <use xlink:href="#DejaVuSans-33" x="388.476562"/>
     <use xlink:href="#DejaVuSans-32" x="452.099609"/>
     <use xlink:href="#DejaVuSans-31" x="515.722656"/>
     <use xlink:href="#DejaVuSans-29" x="579.345703"/>
    </g>
   </g>
   <g id="text_10">
    <!-- População em vulnerabilidade socioeconômica -->
    <g transform="translate(614.057005 30.692595)scale(0.12 -0.12)">
     <defs>
      <path id="DejaVuSans-6d" d="M 3328 2828 
Q 3544 3216 3844 3400 
Q 4144 3584 4550 3584 
Q 5097 3584 5394 3201 
Q 5691 2819 5691 2113 
L 5691 0 
L 5113 0 
L 5113 2094 
Q 5113 2597 4934 2840 
Q 4756 3084 4391 3084 
Q 3944 3084 3684 2787 
Q 3425 2491 3425 1978 
L 3425 0 
L 2847 0 
L 2847 2094 
Q 2847 2600 2669 2842 
Q 2491 3084 2119 3084 
Q 1678 3084 1418 2786 
Q 1159 2488 1159 1978 
L 1159 0 
L 581 0 
L 581 3500 
L 1159 3500 
L 1159 2956 
Q 1356 3278 1631 3431 
Q 1906 3584 2284 3584 
Q 2666 3584 2933 3390 
Q 3200 3197 3328 2828 
z
" transform="scale(0.015625)"/>
      <path id="DejaVuSans-76" d="M 191 3500 
L 800 3500 
L 1894 563 
L 2988 3500 
L 3597 3500 
L 2284 0 
L 1503 0 
L 191 3500 
z
" transform="scale(0.015625)"/>
      <path id="DejaVuSans-62" d="M 3116 1747 
Q 3116 2381 2855 2742 
Q 2594 3103 2138 3103 
Q 1681 3103 1420 2742 
Q 1159 2381 1159 1747 
Q 1159 1113 1420 752 
Q 1681 391 2138 391 
Q 2594 391 2855 752 
Q 3116 1113 3116 1747 
z
M 1159 2969 
Q 1341 3281 1617 3432 
Q 1894 3584 2278 3584 
Q 2916 3584 3314 3078 
Q 3713 2572 3713 1747 
Q 3713 922 3314 415 
Q 2916 -91 2278 -91 
Q 1894 -91 1617 61 
Q 1341 213 1159 525 
L 1159 0 
L 581 0 
L 581 4863 
L 1159 4863 
L 1159 2969 
z
" transform="scale(0.015625)"/>
      <path id="DejaVuSans-f4" d="M 1959 3097 
Q 1497 3097 1228 2736 
Q 959 2375 959 1747 
Q 959 1119 1226 758 
Q 1494 397 1959 397 
Q 2419 397 2687 759 
Q 2956 1122 2956 1747 
Q 2956 2369 2687 2733 
Q 2419 3097 1959 3097 
z
M 1959 3584 
Q 2709 3584 3137 3096 
Q 3566 2609 3566 1747 
Q 3566 888 3137 398 
Q 2709 -91 1959 -91 
Q 1206 -91 779 398 
Q 353 888 353 1747 
Q 353 2609 779 3096 
Q 1206 3584 1959 3584 
z
M 1728 5119 
L 2191 5119 
L 2956 3944 
L 2522 3944 
L 1959 4709 
L 1397 3944 
L 963 3944 
L 1728 5119 
z
" transform="scale(0.015625)"/>
     </defs>
     <use xlink:href="#DejaVuSans-50"/>
     <use xlink:href="#DejaVuSans-6f" x="56.677734"/>
     <use xlink:href="#DejaVuSans-70" x="117.859375"/>
     <use xlink:href="#DejaVuSans-75" x="181.335938"/>
     <use xlink:href="#DejaVuSans-6c" x="244.714844"/>
     <use xlink:href="#DejaVuSans-61" x="272.498047"/>
     <use xlink:href="#DejaVuSans-e7" x="333.777344"/>
     <use xlink:href="#DejaVuSans-e3" x="388.757812"/>
     <use xlink:href="#DejaVuSans-6f" x="450.037109"/>
     <use xlink:href="#DejaVuSans-20" x="511.21875"/>
     <use xlink:href="#DejaVuSans-65" x="543.005859"/>
     <use xlink:href="#DejaVuSans-6d" x="604.529297"/>
     <use xlink:href="#DejaVuSans-20" x="701.941406"/>
     <use xlink:href="#DejaVuSans-76" x="733.728516"/>
     <use xlink:href="#DejaVuSans-75" x="792.908203"/>
     <use xlink:href="#DejaVuSans-6c" x="856.287109"/>
     <use xlink:href="#DejaVuSans-6e" x="884.070312"/>
     <use xlink:href="#DejaVuSans-65" x="947.449219"/>
     <use xlink:href="#DejaVuSans-72" x="1008.972656"/>
     <use xlink:href="#DejaVuSans-61" x="1050.085938"/>
     <use xlink:href="#DejaVuSans-62" x="1111.365234"/>
     <use xlink:href="#DejaVuSans-69" x="1174.841797"/>
     <use xlink:href="#DejaVuSans-6c" x="1202.625"/>
     <use xlink:href="#DejaVuSans-69" x="1230.408203"/>
     <use xlink:href="#DejaVuSans-64" x="1258.191406"/>
     <use xlink:href="#DejaVuSans-61" x="1321.667969"/>
     <use xlink:href="#DejaVuSans-64" x="1382.947266"/>
     <use xlink:href="#DejaVuSans-65" x="1446.423828"/>
     <use xlink:href="#DejaVuSans-20" x="1507.947266"/>
     <use xlink:href="#DejaVuSans-73" x="1539.734375"/>
     <use xlink:href="#DejaVuSans-6f" x="1591.833984"/>
     <use xlink:href="#DejaVuSans-63" x="1653.015625"/>
     <use xlink:href="#DejaVuSans-69" x="1707.996094"/>
     <use xlink:href="#DejaVuSans-6f" x="1735.779297"/>
     <use xlink:href="#DejaVuSans-65" x="1796.960938"/>
     <use xlink:href="#DejaVuSans-63" x="1858.484375"/>
     <use xlink:href="#DejaVuSans-6f" x="1913.464844"/>
     <use xlink:href="#DejaVuSans-6e" x="1974.646484"/>
     <use xlink:href="#DejaVuSans-f4" x="2038.025391"/>
     <use xlink:href="#DejaVuSans-6d" x="2099.207031"/>
     <use xlink:href="#DejaVuSans-69" x="2196.619141"/>
     <use xlink:href="#DejaVuSans-63" x="2224.402344"/>
     <use xlink:href="#DejaVuSans-61" x="2279.382812"/>
    </g>
   </g>
  </g>
  <g id="text_11">
   <!-- Comparação de conclusão do curso entre população geral e em vulnerabilidade socioeconômica -->
   <g transform="translate(213.676875 12.598365)scale(0.12 -0.12)">
    <use xlink:href="#DejaVuSans-43"/>
    <use xlink:href="#DejaVuSans-6f" x="69.824219"/>
    <use xlink:href="#DejaVuSans-6d" x="131.005859"/>
    <use xlink:href="#DejaVuSans-70" x="228.417969"/>
    <use xlink:href="#DejaVuSans-61" x="291.894531"/>
    <use xlink:href="#DejaVuSans-72" x="353.173828"/>
    <use xlink:href="#DejaVuSans-61" x="394.287109"/>
    <use xlink:href="#DejaVuSans-e7" x="455.566406"/>
    <use xlink:href="#DejaVuSans-e3" x="510.546875"/>
    <use xlink:href="#DejaVuSans-6f" x="571.826172"/>
    <use xlink:href="#DejaVuSans-20" x="633.007812"/>
    <use xlink:href="#DejaVuSans-64" x="664.794922"/>
    <use xlink:href="#DejaVuSans-65" x="728.271484"/>
    <use xlink:href="#DejaVuSans-20" x="789.794922"/>
    <use xlink:href="#DejaVuSans-63" x="821.582031"/>
    <use xlink:href="#DejaVuSans-6f" x="876.5625"/>
    <use xlink:href="#DejaVuSans-6e" x="937.744141"/>
    <use xlink:href="#DejaVuSans-63" x="1001.123047"/>
    <use xlink:href="#DejaVuSans-6c" x="1056.103516"/>
    <use xlink:href="#DejaVuSans-75" x="1083.886719"/>
    <use xlink:href="#DejaVuSans-73" x="1147.265625"/>
    <use xlink:href="#DejaVuSans-e3" x="1199.365234"/>
    <use xlink:href="#DejaVuSans-6f" x="1260.644531"/>
    <use xlink:href="#DejaVuSans-20" x="1321.826172"/>
    <use xlink:href="#DejaVuSans-64" x="1353.613281"/>
    <use xlink:href="#DejaVuSans-6f" x="1417.089844"/>
    <use xlink:href="#DejaVuSans-20" x="1478.271484"/>
    <use xlink:href="#DejaVuSans-63" x="1510.058594"/>
    <use xlink:href="#DejaVuSans-75" x="1565.039062"/>
    <use xlink:href="#DejaVuSans-72" x="1628.417969"/>
    <use xlink:href="#DejaVuSans-73" x="1669.53125"/>
    <use xlink:href="#DejaVuSans-6f" x="1721.630859"/>
    <use xlink:href="#DejaVuSans-20" x="1782.8125"/>
    <use xlink:href="#DejaVuSans-65" x="1814.599609"/>
    <use xlink:href="#DejaVuSans-6e" x="1876.123047"/>
    <use xlink:href="#DejaVuSans-74" x="1939.501953"/>
    <use xlink:href="#DejaVuSans-72" x="1978.710938"/>
    <use xlink:href="#DejaVuSans-65" x="2017.574219"/>
    <use xlink:href="#DejaVuSans-20" x="2079.097656"/>
    <use xlink:href="#DejaVuSans-70" x="2110.884766"/>
    <use xlink:href="#DejaVuSans-6f" x="2174.361328"/>
    <use xlink:href="#DejaVuSans-70" x="2235.542969"/>
    <use xlink:href="#DejaVuSans-75" x="2299.019531"/>
    <use xlink:href="#DejaVuSans-6c" x="2362.398438"/>
    <use xlink:href="#DejaVuSans-61" x="2390.181641"/>
    <use xlink:href="#DejaVuSans-e7" x="2451.460938"/>
    <use xlink:href="#DejaVuSans-e3" x="2506.441406"/>
    <use xlink:href="#DejaVuSans-6f" x="2567.720703"/>
    <use xlink:href="#DejaVuSans-20" x="2628.902344"/>
    <use xlink:href="#DejaVuSans-67" x="2660.689453"/>
    <use xlink:href="#DejaVuSans-65" x="2724.166016"/>
    <use xlink:href="#DejaVuSans-72" x="2785.689453"/>
    <use xlink:href="#DejaVuSans-61" x="2826.802734"/>
    <use xlink:href="#DejaVuSans-6c" x="2888.082031"/>
    <use xlink:href="#DejaVuSans-20" x="2915.865234"/>
    <use xlink:href="#DejaVuSans-65" x="2947.652344"/>
    <use xlink:href="#DejaVuSans-20" x="3009.175781"/>
    <use xlink:href="#DejaVuSans-65" x="3040.962891"/>
    <use xlink:href="#DejaVuSans-6d" x="3102.486328"/>
    <use xlink:href="#DejaVuSans-20" x="3199.898438"/>
    <use xlink:href="#DejaVuSans-76" x="3231.685547"/>
    <use xlink:href="#DejaVuSans-75" x="3290.865234"/>
    <use xlink:href="#DejaVuSans-6c" x="3354.244141"/>
    <use xlink:href="#DejaVuSans-6e" x="3382.027344"/>
    <use xlink:href="#DejaVuSans-65" x="3445.40625"/>
    <use xlink:href="#DejaVuSans-72" x="3506.929688"/>
    <use xlink:href="#DejaVuSans-61" x="3548.042969"/>
    <use xlink:href="#DejaVuSans-62" x="3609.322266"/>
    <use xlink:href="#DejaVuSans-69" x="3672.798828"/>
    <use xlink:href="#DejaVuSans-6c" x="3700.582031"/>
    <use xlink:href="#DejaVuSans-69" x="3728.365234"/>
    <use xlink:href="#DejaVuSans-64" x="3756.148438"/>
    <use xlink:href="#DejaVuSans-61" x="3819.625"/>
    <use xlink:href="#DejaVuSans-64" x="3880.904297"/>
    <use xlink:href="#DejaVuSans-65" x="3944.380859"/>
    <use xlink:href="#DejaVuSans-20" x="4005.904297"/>
    <use xlink:href="#DejaVuSans-73" x="4037.691406"/>
    <use xlink:href="#DejaVuSans-6f" x="4089.791016"/>
    <use xlink:href="#DejaVuSans-63" x="4150.972656"/>
    <use xlink:href="#DejaVuSans-69" x="4205.953125"/>
    <use xlink:href="#DejaVuSans-6f" x="4233.736328"/>
    <use xlink:href="#DejaVuSans-65" x="4294.917969"/>
    <use xlink:href="#DejaVuSans-63" x="4356.441406"/>
    <use xlink:href="#DejaVuSans-6f" x="4411.421875"/>
    <use xlink:href="#DejaVuSans-6e" x="4472.603516"/>
    <use xlink:href="#DejaVuSans-f4" x="4535.982422"/>
    <use xlink:href="#DejaVuSans-6d" x="4597.164062"/>
    <use xlink:href="#DejaVuSans-69" x="4694.576172"/>
    <use xlink:href="#DejaVuSans-63" x="4722.359375"/>
    <use xlink:href="#DejaVuSans-61" x="4777.339844"/>
   </g>
  </g>
 </g>
</svg>
