<?xml version="1.0" encoding="utf-8" standalone="no"?>
<!DOCTYPE svg PUBLIC "-//W3C//DTD SVG 1.1//EN"
  "http://www.w3.org/Graphics/SVG/1.1/DTD/svg11.dtd">
<svg xmlns:xlink="http://www.w3.org/1999/xlink" width="1080pt" height="360pt" viewBox="0 0 1080 360" xmlns="http://www.w3.org/2000/svg" version="1.1">
 <metadata>
  <rdf:RDF xmlns:dc="http://purl.org/dc/elements/1.1/" xmlns:cc="http://creativecommons.org/ns#" xmlns:rdf="http://www.w3.org/1999/02/22-rdf-syntax-ns#">
   <cc:Work>
    <dc:type rdf:resource="http://purl.org/dc/dcmitype/StillImage"/>
    <dc:date>2022-04-20T14:17:34.946065</dc:date>
    <dc:format>image/svg+xml</dc:format>
    <dc:creator>
     <cc:Agent>
      <dc:title>Matplotlib v3.5.1, https://matplotlib.org/</dc:title>
     </cc:Agent>
    </dc:creator>
   </cc:Work>
  </rdf:RDF>
 </metadata>
 <defs>
  <style type="text/css">*{stroke-linejoin: round; stroke-linecap: butt}</style>
 </defs>
 <g id="figure_1">
  <g id="patch_1">
   <path d="M 0 360 
L 1080 360 
L 1080 0 
L 0 0 
L 0 360 
z
" style="fill: none"/>
  </g>
  <g id="axes_1">
   <g id="patch_2">
    <path d="M 40.33947 322.707405 
L 543.407115 322.707405 
L 543.407115 39.93697 
L 40.33947 39.93697 
z
" style="fill: #ffffff"/>
   </g>
   <g id="patch_3">
    <path d="M 63.206181 322.707405 
L 68.650636 322.707405 
L 68.650636 270.917948 
L 63.206181 270.917948 
z
" clip-path="url(#p5b56ec448b)" style="fill: #1f77b4; fill-opacity: 0.5; stroke: #000000; stroke-width: 0.411747; stroke-linejoin: miter"/>
   </g>
   <g id="patch_4">
    <path d="M 68.650636 322.707405 
L 74.095091 322.707405 
L 74.095091 312.349514 
L 68.650636 312.349514 
z
" clip-path="url(#p5b56ec448b)" style="fill: #1f77b4; fill-opacity: 0.5; stroke: #000000; stroke-width: 0.411747; stroke-linejoin: miter"/>
   </g>
   <g id="patch_5">
    <path d="M 74.095091 322.707405 
L 79.539546 322.707405 
L 79.539546 301.991622 
L 74.095091 301.991622 
z
" clip-path="url(#p5b56ec448b)" style="fill: #1f77b4; fill-opacity: 0.5; stroke: #000000; stroke-width: 0.411747; stroke-linejoin: miter"/>
   </g>
   <g id="patch_6">
    <path d="M 79.539546 322.707405 
L 84.984001 322.707405 
L 84.984001 281.275839 
L 79.539546 281.275839 
z
" clip-path="url(#p5b56ec448b)" style="fill: #1f77b4; fill-opacity: 0.5; stroke: #000000; stroke-width: 0.411747; stroke-linejoin: miter"/>
   </g>
   <g id="patch_7">
    <path d="M 84.984001 322.707405 
L 90.428456 322.707405 
L 90.428456 312.349514 
L 84.984001 312.349514 
z
" clip-path="url(#p5b56ec448b)" style="fill: #1f77b4; fill-opacity: 0.5; stroke: #000000; stroke-width: 0.411747; stroke-linejoin: miter"/>
   </g>
   <g id="patch_8">
    <path d="M 90.428456 322.707405 
L 95.872911 322.707405 
L 95.872911 260.560057 
L 90.428456 260.560057 
z
" clip-path="url(#p5b56ec448b)" style="fill: #1f77b4; fill-opacity: 0.5; stroke: #000000; stroke-width: 0.411747; stroke-linejoin: miter"/>
   </g>
   <g id="patch_9">
    <path d="M 95.872911 322.707405 
L 101.317366 322.707405 
L 101.317366 115.549577 
L 95.872911 115.549577 
z
" clip-path="url(#p5b56ec448b)" style="fill: #1f77b4; fill-opacity: 0.5; stroke: #000000; stroke-width: 0.411747; stroke-linejoin: miter"/>
   </g>
   <g id="patch_10">
    <path d="M 101.317366 322.707405 
L 106.761821 322.707405 
L 106.761821 198.412708 
L 101.317366 198.412708 
z
" clip-path="url(#p5b56ec448b)" style="fill: #1f77b4; fill-opacity: 0.5; stroke: #000000; stroke-width: 0.411747; stroke-linejoin: miter"/>
   </g>
   <g id="patch_11">
    <path d="M 106.761821 322.707405 
L 112.206276 322.707405 
L 112.206276 115.549577 
L 106.761821 115.549577 
z
" clip-path="url(#p5b56ec448b)" style="fill: #1f77b4; fill-opacity: 0.5; stroke: #000000; stroke-width: 0.411747; stroke-linejoin: miter"/>
   </g>
   <g id="patch_12">
    <path d="M 112.206276 322.707405 
L 117.650731 322.707405 
L 117.650731 74.118012 
L 112.206276 74.118012 
z
" clip-path="url(#p5b56ec448b)" style="fill: #1f77b4; fill-opacity: 0.5; stroke: #000000; stroke-width: 0.411747; stroke-linejoin: miter"/>
   </g>
   <g id="patch_13">
    <path d="M 117.650731 322.707405 
L 123.095186 322.707405 
L 123.095186 188.054817 
L 117.650731 188.054817 
z
" clip-path="url(#p5b56ec448b)" style="fill: #1f77b4; fill-opacity: 0.5; stroke: #000000; stroke-width: 0.411747; stroke-linejoin: miter"/>
   </g>
   <g id="patch_14">
    <path d="M 123.095186 322.707405 
L 128.539642 322.707405 
L 128.539642 94.833794 
L 123.095186 94.833794 
z
" clip-path="url(#p5b56ec448b)" style="fill: #1f77b4; fill-opacity: 0.5; stroke: #000000; stroke-width: 0.411747; stroke-linejoin: miter"/>
   </g>
   <g id="patch_15">
    <path d="M 128.539642 322.707405 
L 133.984097 322.707405 
L 133.984097 146.623251 
L 128.539642 146.623251 
z
" clip-path="url(#p5b56ec448b)" style="fill: #1f77b4; fill-opacity: 0.5; stroke: #000000; stroke-width: 0.411747; stroke-linejoin: miter"/>
   </g>
   <g id="patch_16">
    <path d="M 133.984097 322.707405 
L 139.428552 322.707405 
L 139.428552 53.402229 
L 133.984097 53.402229 
z
" clip-path="url(#p5b56ec448b)" style="fill: #1f77b4; fill-opacity: 0.5; stroke: #000000; stroke-width: 0.411747; stroke-linejoin: miter"/>
   </g>
   <g id="patch_17">
    <path d="M 139.428552 322.707405 
L 144.873007 322.707405 
L 144.873007 198.412708 
L 139.428552 198.412708 
z
" clip-path="url(#p5b56ec448b)" style="fill: #1f77b4; fill-opacity: 0.5; stroke: #000000; stroke-width: 0.411747; stroke-linejoin: miter"/>
   </g>
   <g id="patch_18">
    <path d="M 144.873007 322.707405 
L 150.317462 322.707405 
L 150.317462 156.981143 
L 144.873007 156.981143 
z
" clip-path="url(#p5b56ec448b)" style="fill: #1f77b4; fill-opacity: 0.5; stroke: #000000; stroke-width: 0.411747; stroke-linejoin: miter"/>
   </g>
   <g id="patch_19">
    <path d="M 150.317462 322.707405 
L 155.761917 322.707405 
L 155.761917 125.907469 
L 150.317462 125.907469 
z
" clip-path="url(#p5b56ec448b)" style="fill: #1f77b4; fill-opacity: 0.5; stroke: #000000; stroke-width: 0.411747; stroke-linejoin: miter"/>
   </g>
   <g id="patch_20">
    <path d="M 155.761917 322.707405 
L 161.206372 322.707405 
L 161.206372 84.475903 
L 155.761917 84.475903 
z
" clip-path="url(#p5b56ec448b)" style="fill: #1f77b4; fill-opacity: 0.5; stroke: #000000; stroke-width: 0.411747; stroke-linejoin: miter"/>
   </g>
   <g id="patch_21">
    <path d="M 161.206372 322.707405 
L 166.650827 322.707405 
L 166.650827 198.412708 
L 161.206372 198.412708 
z
" clip-path="url(#p5b56ec448b)" style="fill: #1f77b4; fill-opacity: 0.5; stroke: #000000; stroke-width: 0.411747; stroke-linejoin: miter"/>
   </g>
   <g id="patch_22">
    <path d="M 166.650827 322.707405 
L 172.095282 322.707405 
L 172.095282 136.26536 
L 166.650827 136.26536 
z
" clip-path="url(#p5b56ec448b)" style="fill: #1f77b4; fill-opacity: 0.5; stroke: #000000; stroke-width: 0.411747; stroke-linejoin: miter"/>
   </g>
   <g id="patch_23">
    <path d="M 172.095282 322.707405 
L 177.539737 322.707405 
L 177.539737 74.118012 
L 172.095282 74.118012 
z
" clip-path="url(#p5b56ec448b)" style="fill: #1f77b4; fill-opacity: 0.5; stroke: #000000; stroke-width: 0.411747; stroke-linejoin: miter"/>
   </g>
   <g id="patch_24">
    <path d="M 177.539737 322.707405 
L 182.984192 322.707405 
L 182.984192 146.623251 
L 177.539737 146.623251 
z
" clip-path="url(#p5b56ec448b)" style="fill: #1f77b4; fill-opacity: 0.5; stroke: #000000; stroke-width: 0.411747; stroke-linejoin: miter"/>
   </g>
   <g id="patch_25">
    <path d="M 182.984192 322.707405 
L 188.428647 322.707405 
L 188.428647 125.907469 
L 182.984192 125.907469 
z
" clip-path="url(#p5b56ec448b)" style="fill: #1f77b4; fill-opacity: 0.5; stroke: #000000; stroke-width: 0.411747; stroke-linejoin: miter"/>
   </g>
   <g id="patch_26">
    <path d="M 188.428647 322.707405 
L 193.873102 322.707405 
L 193.873102 208.7706 
L 188.428647 208.7706 
z
" clip-path="url(#p5b56ec448b)" style="fill: #1f77b4; fill-opacity: 0.5; stroke: #000000; stroke-width: 0.411747; stroke-linejoin: miter"/>
   </g>
   <g id="patch_27">
    <path d="M 193.873102 322.707405 
L 199.317557 322.707405 
L 199.317557 229.486382 
L 193.873102 229.486382 
z
" clip-path="url(#p5b56ec448b)" style="fill: #1f77b4; fill-opacity: 0.5; stroke: #000000; stroke-width: 0.411747; stroke-linejoin: miter"/>
   </g>
   <g id="patch_28">
    <path d="M 199.317557 322.707405 
L 204.762012 322.707405 
L 204.762012 219.128491 
L 199.317557 219.128491 
z
" clip-path="url(#p5b56ec448b)" style="fill: #1f77b4; fill-opacity: 0.5; stroke: #000000; stroke-width: 0.411747; stroke-linejoin: miter"/>
   </g>
   <g id="patch_29">
    <path d="M 204.762012 322.707405 
L 210.206467 322.707405 
L 210.206467 250.202165 
L 204.762012 250.202165 
z
" clip-path="url(#p5b56ec448b)" style="fill: #1f77b4; fill-opacity: 0.5; stroke: #000000; stroke-width: 0.411747; stroke-linejoin: miter"/>
   </g>
   <g id="patch_30">
    <path d="M 210.206467 322.707405 
L 215.650922 322.707405 
L 215.650922 260.560057 
L 210.206467 260.560057 
z
" clip-path="url(#p5b56ec448b)" style="fill: #1f77b4; fill-opacity: 0.5; stroke: #000000; stroke-width: 0.411747; stroke-linejoin: miter"/>
   </g>
   <g id="patch_31">
    <path d="M 215.650922 322.707405 
L 221.095377 322.707405 
L 221.095377 281.275839 
L 215.650922 281.275839 
z
" clip-path="url(#p5b56ec448b)" style="fill: #1f77b4; fill-opacity: 0.5; stroke: #000000; stroke-width: 0.411747; stroke-linejoin: miter"/>
   </g>
   <g id="patch_32">
    <path d="M 221.095377 322.707405 
L 226.539832 322.707405 
L 226.539832 239.844274 
L 221.095377 239.844274 
z
" clip-path="url(#p5b56ec448b)" style="fill: #1f77b4; fill-opacity: 0.5; stroke: #000000; stroke-width: 0.411747; stroke-linejoin: miter"/>
   </g>
   <g id="patch_33">
    <path d="M 226.539832 322.707405 
L 231.984287 322.707405 
L 231.984287 281.275839 
L 226.539832 281.275839 
z
" clip-path="url(#p5b56ec448b)" style="fill: #1f77b4; fill-opacity: 0.5; stroke: #000000; stroke-width: 0.411747; stroke-linejoin: miter"/>
   </g>
   <g id="patch_34">
    <path d="M 231.984287 322.707405 
L 237.428742 322.707405 
L 237.428742 270.917948 
L 231.984287 270.917948 
z
" clip-path="url(#p5b56ec448b)" style="fill: #1f77b4; fill-opacity: 0.5; stroke: #000000; stroke-width: 0.411747; stroke-linejoin: miter"/>
   </g>
   <g id="patch_35">
    <path d="M 237.428742 322.707405 
L 242.873197 322.707405 
L 242.873197 270.917948 
L 237.428742 270.917948 
z
" clip-path="url(#p5b56ec448b)" style="fill: #1f77b4; fill-opacity: 0.5; stroke: #000000; stroke-width: 0.411747; stroke-linejoin: miter"/>
   </g>
   <g id="patch_36">
    <path d="M 242.873197 322.707405 
L 248.317652 322.707405 
L 248.317652 239.844274 
L 242.873197 239.844274 
z
" clip-path="url(#p5b56ec448b)" style="fill: #1f77b4; fill-opacity: 0.5; stroke: #000000; stroke-width: 0.411747; stroke-linejoin: miter"/>
   </g>
   <g id="patch_37">
    <path d="M 248.317652 322.707405 
L 253.762107 322.707405 
L 253.762107 281.275839 
L 248.317652 281.275839 
z
" clip-path="url(#p5b56ec448b)" style="fill: #1f77b4; fill-opacity: 0.5; stroke: #000000; stroke-width: 0.411747; stroke-linejoin: miter"/>
   </g>
   <g id="patch_38">
    <path d="M 253.762107 322.707405 
L 259.206562 322.707405 
L 259.206562 250.202165 
L 253.762107 250.202165 
z
" clip-path="url(#p5b56ec448b)" style="fill: #1f77b4; fill-opacity: 0.5; stroke: #000000; stroke-width: 0.411747; stroke-linejoin: miter"/>
   </g>
   <g id="patch_39">
    <path d="M 259.206562 322.707405 
L 264.651017 322.707405 
L 264.651017 281.275839 
L 259.206562 281.275839 
z
" clip-path="url(#p5b56ec448b)" style="fill: #1f77b4; fill-opacity: 0.5; stroke: #000000; stroke-width: 0.411747; stroke-linejoin: miter"/>
   </g>
   <g id="patch_40">
    <path d="M 264.651017 322.707405 
L 270.095472 322.707405 
L 270.095472 270.917948 
L 264.651017 270.917948 
z
" clip-path="url(#p5b56ec448b)" style="fill: #1f77b4; fill-opacity: 0.5; stroke: #000000; stroke-width: 0.411747; stroke-linejoin: miter"/>
   </g>
   <g id="patch_41">
    <path d="M 270.095472 322.707405 
L 275.539927 322.707405 
L 275.539927 291.633731 
L 270.095472 291.633731 
z
" clip-path="url(#p5b56ec448b)" style="fill: #1f77b4; fill-opacity: 0.5; stroke: #000000; stroke-width: 0.411747; stroke-linejoin: miter"/>
   </g>
   <g id="patch_42">
    <path d="M 275.539927 322.707405 
L 280.984382 322.707405 
L 280.984382 260.560057 
L 275.539927 260.560057 
z
" clip-path="url(#p5b56ec448b)" style="fill: #1f77b4; fill-opacity: 0.5; stroke: #000000; stroke-width: 0.411747; stroke-linejoin: miter"/>
   </g>
   <g id="patch_43">
    <path d="M 280.984382 322.707405 
L 286.428837 322.707405 
L 286.428837 322.707405 
L 280.984382 322.707405 
z
" clip-path="url(#p5b56ec448b)" style="fill: #1f77b4; fill-opacity: 0.5; stroke: #000000; stroke-width: 0.411747; stroke-linejoin: miter"/>
   </g>
   <g id="patch_44">
    <path d="M 286.428837 322.707405 
L 291.873292 322.707405 
L 291.873292 322.707405 
L 286.428837 322.707405 
z
" clip-path="url(#p5b56ec448b)" style="fill: #1f77b4; fill-opacity: 0.5; stroke: #000000; stroke-width: 0.411747; stroke-linejoin: miter"/>
   </g>
   <g id="patch_45">
    <path d="M 291.873292 322.707405 
L 297.317748 322.707405 
L 297.317748 322.707405 
L 291.873292 322.707405 
z
" clip-path="url(#p5b56ec448b)" style="fill: #1f77b4; fill-opacity: 0.5; stroke: #000000; stroke-width: 0.411747; stroke-linejoin: miter"/>
   </g>
   <g id="patch_46">
    <path d="M 297.317748 322.707405 
L 302.762203 322.707405 
L 302.762203 322.707405 
L 297.317748 322.707405 
z
" clip-path="url(#p5b56ec448b)" style="fill: #1f77b4; fill-opacity: 0.5; stroke: #000000; stroke-width: 0.411747; stroke-linejoin: miter"/>
   </g>
   <g id="patch_47">
    <path d="M 302.762203 322.707405 
L 308.206658 322.707405 
L 308.206658 301.991622 
L 302.762203 301.991622 
z
" clip-path="url(#p5b56ec448b)" style="fill: #1f77b4; fill-opacity: 0.5; stroke: #000000; stroke-width: 0.411747; stroke-linejoin: miter"/>
   </g>
   <g id="patch_48">
    <path d="M 308.206658 322.707405 
L 313.651113 322.707405 
L 313.651113 312.349514 
L 308.206658 312.349514 
z
" clip-path="url(#p5b56ec448b)" style="fill: #1f77b4; fill-opacity: 0.5; stroke: #000000; stroke-width: 0.411747; stroke-linejoin: miter"/>
   </g>
   <g id="patch_49">
    <path d="M 313.651113 322.707405 
L 319.095568 322.707405 
L 319.095568 301.991622 
L 313.651113 301.991622 
z
" clip-path="url(#p5b56ec448b)" style="fill: #1f77b4; fill-opacity: 0.5; stroke: #000000; stroke-width: 0.411747; stroke-linejoin: miter"/>
   </g>
   <g id="patch_50">
    <path d="M 319.095568 322.707405 
L 324.540023 322.707405 
L 324.540023 291.633731 
L 319.095568 291.633731 
z
" clip-path="url(#p5b56ec448b)" style="fill: #1f77b4; fill-opacity: 0.5; stroke: #000000; stroke-width: 0.411747; stroke-linejoin: miter"/>
   </g>
   <g id="patch_51">
    <path d="M 324.540023 322.707405 
L 329.984478 322.707405 
L 329.984478 291.633731 
L 324.540023 291.633731 
z
" clip-path="url(#p5b56ec448b)" style="fill: #1f77b4; fill-opacity: 0.5; stroke: #000000; stroke-width: 0.411747; stroke-linejoin: miter"/>
   </g>
   <g id="patch_52">
    <path d="M 329.984478 322.707405 
L 335.428933 322.707405 
L 335.428933 312.349514 
L 329.984478 312.349514 
z
" clip-path="url(#p5b56ec448b)" style="fill: #1f77b4; fill-opacity: 0.5; stroke: #000000; stroke-width: 0.411747; stroke-linejoin: miter"/>
   </g>
   <g id="patch_53">
    <path d="M 335.428933 322.707405 
L 340.873388 322.707405 
L 340.873388 291.633731 
L 335.428933 291.633731 
z
" clip-path="url(#p5b56ec448b)" style="fill: #1f77b4; fill-opacity: 0.5; stroke: #000000; stroke-width: 0.411747; stroke-linejoin: miter"/>
   </g>
   <g id="patch_54">
    <path d="M 340.873388 322.707405 
L 346.317843 322.707405 
L 346.317843 312.349514 
L 340.873388 312.349514 
z
" clip-path="url(#p5b56ec448b)" style="fill: #1f77b4; fill-opacity: 0.5; stroke: #000000; stroke-width: 0.411747; stroke-linejoin: miter"/>
   </g>
   <g id="patch_55">
    <path d="M 346.317843 322.707405 
L 351.762298 322.707405 
L 351.762298 322.707405 
L 346.317843 322.707405 
z
" clip-path="url(#p5b56ec448b)" style="fill: #1f77b4; fill-opacity: 0.5; stroke: #000000; stroke-width: 0.411747; stroke-linejoin: miter"/>
   </g>
   <g id="patch_56">
    <path d="M 351.762298 322.707405 
L 357.206753 322.707405 
L 357.206753 301.991622 
L 351.762298 301.991622 
z
" clip-path="url(#p5b56ec448b)" style="fill: #1f77b4; fill-opacity: 0.5; stroke: #000000; stroke-width: 0.411747; stroke-linejoin: miter"/>
   </g>
   <g id="patch_57">
    <path d="M 357.206753 322.707405 
L 362.651208 322.707405 
L 362.651208 301.991622 
L 357.206753 301.991622 
z
" clip-path="url(#p5b56ec448b)" style="fill: #1f77b4; fill-opacity: 0.5; stroke: #000000; stroke-width: 0.411747; stroke-linejoin: miter"/>
   </g>
   <g id="patch_58">
    <path d="M 362.651208 322.707405 
L 368.095663 322.707405 
L 368.095663 312.349514 
L 362.651208 312.349514 
z
" clip-path="url(#p5b56ec448b)" style="fill: #1f77b4; fill-opacity: 0.5; stroke: #000000; stroke-width: 0.411747; stroke-linejoin: miter"/>
   </g>
   <g id="patch_59">
    <path d="M 368.095663 322.707405 
L 373.540118 322.707405 
L 373.540118 312.349514 
L 368.095663 312.349514 
z
" clip-path="url(#p5b56ec448b)" style="fill: #1f77b4; fill-opacity: 0.5; stroke: #000000; stroke-width: 0.411747; stroke-linejoin: miter"/>
   </g>
   <g id="patch_60">
    <path d="M 373.540118 322.707405 
L 378.984573 322.707405 
L 378.984573 281.275839 
L 373.540118 281.275839 
z
" clip-path="url(#p5b56ec448b)" style="fill: #1f77b4; fill-opacity: 0.5; stroke: #000000; stroke-width: 0.411747; stroke-linejoin: miter"/>
   </g>
   <g id="patch_61">
    <path d="M 378.984573 322.707405 
L 384.429028 322.707405 
L 384.429028 322.707405 
L 378.984573 322.707405 
z
" clip-path="url(#p5b56ec448b)" style="fill: #1f77b4; fill-opacity: 0.5; stroke: #000000; stroke-width: 0.411747; stroke-linejoin: miter"/>
   </g>
   <g id="patch_62">
    <path d="M 384.429028 322.707405 
L 389.873483 322.707405 
L 389.873483 291.633731 
L 384.429028 291.633731 
z
" clip-path="url(#p5b56ec448b)" style="fill: #1f77b4; fill-opacity: 0.5; stroke: #000000; stroke-width: 0.411747; stroke-linejoin: miter"/>
   </g>
   <g id="patch_63">
    <path d="M 389.873483 322.707405 
L 395.317938 322.707405 
L 395.317938 270.917948 
L 389.873483 270.917948 
z
" clip-path="url(#p5b56ec448b)" style="fill: #1f77b4; fill-opacity: 0.5; stroke: #000000; stroke-width: 0.411747; stroke-linejoin: miter"/>
   </g>
   <g id="patch_64">
    <path d="M 395.317938 322.707405 
L 400.762393 322.707405 
L 400.762393 312.349514 
L 395.317938 312.349514 
z
" clip-path="url(#p5b56ec448b)" style="fill: #1f77b4; fill-opacity: 0.5; stroke: #000000; stroke-width: 0.411747; stroke-linejoin: miter"/>
   </g>
   <g id="patch_65">
    <path d="M 400.762393 322.707405 
L 406.206848 322.707405 
L 406.206848 322.707405 
L 400.762393 322.707405 
z
" clip-path="url(#p5b56ec448b)" style="fill: #1f77b4; fill-opacity: 0.5; stroke: #000000; stroke-width: 0.411747; stroke-linejoin: miter"/>
   </g>
   <g id="patch_66">
    <path d="M 406.206848 322.707405 
L 411.651303 322.707405 
L 411.651303 322.707405 
L 406.206848 322.707405 
z
" clip-path="url(#p5b56ec448b)" style="fill: #1f77b4; fill-opacity: 0.5; stroke: #000000; stroke-width: 0.411747; stroke-linejoin: miter"/>
   </g>
   <g id="patch_67">
    <path d="M 411.651303 322.707405 
L 417.095758 322.707405 
L 417.095758 312.349514 
L 411.651303 312.349514 
z
" clip-path="url(#p5b56ec448b)" style="fill: #1f77b4; fill-opacity: 0.5; stroke: #000000; stroke-width: 0.411747; stroke-linejoin: miter"/>
   </g>
   <g id="patch_68">
    <path d="M 417.095758 322.707405 
L 422.540213 322.707405 
L 422.540213 322.707405 
L 417.095758 322.707405 
z
" clip-path="url(#p5b56ec448b)" style="fill: #1f77b4; fill-opacity: 0.5; stroke: #000000; stroke-width: 0.411747; stroke-linejoin: miter"/>
   </g>
   <g id="patch_69">
    <path d="M 422.540213 322.707405 
L 427.984668 322.707405 
L 427.984668 312.349514 
L 422.540213 312.349514 
z
" clip-path="url(#p5b56ec448b)" style="fill: #1f77b4; fill-opacity: 0.5; stroke: #000000; stroke-width: 0.411747; stroke-linejoin: miter"/>
   </g>
   <g id="patch_70">
    <path d="M 427.984668 322.707405 
L 433.429123 322.707405 
L 433.429123 322.707405 
L 427.984668 322.707405 
z
" clip-path="url(#p5b56ec448b)" style="fill: #1f77b4; fill-opacity: 0.5; stroke: #000000; stroke-width: 0.411747; stroke-linejoin: miter"/>
   </g>
   <g id="patch_71">
    <path d="M 433.429123 322.707405 
L 438.873578 322.707405 
L 438.873578 301.991622 
L 433.429123 301.991622 
z
" clip-path="url(#p5b56ec448b)" style="fill: #1f77b4; fill-opacity: 0.5; stroke: #000000; stroke-width: 0.411747; stroke-linejoin: miter"/>
   </g>
   <g id="patch_72">
    <path d="M 438.873578 322.707405 
L 444.318033 322.707405 
L 444.318033 322.707405 
L 438.873578 322.707405 
z
" clip-path="url(#p5b56ec448b)" style="fill: #1f77b4; fill-opacity: 0.5; stroke: #000000; stroke-width: 0.411747; stroke-linejoin: miter"/>
   </g>
   <g id="patch_73">
    <path d="M 444.318033 322.707405 
L 449.762488 322.707405 
L 449.762488 322.707405 
L 444.318033 322.707405 
z
" clip-path="url(#p5b56ec448b)" style="fill: #1f77b4; fill-opacity: 0.5; stroke: #000000; stroke-width: 0.411747; stroke-linejoin: miter"/>
   </g>
   <g id="patch_74">
    <path d="M 449.762488 322.707405 
L 455.206943 322.707405 
L 455.206943 312.349514 
L 449.762488 312.349514 
z
" clip-path="url(#p5b56ec448b)" style="fill: #1f77b4; fill-opacity: 0.5; stroke: #000000; stroke-width: 0.411747; stroke-linejoin: miter"/>
   </g>
   <g id="patch_75">
    <path d="M 455.206943 322.707405 
L 460.651399 322.707405 
L 460.651399 312.349514 
L 455.206943 312.349514 
z
" clip-path="url(#p5b56ec448b)" style="fill: #1f77b4; fill-opacity: 0.5; stroke: #000000; stroke-width: 0.411747; stroke-linejoin: miter"/>
   </g>
   <g id="patch_76">
    <path d="M 460.651399 322.707405 
L 466.095854 322.707405 
L 466.095854 322.707405 
L 460.651399 322.707405 
z
" clip-path="url(#p5b56ec448b)" style="fill: #1f77b4; fill-opacity: 0.5; stroke: #000000; stroke-width: 0.411747; stroke-linejoin: miter"/>
   </g>
   <g id="patch_77">
    <path d="M 466.095854 322.707405 
L 471.540309 322.707405 
L 471.540309 322.707405 
L 466.095854 322.707405 
z
" clip-path="url(#p5b56ec448b)" style="fill: #1f77b4; fill-opacity: 0.5; stroke: #000000; stroke-width: 0.411747; stroke-linejoin: miter"/>
   </g>
   <g id="patch_78">
    <path d="M 471.540309 322.707405 
L 476.984764 322.707405 
L 476.984764 322.707405 
L 471.540309 322.707405 
z
" clip-path="url(#p5b56ec448b)" style="fill: #1f77b4; fill-opacity: 0.5; stroke: #000000; stroke-width: 0.411747; stroke-linejoin: miter"/>
   </g>
   <g id="patch_79">
    <path d="M 476.984764 322.707405 
L 482.429219 322.707405 
L 482.429219 322.707405 
L 476.984764 322.707405 
z
" clip-path="url(#p5b56ec448b)" style="fill: #1f77b4; fill-opacity: 0.5; stroke: #000000; stroke-width: 0.411747; stroke-linejoin: miter"/>
   </g>
   <g id="patch_80">
    <path d="M 482.429219 322.707405 
L 487.873674 322.707405 
L 487.873674 322.707405 
L 482.429219 322.707405 
z
" clip-path="url(#p5b56ec448b)" style="fill: #1f77b4; fill-opacity: 0.5; stroke: #000000; stroke-width: 0.411747; stroke-linejoin: miter"/>
   </g>
   <g id="patch_81">
    <path d="M 487.873674 322.707405 
L 493.318129 322.707405 
L 493.318129 322.707405 
L 487.873674 322.707405 
z
" clip-path="url(#p5b56ec448b)" style="fill: #1f77b4; fill-opacity: 0.5; stroke: #000000; stroke-width: 0.411747; stroke-linejoin: miter"/>
   </g>
   <g id="patch_82">
    <path d="M 493.318129 322.707405 
L 498.762584 322.707405 
L 498.762584 312.349514 
L 493.318129 312.349514 
z
" clip-path="url(#p5b56ec448b)" style="fill: #1f77b4; fill-opacity: 0.5; stroke: #000000; stroke-width: 0.411747; stroke-linejoin: miter"/>
   </g>
   <g id="patch_83">
    <path d="M 498.762584 322.707405 
L 504.207039 322.707405 
L 504.207039 322.707405 
L 498.762584 322.707405 
z
" clip-path="url(#p5b56ec448b)" style="fill: #1f77b4; fill-opacity: 0.5; stroke: #000000; stroke-width: 0.411747; stroke-linejoin: miter"/>
   </g>
   <g id="patch_84">
    <path d="M 504.207039 322.707405 
L 509.651494 322.707405 
L 509.651494 322.707405 
L 504.207039 322.707405 
z
" clip-path="url(#p5b56ec448b)" style="fill: #1f77b4; fill-opacity: 0.5; stroke: #000000; stroke-width: 0.411747; stroke-linejoin: miter"/>
   </g>
   <g id="patch_85">
    <path d="M 509.651494 322.707405 
L 515.095949 322.707405 
L 515.095949 312.349514 
L 509.651494 312.349514 
z
" clip-path="url(#p5b56ec448b)" style="fill: #1f77b4; fill-opacity: 0.5; stroke: #000000; stroke-width: 0.411747; stroke-linejoin: miter"/>
   </g>
   <g id="patch_86">
    <path d="M 515.095949 322.707405 
L 520.540404 322.707405 
L 520.540404 312.349514 
L 515.095949 312.349514 
z
" clip-path="url(#p5b56ec448b)" style="fill: #1f77b4; fill-opacity: 0.5; stroke: #000000; stroke-width: 0.411747; stroke-linejoin: miter"/>
   </g>
   <g id="matplotlib.axis_1">
    <g id="xtick_1">
     <g id="line2d_1">
      <defs>
       <path id="m93de8e1901" d="M 0 0 
L 0 3.5 
" style="stroke: #000000; stroke-width: 0.8"/>
      </defs>
      <g>
       <use xlink:href="#m93de8e1901" x="63.206181" y="322.707405" style="stroke: #000000; stroke-width: 0.8"/>
      </g>
     </g>
     <g id="text_1">
      <!-- 0 -->
      <g transform="translate(60.024931 337.305842)scale(0.1 -0.1)">
       <defs>
        <path id="DejaVuSans-30" d="M 2034 4250 
Q 1547 4250 1301 3770 
Q 1056 3291 1056 2328 
Q 1056 1369 1301 889 
Q 1547 409 2034 409 
Q 2525 409 2770 889 
Q 3016 1369 3016 2328 
Q 3016 3291 2770 3770 
Q 2525 4250 2034 4250 
z
M 2034 4750 
Q 2819 4750 3233 4129 
Q 3647 3509 3647 2328 
Q 3647 1150 3233 529 
Q 2819 -91 2034 -91 
Q 1250 -91 836 529 
Q 422 1150 422 2328 
Q 422 3509 836 4129 
Q 1250 4750 2034 4750 
z
" transform="scale(0.015625)"/>
       </defs>
       <use xlink:href="#DejaVuSans-30"/>
      </g>
     </g>
    </g>
    <g id="xtick_2">
     <g id="line2d_2">
      <g>
       <use xlink:href="#m93de8e1901" x="172.095282" y="322.707405" style="stroke: #000000; stroke-width: 0.8"/>
      </g>
     </g>
     <g id="text_2">
      <!-- 2000 -->
      <g transform="translate(159.370282 337.305842)scale(0.1 -0.1)">
       <defs>
        <path id="DejaVuSans-32" d="M 1228 531 
L 3431 531 
L 3431 0 
L 469 0 
L 469 531 
Q 828 903 1448 1529 
Q 2069 2156 2228 2338 
Q 2531 2678 2651 2914 
Q 2772 3150 2772 3378 
Q 2772 3750 2511 3984 
Q 2250 4219 1831 4219 
Q 1534 4219 1204 4116 
Q 875 4013 500 3803 
L 500 4441 
Q 881 4594 1212 4672 
Q 1544 4750 1819 4750 
Q 2544 4750 2975 4387 
Q 3406 4025 3406 3419 
Q 3406 3131 3298 2873 
Q 3191 2616 2906 2266 
Q 2828 2175 2409 1742 
Q 1991 1309 1228 531 
z
" transform="scale(0.015625)"/>
       </defs>
       <use xlink:href="#DejaVuSans-32"/>
       <use xlink:href="#DejaVuSans-30" x="63.623047"/>
       <use xlink:href="#DejaVuSans-30" x="127.246094"/>
       <use xlink:href="#DejaVuSans-30" x="190.869141"/>
      </g>
     </g>
    </g>
    <g id="xtick_3">
     <g id="line2d_3">
      <g>
       <use xlink:href="#m93de8e1901" x="280.984382" y="322.707405" style="stroke: #000000; stroke-width: 0.8"/>
      </g>
     </g>
     <g id="text_3">
      <!-- 4000 -->
      <g transform="translate(268.259382 337.305842)scale(0.1 -0.1)">
       <defs>
        <path id="DejaVuSans-34" d="M 2419 4116 
L 825 1625 
L 2419 1625 
L 2419 4116 
z
M 2253 4666 
L 3047 4666 
L 3047 1625 
L 3713 1625 
L 3713 1100 
L 3047 1100 
L 3047 0 
L 2419 0 
L 2419 1100 
L 313 1100 
L 313 1709 
L 2253 4666 
z
" transform="scale(0.015625)"/>
       </defs>
       <use xlink:href="#DejaVuSans-34"/>
       <use xlink:href="#DejaVuSans-30" x="63.623047"/>
       <use xlink:href="#DejaVuSans-30" x="127.246094"/>
       <use xlink:href="#DejaVuSans-30" x="190.869141"/>
      </g>
     </g>
    </g>
    <g id="xtick_4">
     <g id="line2d_4">
      <g>
       <use xlink:href="#m93de8e1901" x="389.873483" y="322.707405" style="stroke: #000000; stroke-width: 0.8"/>
      </g>
     </g>
     <g id="text_4">
      <!-- 6000 -->
      <g transform="translate(377.148483 337.305842)scale(0.1 -0.1)">
       <defs>
        <path id="DejaVuSans-36" d="M 2113 2584 
Q 1688 2584 1439 2293 
Q 1191 2003 1191 1497 
Q 1191 994 1439 701 
Q 1688 409 2113 409 
Q 2538 409 2786 701 
Q 3034 994 3034 1497 
Q 3034 2003 2786 2293 
Q 2538 2584 2113 2584 
z
M 3366 4563 
L 3366 3988 
Q 3128 4100 2886 4159 
Q 2644 4219 2406 4219 
Q 1781 4219 1451 3797 
Q 1122 3375 1075 2522 
Q 1259 2794 1537 2939 
Q 1816 3084 2150 3084 
Q 2853 3084 3261 2657 
Q 3669 2231 3669 1497 
Q 3669 778 3244 343 
Q 2819 -91 2113 -91 
Q 1303 -91 875 529 
Q 447 1150 447 2328 
Q 447 3434 972 4092 
Q 1497 4750 2381 4750 
Q 2619 4750 2861 4703 
Q 3103 4656 3366 4563 
z
" transform="scale(0.015625)"/>
       </defs>
       <use xlink:href="#DejaVuSans-36"/>
       <use xlink:href="#DejaVuSans-30" x="63.623047"/>
       <use xlink:href="#DejaVuSans-30" x="127.246094"/>
       <use xlink:href="#DejaVuSans-30" x="190.869141"/>
      </g>
     </g>
    </g>
    <g id="xtick_5">
     <g id="line2d_5">
      <g>
       <use xlink:href="#m93de8e1901" x="498.762584" y="322.707405" style="stroke: #000000; stroke-width: 0.8"/>
      </g>
     </g>
     <g id="text_5">
      <!-- 8000 -->
      <g transform="translate(486.037584 337.305842)scale(0.1 -0.1)">
       <defs>
        <path id="DejaVuSans-38" d="M 2034 2216 
Q 1584 2216 1326 1975 
Q 1069 1734 1069 1313 
Q 1069 891 1326 650 
Q 1584 409 2034 409 
Q 2484 409 2743 651 
Q 3003 894 3003 1313 
Q 3003 1734 2745 1975 
Q 2488 2216 2034 2216 
z
M 1403 2484 
Q 997 2584 770 2862 
Q 544 3141 544 3541 
Q 544 4100 942 4425 
Q 1341 4750 2034 4750 
Q 2731 4750 3128 4425 
Q 3525 4100 3525 3541 
Q 3525 3141 3298 2862 
Q 3072 2584 2669 2484 
Q 3125 2378 3379 2068 
Q 3634 1759 3634 1313 
Q 3634 634 3220 271 
Q 2806 -91 2034 -91 
Q 1263 -91 848 271 
Q 434 634 434 1313 
Q 434 1759 690 2068 
Q 947 2378 1403 2484 
z
M 1172 3481 
Q 1172 3119 1398 2916 
Q 1625 2713 2034 2713 
Q 2441 2713 2670 2916 
Q 2900 3119 2900 3481 
Q 2900 3844 2670 4047 
Q 2441 4250 2034 4250 
Q 1625 4250 1398 4047 
Q 1172 3844 1172 3481 
z
" transform="scale(0.015625)"/>
       </defs>
       <use xlink:href="#DejaVuSans-38"/>
       <use xlink:href="#DejaVuSans-30" x="63.623047"/>
       <use xlink:href="#DejaVuSans-30" x="127.246094"/>
       <use xlink:href="#DejaVuSans-30" x="190.869141"/>
      </g>
     </g>
    </g>
   </g>
   <g id="matplotlib.axis_2">
    <g id="ytick_1">
     <g id="line2d_6">
      <defs>
       <path id="m62b21b71e0" d="M 0 0 
L -3.5 0 
" style="stroke: #000000; stroke-width: 0.8"/>
      </defs>
      <g>
       <use xlink:href="#m62b21b71e0" x="40.33947" y="322.707405" style="stroke: #000000; stroke-width: 0.8"/>
      </g>
     </g>
     <g id="text_6">
      <!-- 0 -->
      <g transform="translate(26.97697 326.506624)scale(0.1 -0.1)">
       <use xlink:href="#DejaVuSans-30"/>
      </g>
     </g>
    </g>
    <g id="ytick_2">
     <g id="line2d_7">
      <g>
       <use xlink:href="#m62b21b71e0" x="40.33947" y="270.917948" style="stroke: #000000; stroke-width: 0.8"/>
      </g>
     </g>
     <g id="text_7">
      <!-- 5 -->
      <g transform="translate(26.97697 274.717167)scale(0.1 -0.1)">
       <defs>
        <path id="DejaVuSans-35" d="M 691 4666 
L 3169 4666 
L 3169 4134 
L 1269 4134 
L 1269 2991 
Q 1406 3038 1543 3061 
Q 1681 3084 1819 3084 
Q 2600 3084 3056 2656 
Q 3513 2228 3513 1497 
Q 3513 744 3044 326 
Q 2575 -91 1722 -91 
Q 1428 -91 1123 -41 
Q 819 9 494 109 
L 494 744 
Q 775 591 1075 516 
Q 1375 441 1709 441 
Q 2250 441 2565 725 
Q 2881 1009 2881 1497 
Q 2881 1984 2565 2268 
Q 2250 2553 1709 2553 
Q 1456 2553 1204 2497 
Q 953 2441 691 2322 
L 691 4666 
z
" transform="scale(0.015625)"/>
       </defs>
       <use xlink:href="#DejaVuSans-35"/>
      </g>
     </g>
    </g>
    <g id="ytick_3">
     <g id="line2d_8">
      <g>
       <use xlink:href="#m62b21b71e0" x="40.33947" y="219.128491" style="stroke: #000000; stroke-width: 0.8"/>
      </g>
     </g>
     <g id="text_8">
      <!-- 10 -->
      <g transform="translate(20.61447 222.92771)scale(0.1 -0.1)">
       <defs>
        <path id="DejaVuSans-31" d="M 794 531 
L 1825 531 
L 1825 4091 
L 703 3866 
L 703 4441 
L 1819 4666 
L 2450 4666 
L 2450 531 
L 3481 531 
L 3481 0 
L 794 0 
L 794 531 
z
" transform="scale(0.015625)"/>
       </defs>
       <use xlink:href="#DejaVuSans-31"/>
       <use xlink:href="#DejaVuSans-30" x="63.623047"/>
      </g>
     </g>
    </g>
    <g id="ytick_4">
     <g id="line2d_9">
      <g>
       <use xlink:href="#m62b21b71e0" x="40.33947" y="167.339034" style="stroke: #000000; stroke-width: 0.8"/>
      </g>
     </g>
     <g id="text_9">
      <!-- 15 -->
      <g transform="translate(20.61447 171.138253)scale(0.1 -0.1)">
       <use xlink:href="#DejaVuSans-31"/>
       <use xlink:href="#DejaVuSans-35" x="63.623047"/>
      </g>
     </g>
    </g>
    <g id="ytick_5">
     <g id="line2d_10">
      <g>
       <use xlink:href="#m62b21b71e0" x="40.33947" y="115.549577" style="stroke: #000000; stroke-width: 0.8"/>
      </g>
     </g>
     <g id="text_10">
      <!-- 20 -->
      <g transform="translate(20.61447 119.348796)scale(0.1 -0.1)">
       <use xlink:href="#DejaVuSans-32"/>
       <use xlink:href="#DejaVuSans-30" x="63.623047"/>
      </g>
     </g>
    </g>
    <g id="ytick_6">
     <g id="line2d_11">
      <g>
       <use xlink:href="#m62b21b71e0" x="40.33947" y="63.76012" style="stroke: #000000; stroke-width: 0.8"/>
      </g>
     </g>
     <g id="text_11">
      <!-- 25 -->
      <g transform="translate(20.61447 67.559339)scale(0.1 -0.1)">
       <use xlink:href="#DejaVuSans-32"/>
       <use xlink:href="#DejaVuSans-35" x="63.623047"/>
      </g>
     </g>
    </g>
   </g>
   <g id="line2d_12">
    <path d="M 64.131738 293.61598 
L 66.405099 289.840186 
L 68.67846 285.723762 
L 70.951821 281.260829 
L 73.225182 276.450458 
L 75.498543 271.297443 
L 77.771904 265.812967 
L 82.318626 253.929107 
L 86.865348 241.029545 
L 93.685431 220.543976 
L 100.505513 200.0332 
L 105.052235 187.139559 
L 107.325596 181.092232 
L 109.598957 175.373076 
L 111.872318 170.019789 
L 114.145679 165.062156 
L 116.41904 160.521623 
L 118.692401 156.411213 
L 120.965762 152.735773 
L 123.239123 149.49254 
L 125.512483 146.671976 
L 127.785844 144.258837 
L 130.059205 142.233403 
L 132.332566 140.572833 
L 134.605927 139.252551 
L 136.879288 138.247627 
L 139.152649 137.534074 
L 141.42601 137.090024 
L 143.699371 136.896717 
L 145.972732 136.939284 
L 148.246093 137.207277 
L 150.519454 137.694932 
L 152.792815 138.401162 
L 155.066176 139.32927 
L 157.339536 140.4864 
L 159.612897 141.882757 
L 161.886258 143.530623 
L 164.159619 145.443217 
L 166.43298 147.633463 
L 168.706341 150.112712 
L 170.979702 152.889504 
L 173.253063 155.96841 
L 175.526424 159.349043 
L 177.799785 163.02527 
L 180.073146 166.984694 
L 182.346507 171.208409 
L 186.893228 180.341271 
L 191.43995 190.152506 
L 202.806755 215.336156 
L 207.353477 224.721044 
L 211.900199 233.263558 
L 214.17356 237.158437 
L 216.446921 240.783309 
L 218.720281 244.132329 
L 220.993642 247.206249 
L 223.267003 250.012027 
L 225.540364 252.562288 
L 227.813725 254.874634 
L 230.087086 256.970857 
L 232.360447 258.876078 
L 236.907169 262.225169 
L 241.453891 265.154732 
L 255.094056 273.541231 
L 259.640778 276.684904 
L 264.1875 280.086244 
L 271.007583 285.544804 
L 277.827666 291.066017 
L 282.374387 294.521248 
L 286.921109 297.614885 
L 289.19447 298.985914 
L 291.467831 300.223854 
L 293.741192 301.320997 
L 296.014553 302.273293 
L 298.287914 303.080403 
L 300.561275 303.7456 
L 302.834636 304.275511 
L 305.107997 304.679734 
L 309.654718 305.161235 
L 314.20144 305.305265 
L 321.021523 305.158443 
L 334.661689 304.713852 
L 346.028493 304.688839 
L 359.668659 304.659669 
L 371.035463 304.625041 
L 375.582185 304.761377 
L 380.128907 305.065948 
L 384.675629 305.578265 
L 389.222351 306.31331 
L 393.769073 307.256764 
L 400.589156 308.96412 
L 414.229321 312.590234 
L 421.049404 314.101465 
L 427.869487 315.29469 
L 434.689569 316.211699 
L 443.783013 317.170325 
L 459.69654 318.587225 
L 468.789983 319.244738 
L 477.883427 319.664437 
L 486.976871 319.810753 
L 511.983841 319.899494 
L 516.530563 320.057956 
L 516.530563 320.057956 
" clip-path="url(#p5b56ec448b)" style="fill: none; stroke: #1f77b4; stroke-width: 1.5; stroke-linecap: square"/>
   </g>
   <g id="line2d_13">
    <path d="M 163.73151 322.707405 
L 163.73151 39.93697 
" clip-path="url(#p5b56ec448b)" style="fill: none; stroke: #d62728; stroke-width: 2; stroke-linecap: square"/>
   </g>
   <g id="line2d_14">
    <path d="M 518.002387 322.707405 
L 518.002387 39.93697 
" clip-path="url(#p5b56ec448b)" style="fill: none; stroke: #bcbd22; stroke-width: 2; stroke-linecap: square"/>
   </g>
   <g id="patch_87">
    <path d="M 40.33947 322.707405 
L 40.33947 39.93697 
" style="fill: none; stroke: #000000; stroke-width: 0.8; stroke-linejoin: miter; stroke-linecap: square"/>
   </g>
   <g id="patch_88">
    <path d="M 543.407115 322.707405 
L 543.407115 39.93697 
" style="fill: none; stroke: #000000; stroke-width: 0.8; stroke-linejoin: miter; stroke-linecap: square"/>
   </g>
   <g id="patch_89">
    <path d="M 40.33947 322.707405 
L 543.407115 322.707405 
" style="fill: none; stroke: #000000; stroke-width: 0.8; stroke-linejoin: miter; stroke-linecap: square"/>
   </g>
   <g id="patch_90">
    <path d="M 40.33947 39.93697 
L 543.407115 39.93697 
" style="fill: none; stroke: #000000; stroke-width: 0.8; stroke-linejoin: miter; stroke-linecap: square"/>
   </g>
   <g id="text_12">
    <!-- Considerando a média -->
    <g transform="translate(224.31048 29.93697)scale(0.12 -0.12)">
     <defs>
      <path id="DejaVuSans-43" d="M 4122 4306 
L 4122 3641 
Q 3803 3938 3442 4084 
Q 3081 4231 2675 4231 
Q 1875 4231 1450 3742 
Q 1025 3253 1025 2328 
Q 1025 1406 1450 917 
Q 1875 428 2675 428 
Q 3081 428 3442 575 
Q 3803 722 4122 1019 
L 4122 359 
Q 3791 134 3420 21 
Q 3050 -91 2638 -91 
Q 1578 -91 968 557 
Q 359 1206 359 2328 
Q 359 3453 968 4101 
Q 1578 4750 2638 4750 
Q 3056 4750 3426 4639 
Q 3797 4528 4122 4306 
z
" transform="scale(0.015625)"/>
      <path id="DejaVuSans-6f" d="M 1959 3097 
Q 1497 3097 1228 2736 
Q 959 2375 959 1747 
Q 959 1119 1226 758 
Q 1494 397 1959 397 
Q 2419 397 2687 759 
Q 2956 1122 2956 1747 
Q 2956 2369 2687 2733 
Q 2419 3097 1959 3097 
z
M 1959 3584 
Q 2709 3584 3137 3096 
Q 3566 2609 3566 1747 
Q 3566 888 3137 398 
Q 2709 -91 1959 -91 
Q 1206 -91 779 398 
Q 353 888 353 1747 
Q 353 2609 779 3096 
Q 1206 3584 1959 3584 
z
" transform="scale(0.015625)"/>
      <path id="DejaVuSans-6e" d="M 3513 2113 
L 3513 0 
L 2938 0 
L 2938 2094 
Q 2938 2591 2744 2837 
Q 2550 3084 2163 3084 
Q 1697 3084 1428 2787 
Q 1159 2491 1159 1978 
L 1159 0 
L 581 0 
L 581 3500 
L 1159 3500 
L 1159 2956 
Q 1366 3272 1645 3428 
Q 1925 3584 2291 3584 
Q 2894 3584 3203 3211 
Q 3513 2838 3513 2113 
z
" transform="scale(0.015625)"/>
      <path id="DejaVuSans-73" d="M 2834 3397 
L 2834 2853 
Q 2591 2978 2328 3040 
Q 2066 3103 1784 3103 
Q 1356 3103 1142 2972 
Q 928 2841 928 2578 
Q 928 2378 1081 2264 
Q 1234 2150 1697 2047 
L 1894 2003 
Q 2506 1872 2764 1633 
Q 3022 1394 3022 966 
Q 3022 478 2636 193 
Q 2250 -91 1575 -91 
Q 1294 -91 989 -36 
Q 684 19 347 128 
L 347 722 
Q 666 556 975 473 
Q 1284 391 1588 391 
Q 1994 391 2212 530 
Q 2431 669 2431 922 
Q 2431 1156 2273 1281 
Q 2116 1406 1581 1522 
L 1381 1569 
Q 847 1681 609 1914 
Q 372 2147 372 2553 
Q 372 3047 722 3315 
Q 1072 3584 1716 3584 
Q 2034 3584 2315 3537 
Q 2597 3491 2834 3397 
z
" transform="scale(0.015625)"/>
      <path id="DejaVuSans-69" d="M 603 3500 
L 1178 3500 
L 1178 0 
L 603 0 
L 603 3500 
z
M 603 4863 
L 1178 4863 
L 1178 4134 
L 603 4134 
L 603 4863 
z
" transform="scale(0.015625)"/>
      <path id="DejaVuSans-64" d="M 2906 2969 
L 2906 4863 
L 3481 4863 
L 3481 0 
L 2906 0 
L 2906 525 
Q 2725 213 2448 61 
Q 2172 -91 1784 -91 
Q 1150 -91 751 415 
Q 353 922 353 1747 
Q 353 2572 751 3078 
Q 1150 3584 1784 3584 
Q 2172 3584 2448 3432 
Q 2725 3281 2906 2969 
z
M 947 1747 
Q 947 1113 1208 752 
Q 1469 391 1925 391 
Q 2381 391 2643 752 
Q 2906 1113 2906 1747 
Q 2906 2381 2643 2742 
Q 2381 3103 1925 3103 
Q 1469 3103 1208 2742 
Q 947 2381 947 1747 
z
" transform="scale(0.015625)"/>
      <path id="DejaVuSans-65" d="M 3597 1894 
L 3597 1613 
L 953 1613 
Q 991 1019 1311 708 
Q 1631 397 2203 397 
Q 2534 397 2845 478 
Q 3156 559 3463 722 
L 3463 178 
Q 3153 47 2828 -22 
Q 2503 -91 2169 -91 
Q 1331 -91 842 396 
Q 353 884 353 1716 
Q 353 2575 817 3079 
Q 1281 3584 2069 3584 
Q 2775 3584 3186 3129 
Q 3597 2675 3597 1894 
z
M 3022 2063 
Q 3016 2534 2758 2815 
Q 2500 3097 2075 3097 
Q 1594 3097 1305 2825 
Q 1016 2553 972 2059 
L 3022 2063 
z
" transform="scale(0.015625)"/>
      <path id="DejaVuSans-72" d="M 2631 2963 
Q 2534 3019 2420 3045 
Q 2306 3072 2169 3072 
Q 1681 3072 1420 2755 
Q 1159 2438 1159 1844 
L 1159 0 
L 581 0 
L 581 3500 
L 1159 3500 
L 1159 2956 
Q 1341 3275 1631 3429 
Q 1922 3584 2338 3584 
Q 2397 3584 2469 3576 
Q 2541 3569 2628 3553 
L 2631 2963 
z
" transform="scale(0.015625)"/>
      <path id="DejaVuSans-61" d="M 2194 1759 
Q 1497 1759 1228 1600 
Q 959 1441 959 1056 
Q 959 750 1161 570 
Q 1363 391 1709 391 
Q 2188 391 2477 730 
Q 2766 1069 2766 1631 
L 2766 1759 
L 2194 1759 
z
M 3341 1997 
L 3341 0 
L 2766 0 
L 2766 531 
Q 2569 213 2275 61 
Q 1981 -91 1556 -91 
Q 1019 -91 701 211 
Q 384 513 384 1019 
Q 384 1609 779 1909 
Q 1175 2209 1959 2209 
L 2766 2209 
L 2766 2266 
Q 2766 2663 2505 2880 
Q 2244 3097 1772 3097 
Q 1472 3097 1187 3025 
Q 903 2953 641 2809 
L 641 3341 
Q 956 3463 1253 3523 
Q 1550 3584 1831 3584 
Q 2591 3584 2966 3190 
Q 3341 2797 3341 1997 
z
" transform="scale(0.015625)"/>
      <path id="DejaVuSans-20" transform="scale(0.015625)"/>
      <path id="DejaVuSans-6d" d="M 3328 2828 
Q 3544 3216 3844 3400 
Q 4144 3584 4550 3584 
Q 5097 3584 5394 3201 
Q 5691 2819 5691 2113 
L 5691 0 
L 5113 0 
L 5113 2094 
Q 5113 2597 4934 2840 
Q 4756 3084 4391 3084 
Q 3944 3084 3684 2787 
Q 3425 2491 3425 1978 
L 3425 0 
L 2847 0 
L 2847 2094 
Q 2847 2600 2669 2842 
Q 2491 3084 2119 3084 
Q 1678 3084 1418 2786 
Q 1159 2488 1159 1978 
L 1159 0 
L 581 0 
L 581 3500 
L 1159 3500 
L 1159 2956 
Q 1356 3278 1631 3431 
Q 1906 3584 2284 3584 
Q 2666 3584 2933 3390 
Q 3200 3197 3328 2828 
z
" transform="scale(0.015625)"/>
      <path id="DejaVuSans-e9" d="M 3597 1894 
L 3597 1613 
L 953 1613 
Q 991 1019 1311 708 
Q 1631 397 2203 397 
Q 2534 397 2845 478 
Q 3156 559 3463 722 
L 3463 178 
Q 3153 47 2828 -22 
Q 2503 -91 2169 -91 
Q 1331 -91 842 396 
Q 353 884 353 1716 
Q 353 2575 817 3079 
Q 1281 3584 2069 3584 
Q 2775 3584 3186 3129 
Q 3597 2675 3597 1894 
z
M 3022 2063 
Q 3016 2534 2758 2815 
Q 2500 3097 2075 3097 
Q 1594 3097 1305 2825 
Q 1016 2553 972 2059 
L 3022 2063 
z
M 2469 5119 
L 3091 5119 
L 2072 3944 
L 1594 3944 
L 2469 5119 
z
" transform="scale(0.015625)"/>
     </defs>
     <use xlink:href="#DejaVuSans-43"/>
     <use xlink:href="#DejaVuSans-6f" x="69.824219"/>
     <use xlink:href="#DejaVuSans-6e" x="131.005859"/>
     <use xlink:href="#DejaVuSans-73" x="194.384766"/>
     <use xlink:href="#DejaVuSans-69" x="246.484375"/>
     <use xlink:href="#DejaVuSans-64" x="274.267578"/>
     <use xlink:href="#DejaVuSans-65" x="337.744141"/>
     <use xlink:href="#DejaVuSans-72" x="399.267578"/>
     <use xlink:href="#DejaVuSans-61" x="440.380859"/>
     <use xlink:href="#DejaVuSans-6e" x="501.660156"/>
     <use xlink:href="#DejaVuSans-64" x="565.039062"/>
     <use xlink:href="#DejaVuSans-6f" x="628.515625"/>
     <use xlink:href="#DejaVuSans-20" x="689.697266"/>
     <use xlink:href="#DejaVuSans-61" x="721.484375"/>
     <use xlink:href="#DejaVuSans-20" x="782.763672"/>
     <use xlink:href="#DejaVuSans-6d" x="814.550781"/>
     <use xlink:href="#DejaVuSans-e9" x="911.962891"/>
     <use xlink:href="#DejaVuSans-64" x="973.486328"/>
     <use xlink:href="#DejaVuSans-69" x="1036.962891"/>
     <use xlink:href="#DejaVuSans-61" x="1064.746094"/>
    </g>
   </g>
   <g id="legend_1">
    <g id="patch_91">
     <path d="M 228.04048 91.971345 
L 355.706105 91.971345 
Q 357.706105 91.971345 357.706105 89.971345 
L 357.706105 46.93697 
Q 357.706105 44.93697 355.706105 44.93697 
L 228.04048 44.93697 
Q 226.04048 44.93697 226.04048 46.93697 
L 226.04048 89.971345 
Q 226.04048 91.971345 228.04048 91.971345 
z
" style="fill: #ffffff; opacity: 0.8; stroke: #cccccc; stroke-linejoin: miter"/>
    </g>
    <g id="line2d_15">
     <path d="M 230.04048 53.035408 
L 240.04048 53.035408 
L 250.04048 53.035408 
" style="fill: none; stroke: #1f77b4; stroke-width: 1.5; stroke-linecap: square"/>
    </g>
    <g id="text_13">
     <!-- Linha de tendência -->
     <g transform="translate(258.04048 56.535408)scale(0.1 -0.1)">
      <defs>
       <path id="DejaVuSans-4c" d="M 628 4666 
L 1259 4666 
L 1259 531 
L 3531 531 
L 3531 0 
L 628 0 
L 628 4666 
z
" transform="scale(0.015625)"/>
       <path id="DejaVuSans-68" d="M 3513 2113 
L 3513 0 
L 2938 0 
L 2938 2094 
Q 2938 2591 2744 2837 
Q 2550 3084 2163 3084 
Q 1697 3084 1428 2787 
Q 1159 2491 1159 1978 
L 1159 0 
L 581 0 
L 581 4863 
L 1159 4863 
L 1159 2956 
Q 1366 3272 1645 3428 
Q 1925 3584 2291 3584 
Q 2894 3584 3203 3211 
Q 3513 2838 3513 2113 
z
" transform="scale(0.015625)"/>
       <path id="DejaVuSans-74" d="M 1172 4494 
L 1172 3500 
L 2356 3500 
L 2356 3053 
L 1172 3053 
L 1172 1153 
Q 1172 725 1289 603 
Q 1406 481 1766 481 
L 2356 481 
L 2356 0 
L 1766 0 
Q 1100 0 847 248 
Q 594 497 594 1153 
L 594 3053 
L 172 3053 
L 172 3500 
L 594 3500 
L 594 4494 
L 1172 4494 
z
" transform="scale(0.015625)"/>
       <path id="DejaVuSans-ea" d="M 3597 1894 
L 3597 1613 
L 953 1613 
Q 991 1019 1311 708 
Q 1631 397 2203 397 
Q 2534 397 2845 478 
Q 3156 559 3463 722 
L 3463 178 
Q 3153 47 2828 -22 
Q 2503 -91 2169 -91 
Q 1331 -91 842 396 
Q 353 884 353 1716 
Q 353 2575 817 3079 
Q 1281 3584 2069 3584 
Q 2775 3584 3186 3129 
Q 3597 2675 3597 1894 
z
M 3022 2063 
Q 3016 2534 2758 2815 
Q 2500 3097 2075 3097 
Q 1594 3097 1305 2825 
Q 1016 2553 972 2059 
L 3022 2063 
z
M 1803 5119 
L 2266 5119 
L 3031 3944 
L 2597 3944 
L 2034 4709 
L 1472 3944 
L 1038 3944 
L 1803 5119 
z
" transform="scale(0.015625)"/>
       <path id="DejaVuSans-63" d="M 3122 3366 
L 3122 2828 
Q 2878 2963 2633 3030 
Q 2388 3097 2138 3097 
Q 1578 3097 1268 2742 
Q 959 2388 959 1747 
Q 959 1106 1268 751 
Q 1578 397 2138 397 
Q 2388 397 2633 464 
Q 2878 531 3122 666 
L 3122 134 
Q 2881 22 2623 -34 
Q 2366 -91 2075 -91 
Q 1284 -91 818 406 
Q 353 903 353 1747 
Q 353 2603 823 3093 
Q 1294 3584 2113 3584 
Q 2378 3584 2631 3529 
Q 2884 3475 3122 3366 
z
" transform="scale(0.015625)"/>
      </defs>
      <use xlink:href="#DejaVuSans-4c"/>
      <use xlink:href="#DejaVuSans-69" x="55.712891"/>
      <use xlink:href="#DejaVuSans-6e" x="83.496094"/>
      <use xlink:href="#DejaVuSans-68" x="146.875"/>
      <use xlink:href="#DejaVuSans-61" x="210.253906"/>
      <use xlink:href="#DejaVuSans-20" x="271.533203"/>
      <use xlink:href="#DejaVuSans-64" x="303.320312"/>
      <use xlink:href="#DejaVuSans-65" x="366.796875"/>
      <use xlink:href="#DejaVuSans-20" x="428.320312"/>
      <use xlink:href="#DejaVuSans-74" x="460.107422"/>
      <use xlink:href="#DejaVuSans-65" x="499.316406"/>
      <use xlink:href="#DejaVuSans-6e" x="560.839844"/>
      <use xlink:href="#DejaVuSans-64" x="624.21875"/>
      <use xlink:href="#DejaVuSans-ea" x="687.695312"/>
      <use xlink:href="#DejaVuSans-6e" x="749.21875"/>
      <use xlink:href="#DejaVuSans-63" x="812.597656"/>
      <use xlink:href="#DejaVuSans-69" x="867.578125"/>
      <use xlink:href="#DejaVuSans-61" x="895.361328"/>
     </g>
    </g>
    <g id="line2d_16">
     <path d="M 230.04048 67.713533 
L 240.04048 67.713533 
L 250.04048 67.713533 
" style="fill: none; stroke: #d62728; stroke-width: 2; stroke-linecap: square"/>
    </g>
    <g id="text_14">
     <!-- Mediana (1846.4) -->
     <g transform="translate(258.04048 71.213533)scale(0.1 -0.1)">
      <defs>
       <path id="DejaVuSans-4d" d="M 628 4666 
L 1569 4666 
L 2759 1491 
L 3956 4666 
L 4897 4666 
L 4897 0 
L 4281 0 
L 4281 4097 
L 3078 897 
L 2444 897 
L 1241 4097 
L 1241 0 
L 628 0 
L 628 4666 
z
" transform="scale(0.015625)"/>
       <path id="DejaVuSans-28" d="M 1984 4856 
Q 1566 4138 1362 3434 
Q 1159 2731 1159 2009 
Q 1159 1288 1364 580 
Q 1569 -128 1984 -844 
L 1484 -844 
Q 1016 -109 783 600 
Q 550 1309 550 2009 
Q 550 2706 781 3412 
Q 1013 4119 1484 4856 
L 1984 4856 
z
" transform="scale(0.015625)"/>
       <path id="DejaVuSans-2e" d="M 684 794 
L 1344 794 
L 1344 0 
L 684 0 
L 684 794 
z
" transform="scale(0.015625)"/>
       <path id="DejaVuSans-29" d="M 513 4856 
L 1013 4856 
Q 1481 4119 1714 3412 
Q 1947 2706 1947 2009 
Q 1947 1309 1714 600 
Q 1481 -109 1013 -844 
L 513 -844 
Q 928 -128 1133 580 
Q 1338 1288 1338 2009 
Q 1338 2731 1133 3434 
Q 928 4138 513 4856 
z
" transform="scale(0.015625)"/>
      </defs>
      <use xlink:href="#DejaVuSans-4d"/>
      <use xlink:href="#DejaVuSans-65" x="86.279297"/>
      <use xlink:href="#DejaVuSans-64" x="147.802734"/>
      <use xlink:href="#DejaVuSans-69" x="211.279297"/>
      <use xlink:href="#DejaVuSans-61" x="239.0625"/>
      <use xlink:href="#DejaVuSans-6e" x="300.341797"/>
      <use xlink:href="#DejaVuSans-61" x="363.720703"/>
      <use xlink:href="#DejaVuSans-20" x="425"/>
      <use xlink:href="#DejaVuSans-28" x="456.787109"/>
      <use xlink:href="#DejaVuSans-31" x="495.800781"/>
      <use xlink:href="#DejaVuSans-38" x="559.423828"/>
      <use xlink:href="#DejaVuSans-34" x="623.046875"/>
      <use xlink:href="#DejaVuSans-36" x="686.669922"/>
      <use xlink:href="#DejaVuSans-2e" x="750.292969"/>
      <use xlink:href="#DejaVuSans-34" x="782.080078"/>
      <use xlink:href="#DejaVuSans-29" x="845.703125"/>
     </g>
    </g>
    <g id="line2d_17">
     <path d="M 230.04048 82.391658 
L 240.04048 82.391658 
L 250.04048 82.391658 
" style="fill: none; stroke: #bcbd22; stroke-width: 2; stroke-linecap: square"/>
    </g>
    <g id="text_15">
     <!-- Média (8353.4) -->
     <g transform="translate(258.04048 85.891658)scale(0.1 -0.1)">
      <defs>
       <path id="DejaVuSans-33" d="M 2597 2516 
Q 3050 2419 3304 2112 
Q 3559 1806 3559 1356 
Q 3559 666 3084 287 
Q 2609 -91 1734 -91 
Q 1441 -91 1130 -33 
Q 819 25 488 141 
L 488 750 
Q 750 597 1062 519 
Q 1375 441 1716 441 
Q 2309 441 2620 675 
Q 2931 909 2931 1356 
Q 2931 1769 2642 2001 
Q 2353 2234 1838 2234 
L 1294 2234 
L 1294 2753 
L 1863 2753 
Q 2328 2753 2575 2939 
Q 2822 3125 2822 3475 
Q 2822 3834 2567 4026 
Q 2313 4219 1838 4219 
Q 1578 4219 1281 4162 
Q 984 4106 628 3988 
L 628 4550 
Q 988 4650 1302 4700 
Q 1616 4750 1894 4750 
Q 2613 4750 3031 4423 
Q 3450 4097 3450 3541 
Q 3450 3153 3228 2886 
Q 3006 2619 2597 2516 
z
" transform="scale(0.015625)"/>
      </defs>
      <use xlink:href="#DejaVuSans-4d"/>
      <use xlink:href="#DejaVuSans-e9" x="86.279297"/>
      <use xlink:href="#DejaVuSans-64" x="147.802734"/>
      <use xlink:href="#DejaVuSans-69" x="211.279297"/>
      <use xlink:href="#DejaVuSans-61" x="239.0625"/>
      <use xlink:href="#DejaVuSans-20" x="300.341797"/>
      <use xlink:href="#DejaVuSans-28" x="332.128906"/>
      <use xlink:href="#DejaVuSans-38" x="371.142578"/>
      <use xlink:href="#DejaVuSans-33" x="434.765625"/>
      <use xlink:href="#DejaVuSans-35" x="498.388672"/>
      <use xlink:href="#DejaVuSans-33" x="562.011719"/>
      <use xlink:href="#DejaVuSans-2e" x="625.634766"/>
      <use xlink:href="#DejaVuSans-34" x="657.421875"/>
      <use xlink:href="#DejaVuSans-29" x="721.044922"/>
     </g>
    </g>
   </g>
  </g>
  <g id="axes_2">
   <g id="patch_92">
    <path d="M 573.932115 322.707405 
L 1076.99976 322.707405 
L 1076.99976 39.93697 
L 573.932115 39.93697 
z
" style="fill: #ffffff"/>
   </g>
   <g id="patch_93">
    <path d="M 596.798826 322.707405 
L 605.766164 322.707405 
L 605.766164 270.917948 
L 596.798826 270.917948 
z
" clip-path="url(#p965c53ed58)" style="fill: #1f77b4; fill-opacity: 0.5; stroke: #000000; stroke-width: 0.678172; stroke-linejoin: miter"/>
   </g>
   <g id="patch_94">
    <path d="M 605.766164 322.707405 
L 614.733502 322.707405 
L 614.733502 312.349514 
L 605.766164 312.349514 
z
" clip-path="url(#p965c53ed58)" style="fill: #1f77b4; fill-opacity: 0.5; stroke: #000000; stroke-width: 0.678172; stroke-linejoin: miter"/>
   </g>
   <g id="patch_95">
    <path d="M 614.733502 322.707405 
L 623.700839 322.707405 
L 623.700839 301.991622 
L 614.733502 301.991622 
z
" clip-path="url(#p965c53ed58)" style="fill: #1f77b4; fill-opacity: 0.5; stroke: #000000; stroke-width: 0.678172; stroke-linejoin: miter"/>
   </g>
   <g id="patch_96">
    <path d="M 623.700839 322.707405 
L 632.668177 322.707405 
L 632.668177 281.275839 
L 623.700839 281.275839 
z
" clip-path="url(#p965c53ed58)" style="fill: #1f77b4; fill-opacity: 0.5; stroke: #000000; stroke-width: 0.678172; stroke-linejoin: miter"/>
   </g>
   <g id="patch_97">
    <path d="M 632.668177 322.707405 
L 641.635515 322.707405 
L 641.635515 312.349514 
L 632.668177 312.349514 
z
" clip-path="url(#p965c53ed58)" style="fill: #1f77b4; fill-opacity: 0.5; stroke: #000000; stroke-width: 0.678172; stroke-linejoin: miter"/>
   </g>
   <g id="patch_98">
    <path d="M 641.635515 322.707405 
L 650.602852 322.707405 
L 650.602852 260.560057 
L 641.635515 260.560057 
z
" clip-path="url(#p965c53ed58)" style="fill: #1f77b4; fill-opacity: 0.5; stroke: #000000; stroke-width: 0.678172; stroke-linejoin: miter"/>
   </g>
   <g id="patch_99">
    <path d="M 650.602852 322.707405 
L 659.57019 322.707405 
L 659.57019 115.549577 
L 650.602852 115.549577 
z
" clip-path="url(#p965c53ed58)" style="fill: #1f77b4; fill-opacity: 0.5; stroke: #000000; stroke-width: 0.678172; stroke-linejoin: miter"/>
   </g>
   <g id="patch_100">
    <path d="M 659.57019 322.707405 
L 668.537528 322.707405 
L 668.537528 198.412708 
L 659.57019 198.412708 
z
" clip-path="url(#p965c53ed58)" style="fill: #1f77b4; fill-opacity: 0.5; stroke: #000000; stroke-width: 0.678172; stroke-linejoin: miter"/>
   </g>
   <g id="patch_101">
    <path d="M 668.537528 322.707405 
L 677.504865 322.707405 
L 677.504865 115.549577 
L 668.537528 115.549577 
z
" clip-path="url(#p965c53ed58)" style="fill: #1f77b4; fill-opacity: 0.5; stroke: #000000; stroke-width: 0.678172; stroke-linejoin: miter"/>
   </g>
   <g id="patch_102">
    <path d="M 677.504865 322.707405 
L 686.472203 322.707405 
L 686.472203 74.118012 
L 677.504865 74.118012 
z
" clip-path="url(#p965c53ed58)" style="fill: #1f77b4; fill-opacity: 0.5; stroke: #000000; stroke-width: 0.678172; stroke-linejoin: miter"/>
   </g>
   <g id="patch_103">
    <path d="M 686.472203 322.707405 
L 695.439541 322.707405 
L 695.439541 188.054817 
L 686.472203 188.054817 
z
" clip-path="url(#p965c53ed58)" style="fill: #1f77b4; fill-opacity: 0.5; stroke: #000000; stroke-width: 0.678172; stroke-linejoin: miter"/>
   </g>
   <g id="patch_104">
    <path d="M 695.439541 322.707405 
L 704.406879 322.707405 
L 704.406879 94.833794 
L 695.439541 94.833794 
z
" clip-path="url(#p965c53ed58)" style="fill: #1f77b4; fill-opacity: 0.5; stroke: #000000; stroke-width: 0.678172; stroke-linejoin: miter"/>
   </g>
   <g id="patch_105">
    <path d="M 704.406879 322.707405 
L 713.374216 322.707405 
L 713.374216 146.623251 
L 704.406879 146.623251 
z
" clip-path="url(#p965c53ed58)" style="fill: #1f77b4; fill-opacity: 0.5; stroke: #000000; stroke-width: 0.678172; stroke-linejoin: miter"/>
   </g>
   <g id="patch_106">
    <path d="M 713.374216 322.707405 
L 722.341554 322.707405 
L 722.341554 53.402229 
L 713.374216 53.402229 
z
" clip-path="url(#p965c53ed58)" style="fill: #1f77b4; fill-opacity: 0.5; stroke: #000000; stroke-width: 0.678172; stroke-linejoin: miter"/>
   </g>
   <g id="patch_107">
    <path d="M 722.341554 322.707405 
L 731.308892 322.707405 
L 731.308892 198.412708 
L 722.341554 198.412708 
z
" clip-path="url(#p965c53ed58)" style="fill: #1f77b4; fill-opacity: 0.5; stroke: #000000; stroke-width: 0.678172; stroke-linejoin: miter"/>
   </g>
   <g id="patch_108">
    <path d="M 731.308892 322.707405 
L 740.276229 322.707405 
L 740.276229 156.981143 
L 731.308892 156.981143 
z
" clip-path="url(#p965c53ed58)" style="fill: #1f77b4; fill-opacity: 0.5; stroke: #000000; stroke-width: 0.678172; stroke-linejoin: miter"/>
   </g>
   <g id="patch_109">
    <path d="M 740.276229 322.707405 
L 749.243567 322.707405 
L 749.243567 125.907469 
L 740.276229 125.907469 
z
" clip-path="url(#p965c53ed58)" style="fill: #1f77b4; fill-opacity: 0.5; stroke: #000000; stroke-width: 0.678172; stroke-linejoin: miter"/>
   </g>
   <g id="patch_110">
    <path d="M 749.243567 322.707405 
L 758.210905 322.707405 
L 758.210905 84.475903 
L 749.243567 84.475903 
z
" clip-path="url(#p965c53ed58)" style="fill: #1f77b4; fill-opacity: 0.5; stroke: #000000; stroke-width: 0.678172; stroke-linejoin: miter"/>
   </g>
   <g id="patch_111">
    <path d="M 758.210905 322.707405 
L 767.178242 322.707405 
L 767.178242 198.412708 
L 758.210905 198.412708 
z
" clip-path="url(#p965c53ed58)" style="fill: #1f77b4; fill-opacity: 0.5; stroke: #000000; stroke-width: 0.678172; stroke-linejoin: miter"/>
   </g>
   <g id="patch_112">
    <path d="M 767.178242 322.707405 
L 776.14558 322.707405 
L 776.14558 136.26536 
L 767.178242 136.26536 
z
" clip-path="url(#p965c53ed58)" style="fill: #1f77b4; fill-opacity: 0.5; stroke: #000000; stroke-width: 0.678172; stroke-linejoin: miter"/>
   </g>
   <g id="patch_113">
    <path d="M 776.14558 322.707405 
L 785.112918 322.707405 
L 785.112918 74.118012 
L 776.14558 74.118012 
z
" clip-path="url(#p965c53ed58)" style="fill: #1f77b4; fill-opacity: 0.5; stroke: #000000; stroke-width: 0.678172; stroke-linejoin: miter"/>
   </g>
   <g id="patch_114">
    <path d="M 785.112918 322.707405 
L 794.080256 322.707405 
L 794.080256 146.623251 
L 785.112918 146.623251 
z
" clip-path="url(#p965c53ed58)" style="fill: #1f77b4; fill-opacity: 0.5; stroke: #000000; stroke-width: 0.678172; stroke-linejoin: miter"/>
   </g>
   <g id="patch_115">
    <path d="M 794.080256 322.707405 
L 803.047593 322.707405 
L 803.047593 125.907469 
L 794.080256 125.907469 
z
" clip-path="url(#p965c53ed58)" style="fill: #1f77b4; fill-opacity: 0.5; stroke: #000000; stroke-width: 0.678172; stroke-linejoin: miter"/>
   </g>
   <g id="patch_116">
    <path d="M 803.047593 322.707405 
L 812.014931 322.707405 
L 812.014931 208.7706 
L 803.047593 208.7706 
z
" clip-path="url(#p965c53ed58)" style="fill: #1f77b4; fill-opacity: 0.5; stroke: #000000; stroke-width: 0.678172; stroke-linejoin: miter"/>
   </g>
   <g id="patch_117">
    <path d="M 812.014931 322.707405 
L 820.982269 322.707405 
L 820.982269 229.486382 
L 812.014931 229.486382 
z
" clip-path="url(#p965c53ed58)" style="fill: #1f77b4; fill-opacity: 0.5; stroke: #000000; stroke-width: 0.678172; stroke-linejoin: miter"/>
   </g>
   <g id="patch_118">
    <path d="M 820.982269 322.707405 
L 829.949606 322.707405 
L 829.949606 219.128491 
L 820.982269 219.128491 
z
" clip-path="url(#p965c53ed58)" style="fill: #1f77b4; fill-opacity: 0.5; stroke: #000000; stroke-width: 0.678172; stroke-linejoin: miter"/>
   </g>
   <g id="patch_119">
    <path d="M 829.949606 322.707405 
L 838.916944 322.707405 
L 838.916944 250.202165 
L 829.949606 250.202165 
z
" clip-path="url(#p965c53ed58)" style="fill: #1f77b4; fill-opacity: 0.5; stroke: #000000; stroke-width: 0.678172; stroke-linejoin: miter"/>
   </g>
   <g id="patch_120">
    <path d="M 838.916944 322.707405 
L 847.884282 322.707405 
L 847.884282 260.560057 
L 838.916944 260.560057 
z
" clip-path="url(#p965c53ed58)" style="fill: #1f77b4; fill-opacity: 0.5; stroke: #000000; stroke-width: 0.678172; stroke-linejoin: miter"/>
   </g>
   <g id="patch_121">
    <path d="M 847.884282 322.707405 
L 856.851619 322.707405 
L 856.851619 281.275839 
L 847.884282 281.275839 
z
" clip-path="url(#p965c53ed58)" style="fill: #1f77b4; fill-opacity: 0.5; stroke: #000000; stroke-width: 0.678172; stroke-linejoin: miter"/>
   </g>
   <g id="patch_122">
    <path d="M 856.851619 322.707405 
L 865.818957 322.707405 
L 865.818957 239.844274 
L 856.851619 239.844274 
z
" clip-path="url(#p965c53ed58)" style="fill: #1f77b4; fill-opacity: 0.5; stroke: #000000; stroke-width: 0.678172; stroke-linejoin: miter"/>
   </g>
   <g id="patch_123">
    <path d="M 865.818957 322.707405 
L 874.786295 322.707405 
L 874.786295 281.275839 
L 865.818957 281.275839 
z
" clip-path="url(#p965c53ed58)" style="fill: #1f77b4; fill-opacity: 0.5; stroke: #000000; stroke-width: 0.678172; stroke-linejoin: miter"/>
   </g>
   <g id="patch_124">
    <path d="M 874.786295 322.707405 
L 883.753633 322.707405 
L 883.753633 270.917948 
L 874.786295 270.917948 
z
" clip-path="url(#p965c53ed58)" style="fill: #1f77b4; fill-opacity: 0.5; stroke: #000000; stroke-width: 0.678172; stroke-linejoin: miter"/>
   </g>
   <g id="patch_125">
    <path d="M 883.753633 322.707405 
L 892.72097 322.707405 
L 892.72097 270.917948 
L 883.753633 270.917948 
z
" clip-path="url(#p965c53ed58)" style="fill: #1f77b4; fill-opacity: 0.5; stroke: #000000; stroke-width: 0.678172; stroke-linejoin: miter"/>
   </g>
   <g id="patch_126">
    <path d="M 892.72097 322.707405 
L 901.688308 322.707405 
L 901.688308 239.844274 
L 892.72097 239.844274 
z
" clip-path="url(#p965c53ed58)" style="fill: #1f77b4; fill-opacity: 0.5; stroke: #000000; stroke-width: 0.678172; stroke-linejoin: miter"/>
   </g>
   <g id="patch_127">
    <path d="M 901.688308 322.707405 
L 910.655646 322.707405 
L 910.655646 281.275839 
L 901.688308 281.275839 
z
" clip-path="url(#p965c53ed58)" style="fill: #1f77b4; fill-opacity: 0.5; stroke: #000000; stroke-width: 0.678172; stroke-linejoin: miter"/>
   </g>
   <g id="patch_128">
    <path d="M 910.655646 322.707405 
L 919.622983 322.707405 
L 919.622983 250.202165 
L 910.655646 250.202165 
z
" clip-path="url(#p965c53ed58)" style="fill: #1f77b4; fill-opacity: 0.5; stroke: #000000; stroke-width: 0.678172; stroke-linejoin: miter"/>
   </g>
   <g id="patch_129">
    <path d="M 919.622983 322.707405 
L 928.590321 322.707405 
L 928.590321 281.275839 
L 919.622983 281.275839 
z
" clip-path="url(#p965c53ed58)" style="fill: #1f77b4; fill-opacity: 0.5; stroke: #000000; stroke-width: 0.678172; stroke-linejoin: miter"/>
   </g>
   <g id="patch_130">
    <path d="M 928.590321 322.707405 
L 937.557659 322.707405 
L 937.557659 270.917948 
L 928.590321 270.917948 
z
" clip-path="url(#p965c53ed58)" style="fill: #1f77b4; fill-opacity: 0.5; stroke: #000000; stroke-width: 0.678172; stroke-linejoin: miter"/>
   </g>
   <g id="patch_131">
    <path d="M 937.557659 322.707405 
L 946.524996 322.707405 
L 946.524996 291.633731 
L 937.557659 291.633731 
z
" clip-path="url(#p965c53ed58)" style="fill: #1f77b4; fill-opacity: 0.5; stroke: #000000; stroke-width: 0.678172; stroke-linejoin: miter"/>
   </g>
   <g id="patch_132">
    <path d="M 946.524996 322.707405 
L 955.492334 322.707405 
L 955.492334 260.560057 
L 946.524996 260.560057 
z
" clip-path="url(#p965c53ed58)" style="fill: #1f77b4; fill-opacity: 0.5; stroke: #000000; stroke-width: 0.678172; stroke-linejoin: miter"/>
   </g>
   <g id="patch_133">
    <path d="M 955.492334 322.707405 
L 964.459672 322.707405 
L 964.459672 322.707405 
L 955.492334 322.707405 
z
" clip-path="url(#p965c53ed58)" style="fill: #1f77b4; fill-opacity: 0.5; stroke: #000000; stroke-width: 0.678172; stroke-linejoin: miter"/>
   </g>
   <g id="patch_134">
    <path d="M 964.459672 322.707405 
L 973.42701 322.707405 
L 973.42701 322.707405 
L 964.459672 322.707405 
z
" clip-path="url(#p965c53ed58)" style="fill: #1f77b4; fill-opacity: 0.5; stroke: #000000; stroke-width: 0.678172; stroke-linejoin: miter"/>
   </g>
   <g id="patch_135">
    <path d="M 973.42701 322.707405 
L 982.394347 322.707405 
L 982.394347 322.707405 
L 973.42701 322.707405 
z
" clip-path="url(#p965c53ed58)" style="fill: #1f77b4; fill-opacity: 0.5; stroke: #000000; stroke-width: 0.678172; stroke-linejoin: miter"/>
   </g>
   <g id="patch_136">
    <path d="M 982.394347 322.707405 
L 991.361685 322.707405 
L 991.361685 322.707405 
L 982.394347 322.707405 
z
" clip-path="url(#p965c53ed58)" style="fill: #1f77b4; fill-opacity: 0.5; stroke: #000000; stroke-width: 0.678172; stroke-linejoin: miter"/>
   </g>
   <g id="patch_137">
    <path d="M 991.361685 322.707405 
L 1000.329023 322.707405 
L 1000.329023 301.991622 
L 991.361685 301.991622 
z
" clip-path="url(#p965c53ed58)" style="fill: #1f77b4; fill-opacity: 0.5; stroke: #000000; stroke-width: 0.678172; stroke-linejoin: miter"/>
   </g>
   <g id="patch_138">
    <path d="M 1000.329023 322.707405 
L 1009.29636 322.707405 
L 1009.29636 312.349514 
L 1000.329023 312.349514 
z
" clip-path="url(#p965c53ed58)" style="fill: #1f77b4; fill-opacity: 0.5; stroke: #000000; stroke-width: 0.678172; stroke-linejoin: miter"/>
   </g>
   <g id="patch_139">
    <path d="M 1009.29636 322.707405 
L 1018.263698 322.707405 
L 1018.263698 301.991622 
L 1009.29636 301.991622 
z
" clip-path="url(#p965c53ed58)" style="fill: #1f77b4; fill-opacity: 0.5; stroke: #000000; stroke-width: 0.678172; stroke-linejoin: miter"/>
   </g>
   <g id="patch_140">
    <path d="M 1018.263698 322.707405 
L 1027.231036 322.707405 
L 1027.231036 291.633731 
L 1018.263698 291.633731 
z
" clip-path="url(#p965c53ed58)" style="fill: #1f77b4; fill-opacity: 0.5; stroke: #000000; stroke-width: 0.678172; stroke-linejoin: miter"/>
   </g>
   <g id="patch_141">
    <path d="M 1027.231036 322.707405 
L 1036.198373 322.707405 
L 1036.198373 291.633731 
L 1027.231036 291.633731 
z
" clip-path="url(#p965c53ed58)" style="fill: #1f77b4; fill-opacity: 0.5; stroke: #000000; stroke-width: 0.678172; stroke-linejoin: miter"/>
   </g>
   <g id="patch_142">
    <path d="M 1036.198373 322.707405 
L 1045.165711 322.707405 
L 1045.165711 312.349514 
L 1036.198373 312.349514 
z
" clip-path="url(#p965c53ed58)" style="fill: #1f77b4; fill-opacity: 0.5; stroke: #000000; stroke-width: 0.678172; stroke-linejoin: miter"/>
   </g>
   <g id="patch_143">
    <path d="M 1045.165711 322.707405 
L 1054.133049 322.707405 
L 1054.133049 291.633731 
L 1045.165711 291.633731 
z
" clip-path="url(#p965c53ed58)" style="fill: #1f77b4; fill-opacity: 0.5; stroke: #000000; stroke-width: 0.678172; stroke-linejoin: miter"/>
   </g>
   <g id="matplotlib.axis_3">
    <g id="xtick_6">
     <g id="line2d_18">
      <g>
       <use xlink:href="#m93de8e1901" x="596.798826" y="322.707405" style="stroke: #000000; stroke-width: 0.8"/>
      </g>
     </g>
     <g id="text_16">
      <!-- 0 -->
      <g transform="translate(593.617576 337.305842)scale(0.1 -0.1)">
       <use xlink:href="#DejaVuSans-30"/>
      </g>
     </g>
    </g>
    <g id="xtick_7">
     <g id="line2d_19">
      <g>
       <use xlink:href="#m93de8e1901" x="686.472203" y="322.707405" style="stroke: #000000; stroke-width: 0.8"/>
      </g>
     </g>
     <g id="text_17">
      <!-- 1000 -->
      <g transform="translate(673.747203 337.305842)scale(0.1 -0.1)">
       <use xlink:href="#DejaVuSans-31"/>
       <use xlink:href="#DejaVuSans-30" x="63.623047"/>
       <use xlink:href="#DejaVuSans-30" x="127.246094"/>
       <use xlink:href="#DejaVuSans-30" x="190.869141"/>
      </g>
     </g>
    </g>
    <g id="xtick_8">
     <g id="line2d_20">
      <g>
       <use xlink:href="#m93de8e1901" x="776.14558" y="322.707405" style="stroke: #000000; stroke-width: 0.8"/>
      </g>
     </g>
     <g id="text_18">
      <!-- 2000 -->
      <g transform="translate(763.42058 337.305842)scale(0.1 -0.1)">
       <use xlink:href="#DejaVuSans-32"/>
       <use xlink:href="#DejaVuSans-30" x="63.623047"/>
       <use xlink:href="#DejaVuSans-30" x="127.246094"/>
       <use xlink:href="#DejaVuSans-30" x="190.869141"/>
      </g>
     </g>
    </g>
    <g id="xtick_9">
     <g id="line2d_21">
      <g>
       <use xlink:href="#m93de8e1901" x="865.818957" y="322.707405" style="stroke: #000000; stroke-width: 0.8"/>
      </g>
     </g>
     <g id="text_19">
      <!-- 3000 -->
      <g transform="translate(853.093957 337.305842)scale(0.1 -0.1)">
       <use xlink:href="#DejaVuSans-33"/>
       <use xlink:href="#DejaVuSans-30" x="63.623047"/>
       <use xlink:href="#DejaVuSans-30" x="127.246094"/>
       <use xlink:href="#DejaVuSans-30" x="190.869141"/>
      </g>
     </g>
    </g>
    <g id="xtick_10">
     <g id="line2d_22">
      <g>
       <use xlink:href="#m93de8e1901" x="955.492334" y="322.707405" style="stroke: #000000; stroke-width: 0.8"/>
      </g>
     </g>
     <g id="text_20">
      <!-- 4000 -->
      <g transform="translate(942.767334 337.305842)scale(0.1 -0.1)">
       <use xlink:href="#DejaVuSans-34"/>
       <use xlink:href="#DejaVuSans-30" x="63.623047"/>
       <use xlink:href="#DejaVuSans-30" x="127.246094"/>
       <use xlink:href="#DejaVuSans-30" x="190.869141"/>
      </g>
     </g>
    </g>
    <g id="xtick_11">
     <g id="line2d_23">
      <g>
       <use xlink:href="#m93de8e1901" x="1045.165711" y="322.707405" style="stroke: #000000; stroke-width: 0.8"/>
      </g>
     </g>
     <g id="text_21">
      <!-- 5000 -->
      <g transform="translate(1032.440711 337.305842)scale(0.1 -0.1)">
       <use xlink:href="#DejaVuSans-35"/>
       <use xlink:href="#DejaVuSans-30" x="63.623047"/>
       <use xlink:href="#DejaVuSans-30" x="127.246094"/>
       <use xlink:href="#DejaVuSans-30" x="190.869141"/>
      </g>
     </g>
    </g>
   </g>
   <g id="matplotlib.axis_4">
    <g id="ytick_7">
     <g id="line2d_24">
      <g>
       <use xlink:href="#m62b21b71e0" x="573.932115" y="322.707405" style="stroke: #000000; stroke-width: 0.8"/>
      </g>
     </g>
     <g id="text_22">
      <!-- 0 -->
      <g transform="translate(560.569615 326.506624)scale(0.1 -0.1)">
       <use xlink:href="#DejaVuSans-30"/>
      </g>
     </g>
    </g>
    <g id="ytick_8">
     <g id="line2d_25">
      <g>
       <use xlink:href="#m62b21b71e0" x="573.932115" y="270.917948" style="stroke: #000000; stroke-width: 0.8"/>
      </g>
     </g>
     <g id="text_23">
      <!-- 5 -->
      <g transform="translate(560.569615 274.717167)scale(0.1 -0.1)">
       <use xlink:href="#DejaVuSans-35"/>
      </g>
     </g>
    </g>
    <g id="ytick_9">
     <g id="line2d_26">
      <g>
       <use xlink:href="#m62b21b71e0" x="573.932115" y="219.128491" style="stroke: #000000; stroke-width: 0.8"/>
      </g>
     </g>
     <g id="text_24">
      <!-- 10 -->
      <g transform="translate(554.207115 222.92771)scale(0.1 -0.1)">
       <use xlink:href="#DejaVuSans-31"/>
       <use xlink:href="#DejaVuSans-30" x="63.623047"/>
      </g>
     </g>
    </g>
    <g id="ytick_10">
     <g id="line2d_27">
      <g>
       <use xlink:href="#m62b21b71e0" x="573.932115" y="167.339034" style="stroke: #000000; stroke-width: 0.8"/>
      </g>
     </g>
     <g id="text_25">
      <!-- 15 -->
      <g transform="translate(554.207115 171.138253)scale(0.1 -0.1)">
       <use xlink:href="#DejaVuSans-31"/>
       <use xlink:href="#DejaVuSans-35" x="63.623047"/>
      </g>
     </g>
    </g>
    <g id="ytick_11">
     <g id="line2d_28">
      <g>
       <use xlink:href="#m62b21b71e0" x="573.932115" y="115.549577" style="stroke: #000000; stroke-width: 0.8"/>
      </g>
     </g>
     <g id="text_26">
      <!-- 20 -->
      <g transform="translate(554.207115 119.348796)scale(0.1 -0.1)">
       <use xlink:href="#DejaVuSans-32"/>
       <use xlink:href="#DejaVuSans-30" x="63.623047"/>
      </g>
     </g>
    </g>
    <g id="ytick_12">
     <g id="line2d_29">
      <g>
       <use xlink:href="#m62b21b71e0" x="573.932115" y="63.76012" style="stroke: #000000; stroke-width: 0.8"/>
      </g>
     </g>
     <g id="text_27">
      <!-- 25 -->
      <g transform="translate(554.207115 67.559339)scale(0.1 -0.1)">
       <use xlink:href="#DejaVuSans-32"/>
       <use xlink:href="#DejaVuSans-35" x="63.623047"/>
      </g>
     </g>
    </g>
   </g>
   <g id="line2d_30">
    <path d="M 598.323274 302.458608 
L 602.903952 298.578881 
L 605.194291 296.415425 
L 607.48463 294.087133 
L 609.774969 291.581898 
L 612.065309 288.887799 
L 614.355648 285.993498 
L 616.645987 282.888671 
L 618.936326 279.56447 
L 621.226665 276.013984 
L 623.517004 272.232696 
L 625.807343 268.218906 
L 630.388022 259.503303 
L 634.9687 249.922452 
L 639.549378 239.592601 
L 644.130057 228.68989 
L 660.162431 189.586715 
L 664.743109 179.273711 
L 669.323788 169.798493 
L 671.614127 165.4329 
L 673.904466 161.338655 
L 676.194805 157.528229 
L 678.485144 154.010014 
L 680.775483 150.788401 
L 683.065822 147.863953 
L 685.356162 145.233657 
L 687.646501 142.89124 
L 689.93684 140.827543 
L 692.227179 139.030911 
L 694.517518 137.487613 
L 696.807857 136.182254 
L 699.098197 135.098176 
L 701.388536 134.217834 
L 703.678875 133.523146 
L 705.969214 132.995806 
L 708.259553 132.617558 
L 710.549892 132.370441 
L 715.130571 132.20045 
L 719.711249 132.355322 
L 726.582267 132.950851 
L 749.485658 135.536416 
L 754.066336 136.162782 
L 758.647015 136.985321 
L 763.227693 138.129927 
L 765.518032 138.867024 
L 767.808371 139.738401 
L 770.098711 140.762183 
L 772.38905 141.955763 
L 774.679389 143.335292 
L 776.969728 144.915181 
L 779.260067 146.707618 
L 781.550406 148.72212 
L 783.840746 150.965149 
L 786.131085 153.439793 
L 788.421424 156.145541 
L 790.711763 159.078149 
L 793.002102 162.229619 
L 797.58278 169.138953 
L 802.163459 176.740101 
L 806.744137 184.854966 
L 825.06685 218.207627 
L 829.647529 225.764604 
L 834.228207 232.70021 
L 838.808885 238.925189 
L 841.099225 241.753948 
L 843.389564 244.388935 
L 845.679903 246.829322 
L 847.970242 249.076209 
L 850.260581 251.132469 
L 852.55092 253.002591 
L 854.84126 254.692524 
L 857.131599 256.20953 
L 859.421938 257.562043 
L 861.712277 258.759529 
L 864.002616 259.812361 
L 866.292955 260.731688 
L 870.873634 262.217582 
L 875.454312 263.317329 
L 880.03499 264.135687 
L 886.906008 265.06564 
L 896.067364 266.269334 
L 900.648043 267.050786 
L 905.228721 268.045256 
L 909.809399 269.304708 
L 914.390078 270.865585 
L 918.970756 272.748258 
L 923.551434 274.95654 
L 928.132113 277.477117 
L 932.712791 280.278981 
L 937.293469 283.313164 
L 944.164487 288.150334 
L 953.325843 294.671163 
L 957.906522 297.737706 
L 962.4872 300.541827 
L 967.067878 302.995934 
L 971.648557 305.031316 
L 973.938896 305.877216 
L 976.229235 306.60423 
L 978.519574 307.211434 
L 980.809913 307.699805 
L 985.390592 308.333263 
L 989.97127 308.548376 
L 994.551948 308.41342 
L 999.132627 308.015194 
L 1006.003644 307.140084 
L 1015.165001 305.978133 
L 1019.745679 305.598004 
L 1024.326357 305.441184 
L 1028.907036 305.549322 
L 1033.487714 305.941738 
L 1038.068392 306.615724 
L 1042.649071 307.54844 
L 1047.229749 308.700212 
L 1054.100766 310.722373 
L 1054.100766 310.722373 
" clip-path="url(#p965c53ed58)" style="fill: none; stroke: #1f77b4; stroke-width: 1.5; stroke-linecap: square"/>
   </g>
   <g id="line2d_31">
    <path d="M 762.369956 322.707405 
L 762.369956 39.93697 
" clip-path="url(#p965c53ed58)" style="fill: none; stroke: #d62728; stroke-width: 2; stroke-linecap: square"/>
   </g>
   <g id="patch_144">
    <path d="M 573.932115 322.707405 
L 573.932115 39.93697 
" style="fill: none; stroke: #000000; stroke-width: 0.8; stroke-linejoin: miter; stroke-linecap: square"/>
   </g>
   <g id="patch_145">
    <path d="M 1076.99976 322.707405 
L 1076.99976 39.93697 
" style="fill: none; stroke: #000000; stroke-width: 0.8; stroke-linejoin: miter; stroke-linecap: square"/>
   </g>
   <g id="patch_146">
    <path d="M 573.932115 322.707405 
L 1076.99976 322.707405 
" style="fill: none; stroke: #000000; stroke-width: 0.8; stroke-linejoin: miter; stroke-linecap: square"/>
   </g>
   <g id="patch_147">
    <path d="M 573.932115 39.93697 
L 1076.99976 39.93697 
" style="fill: none; stroke: #000000; stroke-width: 0.8; stroke-linejoin: miter; stroke-linecap: square"/>
   </g>
   <g id="text_28">
    <!-- Considerando apenas a mediana -->
    <g transform="translate(726.734062 29.93697)scale(0.12 -0.12)">
     <defs>
      <path id="DejaVuSans-70" d="M 1159 525 
L 1159 -1331 
L 581 -1331 
L 581 3500 
L 1159 3500 
L 1159 2969 
Q 1341 3281 1617 3432 
Q 1894 3584 2278 3584 
Q 2916 3584 3314 3078 
Q 3713 2572 3713 1747 
Q 3713 922 3314 415 
Q 2916 -91 2278 -91 
Q 1894 -91 1617 61 
Q 1341 213 1159 525 
z
M 3116 1747 
Q 3116 2381 2855 2742 
Q 2594 3103 2138 3103 
Q 1681 3103 1420 2742 
Q 1159 2381 1159 1747 
Q 1159 1113 1420 752 
Q 1681 391 2138 391 
Q 2594 391 2855 752 
Q 3116 1113 3116 1747 
z
" transform="scale(0.015625)"/>
     </defs>
     <use xlink:href="#DejaVuSans-43"/>
     <use xlink:href="#DejaVuSans-6f" x="69.824219"/>
     <use xlink:href="#DejaVuSans-6e" x="131.005859"/>
     <use xlink:href="#DejaVuSans-73" x="194.384766"/>
     <use xlink:href="#DejaVuSans-69" x="246.484375"/>
     <use xlink:href="#DejaVuSans-64" x="274.267578"/>
     <use xlink:href="#DejaVuSans-65" x="337.744141"/>
     <use xlink:href="#DejaVuSans-72" x="399.267578"/>
     <use xlink:href="#DejaVuSans-61" x="440.380859"/>
     <use xlink:href="#DejaVuSans-6e" x="501.660156"/>
     <use xlink:href="#DejaVuSans-64" x="565.039062"/>
     <use xlink:href="#DejaVuSans-6f" x="628.515625"/>
     <use xlink:href="#DejaVuSans-20" x="689.697266"/>
     <use xlink:href="#DejaVuSans-61" x="721.484375"/>
     <use xlink:href="#DejaVuSans-70" x="782.763672"/>
     <use xlink:href="#DejaVuSans-65" x="846.240234"/>
     <use xlink:href="#DejaVuSans-6e" x="907.763672"/>
     <use xlink:href="#DejaVuSans-61" x="971.142578"/>
     <use xlink:href="#DejaVuSans-73" x="1032.421875"/>
     <use xlink:href="#DejaVuSans-20" x="1084.521484"/>
     <use xlink:href="#DejaVuSans-61" x="1116.308594"/>
     <use xlink:href="#DejaVuSans-20" x="1177.587891"/>
     <use xlink:href="#DejaVuSans-6d" x="1209.375"/>
     <use xlink:href="#DejaVuSans-65" x="1306.787109"/>
     <use xlink:href="#DejaVuSans-64" x="1368.310547"/>
     <use xlink:href="#DejaVuSans-69" x="1431.787109"/>
     <use xlink:href="#DejaVuSans-61" x="1459.570312"/>
     <use xlink:href="#DejaVuSans-6e" x="1520.849609"/>
     <use xlink:href="#DejaVuSans-61" x="1584.228516"/>
    </g>
   </g>
   <g id="legend_2">
    <g id="patch_148">
     <path d="M 942.334135 77.29322 
L 1069.99976 77.29322 
Q 1071.99976 77.29322 1071.99976 75.29322 
L 1071.99976 46.93697 
Q 1071.99976 44.93697 1069.99976 44.93697 
L 942.334135 44.93697 
Q 940.334135 44.93697 940.334135 46.93697 
L 940.334135 75.29322 
Q 940.334135 77.29322 942.334135 77.29322 
z
" style="fill: #ffffff; opacity: 0.8; stroke: #cccccc; stroke-linejoin: miter"/>
    </g>
    <g id="line2d_32">
     <path d="M 944.334135 53.035408 
L 954.334135 53.035408 
L 964.334135 53.035408 
" style="fill: none; stroke: #1f77b4; stroke-width: 1.5; stroke-linecap: square"/>
    </g>
    <g id="text_29">
     <!-- Linha de tendência -->
     <g transform="translate(972.334135 56.535408)scale(0.1 -0.1)">
      <use xlink:href="#DejaVuSans-4c"/>
      <use xlink:href="#DejaVuSans-69" x="55.712891"/>
      <use xlink:href="#DejaVuSans-6e" x="83.496094"/>
      <use xlink:href="#DejaVuSans-68" x="146.875"/>
      <use xlink:href="#DejaVuSans-61" x="210.253906"/>
      <use xlink:href="#DejaVuSans-20" x="271.533203"/>
      <use xlink:href="#DejaVuSans-64" x="303.320312"/>
      <use xlink:href="#DejaVuSans-65" x="366.796875"/>
      <use xlink:href="#DejaVuSans-20" x="428.320312"/>
      <use xlink:href="#DejaVuSans-74" x="460.107422"/>
      <use xlink:href="#DejaVuSans-65" x="499.316406"/>
      <use xlink:href="#DejaVuSans-6e" x="560.839844"/>
      <use xlink:href="#DejaVuSans-64" x="624.21875"/>
      <use xlink:href="#DejaVuSans-ea" x="687.695312"/>
      <use xlink:href="#DejaVuSans-6e" x="749.21875"/>
      <use xlink:href="#DejaVuSans-63" x="812.597656"/>
      <use xlink:href="#DejaVuSans-69" x="867.578125"/>
      <use xlink:href="#DejaVuSans-61" x="895.361328"/>
     </g>
    </g>
    <g id="line2d_33">
     <path d="M 944.334135 67.713533 
L 954.334135 67.713533 
L 964.334135 67.713533 
" style="fill: none; stroke: #d62728; stroke-width: 2; stroke-linecap: square"/>
    </g>
    <g id="text_30">
     <!-- Mediana (1846.4) -->
     <g transform="translate(972.334135 71.213533)scale(0.1 -0.1)">
      <use xlink:href="#DejaVuSans-4d"/>
      <use xlink:href="#DejaVuSans-65" x="86.279297"/>
      <use xlink:href="#DejaVuSans-64" x="147.802734"/>
      <use xlink:href="#DejaVuSans-69" x="211.279297"/>
      <use xlink:href="#DejaVuSans-61" x="239.0625"/>
      <use xlink:href="#DejaVuSans-6e" x="300.341797"/>
      <use xlink:href="#DejaVuSans-61" x="363.720703"/>
      <use xlink:href="#DejaVuSans-20" x="425"/>
      <use xlink:href="#DejaVuSans-28" x="456.787109"/>
      <use xlink:href="#DejaVuSans-31" x="495.800781"/>
      <use xlink:href="#DejaVuSans-38" x="559.423828"/>
      <use xlink:href="#DejaVuSans-34" x="623.046875"/>
      <use xlink:href="#DejaVuSans-36" x="686.669922"/>
      <use xlink:href="#DejaVuSans-2e" x="750.292969"/>
      <use xlink:href="#DejaVuSans-34" x="782.080078"/>
      <use xlink:href="#DejaVuSans-29" x="845.703125"/>
     </g>
    </g>
   </g>
  </g>
  <g id="text_31">
   <!-- Renda -->
   <g transform="translate(521.120625 354.504135)scale(0.12 -0.12)">
    <defs>
     <path id="DejaVuSans-52" d="M 2841 2188 
Q 3044 2119 3236 1894 
Q 3428 1669 3622 1275 
L 4263 0 
L 3584 0 
L 2988 1197 
Q 2756 1666 2539 1819 
Q 2322 1972 1947 1972 
L 1259 1972 
L 1259 0 
L 628 0 
L 628 4666 
L 2053 4666 
Q 2853 4666 3247 4331 
Q 3641 3997 3641 3322 
Q 3641 2881 3436 2590 
Q 3231 2300 2841 2188 
z
M 1259 4147 
L 1259 2491 
L 2053 2491 
Q 2509 2491 2742 2702 
Q 2975 2913 2975 3322 
Q 2975 3731 2742 3939 
Q 2509 4147 2053 4147 
L 1259 4147 
z
" transform="scale(0.015625)"/>
    </defs>
    <use xlink:href="#DejaVuSans-52"/>
    <use xlink:href="#DejaVuSans-65" x="64.982422"/>
    <use xlink:href="#DejaVuSans-6e" x="126.505859"/>
    <use xlink:href="#DejaVuSans-64" x="189.884766"/>
    <use xlink:href="#DejaVuSans-61" x="253.361328"/>
   </g>
  </g>
  <g id="text_32">
   <!-- Contagem -->
   <g transform="translate(12.118365 211.037813)rotate(-90)scale(0.12 -0.12)">
    <defs>
     <path id="DejaVuSans-67" d="M 2906 1791 
Q 2906 2416 2648 2759 
Q 2391 3103 1925 3103 
Q 1463 3103 1205 2759 
Q 947 2416 947 1791 
Q 947 1169 1205 825 
Q 1463 481 1925 481 
Q 2391 481 2648 825 
Q 2906 1169 2906 1791 
z
M 3481 434 
Q 3481 -459 3084 -895 
Q 2688 -1331 1869 -1331 
Q 1566 -1331 1297 -1286 
Q 1028 -1241 775 -1147 
L 775 -588 
Q 1028 -725 1275 -790 
Q 1522 -856 1778 -856 
Q 2344 -856 2625 -561 
Q 2906 -266 2906 331 
L 2906 616 
Q 2728 306 2450 153 
Q 2172 0 1784 0 
Q 1141 0 747 490 
Q 353 981 353 1791 
Q 353 2603 747 3093 
Q 1141 3584 1784 3584 
Q 2172 3584 2450 3431 
Q 2728 3278 2906 2969 
L 2906 3500 
L 3481 3500 
L 3481 434 
z
" transform="scale(0.015625)"/>
    </defs>
    <use xlink:href="#DejaVuSans-43"/>
    <use xlink:href="#DejaVuSans-6f" x="69.824219"/>
    <use xlink:href="#DejaVuSans-6e" x="131.005859"/>
    <use xlink:href="#DejaVuSans-74" x="194.384766"/>
    <use xlink:href="#DejaVuSans-61" x="233.59375"/>
    <use xlink:href="#DejaVuSans-67" x="294.873047"/>
    <use xlink:href="#DejaVuSans-65" x="358.349609"/>
    <use xlink:href="#DejaVuSans-6d" x="419.873047"/>
   </g>
  </g>
  <g id="text_33">
   <!-- Distribuição de renda na população geral -->
   <g transform="translate(415.955625 12.32274)scale(0.12 -0.12)">
    <defs>
     <path id="DejaVuSans-44" d="M 1259 4147 
L 1259 519 
L 2022 519 
Q 2988 519 3436 956 
Q 3884 1394 3884 2338 
Q 3884 3275 3436 3711 
Q 2988 4147 2022 4147 
L 1259 4147 
z
M 628 4666 
L 1925 4666 
Q 3281 4666 3915 4102 
Q 4550 3538 4550 2338 
Q 4550 1131 3912 565 
Q 3275 0 1925 0 
L 628 0 
L 628 4666 
z
" transform="scale(0.015625)"/>
     <path id="DejaVuSans-62" d="M 3116 1747 
Q 3116 2381 2855 2742 
Q 2594 3103 2138 3103 
Q 1681 3103 1420 2742 
Q 1159 2381 1159 1747 
Q 1159 1113 1420 752 
Q 1681 391 2138 391 
Q 2594 391 2855 752 
Q 3116 1113 3116 1747 
z
M 1159 2969 
Q 1341 3281 1617 3432 
Q 1894 3584 2278 3584 
Q 2916 3584 3314 3078 
Q 3713 2572 3713 1747 
Q 3713 922 3314 415 
Q 2916 -91 2278 -91 
Q 1894 -91 1617 61 
Q 1341 213 1159 525 
L 1159 0 
L 581 0 
L 581 4863 
L 1159 4863 
L 1159 2969 
z
" transform="scale(0.015625)"/>
     <path id="DejaVuSans-75" d="M 544 1381 
L 544 3500 
L 1119 3500 
L 1119 1403 
Q 1119 906 1312 657 
Q 1506 409 1894 409 
Q 2359 409 2629 706 
Q 2900 1003 2900 1516 
L 2900 3500 
L 3475 3500 
L 3475 0 
L 2900 0 
L 2900 538 
Q 2691 219 2414 64 
Q 2138 -91 1772 -91 
Q 1169 -91 856 284 
Q 544 659 544 1381 
z
M 1991 3584 
L 1991 3584 
z
" transform="scale(0.015625)"/>
     <path id="DejaVuSans-e7" d="M 3122 3366 
L 3122 2828 
Q 2878 2963 2633 3030 
Q 2388 3097 2138 3097 
Q 1578 3097 1268 2742 
Q 959 2388 959 1747 
Q 959 1106 1268 751 
Q 1578 397 2138 397 
Q 2388 397 2633 464 
Q 2878 531 3122 666 
L 3122 134 
Q 2881 22 2623 -34 
Q 2366 -91 2075 -91 
Q 1284 -91 818 406 
Q 353 903 353 1747 
Q 353 2603 823 3093 
Q 1294 3584 2113 3584 
Q 2378 3584 2631 3529 
Q 2884 3475 3122 3366 
z
M 2309 0 
Q 2481 -194 2565 -358 
Q 2650 -522 2650 -672 
Q 2650 -950 2462 -1092 
Q 2275 -1234 1906 -1234 
Q 1763 -1234 1627 -1215 
Q 1491 -1197 1356 -1159 
L 1356 -750 
Q 1463 -803 1578 -826 
Q 1694 -850 1841 -850 
Q 2025 -850 2119 -775 
Q 2213 -700 2213 -556 
Q 2213 -463 2145 -327 
Q 2078 -191 1938 0 
L 2309 0 
z
" transform="scale(0.015625)"/>
     <path id="DejaVuSans-e3" d="M 2194 1759 
Q 1497 1759 1228 1600 
Q 959 1441 959 1056 
Q 959 750 1161 570 
Q 1363 391 1709 391 
Q 2188 391 2477 730 
Q 2766 1069 2766 1631 
L 2766 1759 
L 2194 1759 
z
M 3341 1997 
L 3341 0 
L 2766 0 
L 2766 531 
Q 2569 213 2275 61 
Q 1981 -91 1556 -91 
Q 1019 -91 701 211 
Q 384 513 384 1019 
Q 384 1609 779 1909 
Q 1175 2209 1959 2209 
L 2766 2209 
L 2766 2266 
Q 2766 2663 2505 2880 
Q 2244 3097 1772 3097 
Q 1472 3097 1187 3025 
Q 903 2953 641 2809 
L 641 3341 
Q 956 3463 1253 3523 
Q 1550 3584 1831 3584 
Q 2591 3584 2966 3190 
Q 3341 2797 3341 1997 
z
M 1844 4281 
L 1666 4453 
Q 1597 4516 1545 4545 
Q 1494 4575 1453 4575 
Q 1334 4575 1278 4461 
Q 1222 4347 1216 4091 
L 825 4091 
Q 831 4513 990 4742 
Q 1150 4972 1434 4972 
Q 1553 4972 1653 4928 
Q 1753 4884 1869 4781 
L 2047 4609 
Q 2116 4547 2167 4517 
Q 2219 4488 2259 4488 
Q 2378 4488 2434 4602 
Q 2491 4716 2497 4972 
L 2888 4972 
Q 2881 4550 2722 4320 
Q 2563 4091 2278 4091 
Q 2159 4091 2059 4134 
Q 1959 4178 1844 4281 
z
" transform="scale(0.015625)"/>
     <path id="DejaVuSans-6c" d="M 603 4863 
L 1178 4863 
L 1178 0 
L 603 0 
L 603 4863 
z
" transform="scale(0.015625)"/>
    </defs>
    <use xlink:href="#DejaVuSans-44"/>
    <use xlink:href="#DejaVuSans-69" x="77.001953"/>
    <use xlink:href="#DejaVuSans-73" x="104.785156"/>
    <use xlink:href="#DejaVuSans-74" x="156.884766"/>
    <use xlink:href="#DejaVuSans-72" x="196.09375"/>
    <use xlink:href="#DejaVuSans-69" x="237.207031"/>
    <use xlink:href="#DejaVuSans-62" x="264.990234"/>
    <use xlink:href="#DejaVuSans-75" x="328.466797"/>
    <use xlink:href="#DejaVuSans-69" x="391.845703"/>
    <use xlink:href="#DejaVuSans-e7" x="419.628906"/>
    <use xlink:href="#DejaVuSans-e3" x="474.609375"/>
    <use xlink:href="#DejaVuSans-6f" x="535.888672"/>
    <use xlink:href="#DejaVuSans-20" x="597.070312"/>
    <use xlink:href="#DejaVuSans-64" x="628.857422"/>
    <use xlink:href="#DejaVuSans-65" x="692.333984"/>
    <use xlink:href="#DejaVuSans-20" x="753.857422"/>
    <use xlink:href="#DejaVuSans-72" x="785.644531"/>
    <use xlink:href="#DejaVuSans-65" x="824.507812"/>
    <use xlink:href="#DejaVuSans-6e" x="886.03125"/>
    <use xlink:href="#DejaVuSans-64" x="949.410156"/>
    <use xlink:href="#DejaVuSans-61" x="1012.886719"/>
    <use xlink:href="#DejaVuSans-20" x="1074.166016"/>
    <use xlink:href="#DejaVuSans-6e" x="1105.953125"/>
    <use xlink:href="#DejaVuSans-61" x="1169.332031"/>
    <use xlink:href="#DejaVuSans-20" x="1230.611328"/>
    <use xlink:href="#DejaVuSans-70" x="1262.398438"/>
    <use xlink:href="#DejaVuSans-6f" x="1325.875"/>
    <use xlink:href="#DejaVuSans-70" x="1387.056641"/>
    <use xlink:href="#DejaVuSans-75" x="1450.533203"/>
    <use xlink:href="#DejaVuSans-6c" x="1513.912109"/>
    <use xlink:href="#DejaVuSans-61" x="1541.695312"/>
    <use xlink:href="#DejaVuSans-e7" x="1602.974609"/>
    <use xlink:href="#DejaVuSans-e3" x="1657.955078"/>
    <use xlink:href="#DejaVuSans-6f" x="1719.234375"/>
    <use xlink:href="#DejaVuSans-20" x="1780.416016"/>
    <use xlink:href="#DejaVuSans-67" x="1812.203125"/>
    <use xlink:href="#DejaVuSans-65" x="1875.679688"/>
    <use xlink:href="#DejaVuSans-72" x="1937.203125"/>
    <use xlink:href="#DejaVuSans-61" x="1978.316406"/>
    <use xlink:href="#DejaVuSans-6c" x="2039.595703"/>
   </g>
  </g>
 </g>
 <defs>
  <clipPath id="p5b56ec448b">
   <rect x="40.33947" y="39.93697" width="503.067645" height="282.770435"/>
  </clipPath>
  <clipPath id="p965c53ed58">
   <rect x="573.932115" y="39.93697" width="503.067645" height="282.770435"/>
  </clipPath>
 </defs>
</svg>
