<?xml version="1.0" encoding="utf-8" standalone="no"?>
<!DOCTYPE svg PUBLIC "-//W3C//DTD SVG 1.1//EN"
  "http://www.w3.org/Graphics/SVG/1.1/DTD/svg11.dtd">
<svg xmlns:xlink="http://www.w3.org/1999/xlink" width="1224pt" height="360pt" viewBox="0 0 1224 360" xmlns="http://www.w3.org/2000/svg" version="1.1">
 <metadata>
  <rdf:RDF xmlns:dc="http://purl.org/dc/elements/1.1/" xmlns:cc="http://creativecommons.org/ns#" xmlns:rdf="http://www.w3.org/1999/02/22-rdf-syntax-ns#">
   <cc:Work>
    <dc:type rdf:resource="http://purl.org/dc/dcmitype/StillImage"/>
    <dc:date>2022-04-24T21:00:38.082995</dc:date>
    <dc:format>image/svg+xml</dc:format>
    <dc:creator>
     <cc:Agent>
      <dc:title>Matplotlib v3.5.1, https://matplotlib.org/</dc:title>
     </cc:Agent>
    </dc:creator>
   </cc:Work>
  </rdf:RDF>
 </metadata>
 <defs>
  <style type="text/css">*{stroke-linejoin: round; stroke-linecap: butt}</style>
 </defs>
 <g id="figure_1">
  <g id="patch_1">
   <path d="M 0 360 
L 1224 360 
L 1224 0 
L 0 0 
L 0 360 
z
" style="fill: none"/>
  </g>
  <g id="axes_1">
   <g id="patch_2">
    <path d="M 40.33947 322.707405 
L 614.687115 322.707405 
L 614.687115 39.93697 
L 40.33947 39.93697 
z
" style="fill: #ffffff"/>
   </g>
   <g id="patch_3">
    <path d="M 66.446181 322.707405 
L 72.662065 322.707405 
L 72.662065 270.917948 
L 66.446181 270.917948 
z
" clip-path="url(#p164c562ab4)" style="fill: #1f77b4; fill-opacity: 0.5; stroke: #000000; stroke-width: 0.466647; stroke-linejoin: miter"/>
   </g>
   <g id="patch_4">
    <path d="M 72.662065 322.707405 
L 78.877948 322.707405 
L 78.877948 312.349514 
L 72.662065 312.349514 
z
" clip-path="url(#p164c562ab4)" style="fill: #1f77b4; fill-opacity: 0.5; stroke: #000000; stroke-width: 0.466647; stroke-linejoin: miter"/>
   </g>
   <g id="patch_5">
    <path d="M 78.877948 322.707405 
L 85.093832 322.707405 
L 85.093832 301.991622 
L 78.877948 301.991622 
z
" clip-path="url(#p164c562ab4)" style="fill: #1f77b4; fill-opacity: 0.5; stroke: #000000; stroke-width: 0.466647; stroke-linejoin: miter"/>
   </g>
   <g id="patch_6">
    <path d="M 85.093832 322.707405 
L 91.309716 322.707405 
L 91.309716 281.275839 
L 85.093832 281.275839 
z
" clip-path="url(#p164c562ab4)" style="fill: #1f77b4; fill-opacity: 0.5; stroke: #000000; stroke-width: 0.466647; stroke-linejoin: miter"/>
   </g>
   <g id="patch_7">
    <path d="M 91.309716 322.707405 
L 97.525599 322.707405 
L 97.525599 312.349514 
L 91.309716 312.349514 
z
" clip-path="url(#p164c562ab4)" style="fill: #1f77b4; fill-opacity: 0.5; stroke: #000000; stroke-width: 0.466647; stroke-linejoin: miter"/>
   </g>
   <g id="patch_8">
    <path d="M 97.525599 322.707405 
L 103.741483 322.707405 
L 103.741483 260.560057 
L 97.525599 260.560057 
z
" clip-path="url(#p164c562ab4)" style="fill: #1f77b4; fill-opacity: 0.5; stroke: #000000; stroke-width: 0.466647; stroke-linejoin: miter"/>
   </g>
   <g id="patch_9">
    <path d="M 103.741483 322.707405 
L 109.957366 322.707405 
L 109.957366 115.549577 
L 103.741483 115.549577 
z
" clip-path="url(#p164c562ab4)" style="fill: #1f77b4; fill-opacity: 0.5; stroke: #000000; stroke-width: 0.466647; stroke-linejoin: miter"/>
   </g>
   <g id="patch_10">
    <path d="M 109.957366 322.707405 
L 116.17325 322.707405 
L 116.17325 198.412708 
L 109.957366 198.412708 
z
" clip-path="url(#p164c562ab4)" style="fill: #1f77b4; fill-opacity: 0.5; stroke: #000000; stroke-width: 0.466647; stroke-linejoin: miter"/>
   </g>
   <g id="patch_11">
    <path d="M 116.17325 322.707405 
L 122.389134 322.707405 
L 122.389134 115.549577 
L 116.17325 115.549577 
z
" clip-path="url(#p164c562ab4)" style="fill: #1f77b4; fill-opacity: 0.5; stroke: #000000; stroke-width: 0.466647; stroke-linejoin: miter"/>
   </g>
   <g id="patch_12">
    <path d="M 122.389134 322.707405 
L 128.605017 322.707405 
L 128.605017 74.118012 
L 122.389134 74.118012 
z
" clip-path="url(#p164c562ab4)" style="fill: #1f77b4; fill-opacity: 0.5; stroke: #000000; stroke-width: 0.466647; stroke-linejoin: miter"/>
   </g>
   <g id="patch_13">
    <path d="M 128.605017 322.707405 
L 134.820901 322.707405 
L 134.820901 188.054817 
L 128.605017 188.054817 
z
" clip-path="url(#p164c562ab4)" style="fill: #1f77b4; fill-opacity: 0.5; stroke: #000000; stroke-width: 0.466647; stroke-linejoin: miter"/>
   </g>
   <g id="patch_14">
    <path d="M 134.820901 322.707405 
L 141.036784 322.707405 
L 141.036784 94.833794 
L 134.820901 94.833794 
z
" clip-path="url(#p164c562ab4)" style="fill: #1f77b4; fill-opacity: 0.5; stroke: #000000; stroke-width: 0.466647; stroke-linejoin: miter"/>
   </g>
   <g id="patch_15">
    <path d="M 141.036784 322.707405 
L 147.252668 322.707405 
L 147.252668 146.623251 
L 141.036784 146.623251 
z
" clip-path="url(#p164c562ab4)" style="fill: #1f77b4; fill-opacity: 0.5; stroke: #000000; stroke-width: 0.466647; stroke-linejoin: miter"/>
   </g>
   <g id="patch_16">
    <path d="M 147.252668 322.707405 
L 153.468552 322.707405 
L 153.468552 53.402229 
L 147.252668 53.402229 
z
" clip-path="url(#p164c562ab4)" style="fill: #1f77b4; fill-opacity: 0.5; stroke: #000000; stroke-width: 0.466647; stroke-linejoin: miter"/>
   </g>
   <g id="patch_17">
    <path d="M 153.468552 322.707405 
L 159.684435 322.707405 
L 159.684435 198.412708 
L 153.468552 198.412708 
z
" clip-path="url(#p164c562ab4)" style="fill: #1f77b4; fill-opacity: 0.5; stroke: #000000; stroke-width: 0.466647; stroke-linejoin: miter"/>
   </g>
   <g id="patch_18">
    <path d="M 159.684435 322.707405 
L 165.900319 322.707405 
L 165.900319 156.981143 
L 159.684435 156.981143 
z
" clip-path="url(#p164c562ab4)" style="fill: #1f77b4; fill-opacity: 0.5; stroke: #000000; stroke-width: 0.466647; stroke-linejoin: miter"/>
   </g>
   <g id="patch_19">
    <path d="M 165.900319 322.707405 
L 172.116202 322.707405 
L 172.116202 125.907469 
L 165.900319 125.907469 
z
" clip-path="url(#p164c562ab4)" style="fill: #1f77b4; fill-opacity: 0.5; stroke: #000000; stroke-width: 0.466647; stroke-linejoin: miter"/>
   </g>
   <g id="patch_20">
    <path d="M 172.116202 322.707405 
L 178.332086 322.707405 
L 178.332086 84.475903 
L 172.116202 84.475903 
z
" clip-path="url(#p164c562ab4)" style="fill: #1f77b4; fill-opacity: 0.5; stroke: #000000; stroke-width: 0.466647; stroke-linejoin: miter"/>
   </g>
   <g id="patch_21">
    <path d="M 178.332086 322.707405 
L 184.54797 322.707405 
L 184.54797 198.412708 
L 178.332086 198.412708 
z
" clip-path="url(#p164c562ab4)" style="fill: #1f77b4; fill-opacity: 0.5; stroke: #000000; stroke-width: 0.466647; stroke-linejoin: miter"/>
   </g>
   <g id="patch_22">
    <path d="M 184.54797 322.707405 
L 190.763853 322.707405 
L 190.763853 136.26536 
L 184.54797 136.26536 
z
" clip-path="url(#p164c562ab4)" style="fill: #1f77b4; fill-opacity: 0.5; stroke: #000000; stroke-width: 0.466647; stroke-linejoin: miter"/>
   </g>
   <g id="patch_23">
    <path d="M 190.763853 322.707405 
L 196.979737 322.707405 
L 196.979737 74.118012 
L 190.763853 74.118012 
z
" clip-path="url(#p164c562ab4)" style="fill: #1f77b4; fill-opacity: 0.5; stroke: #000000; stroke-width: 0.466647; stroke-linejoin: miter"/>
   </g>
   <g id="patch_24">
    <path d="M 196.979737 322.707405 
L 203.19562 322.707405 
L 203.19562 146.623251 
L 196.979737 146.623251 
z
" clip-path="url(#p164c562ab4)" style="fill: #1f77b4; fill-opacity: 0.5; stroke: #000000; stroke-width: 0.466647; stroke-linejoin: miter"/>
   </g>
   <g id="patch_25">
    <path d="M 203.19562 322.707405 
L 209.411504 322.707405 
L 209.411504 125.907469 
L 203.19562 125.907469 
z
" clip-path="url(#p164c562ab4)" style="fill: #1f77b4; fill-opacity: 0.5; stroke: #000000; stroke-width: 0.466647; stroke-linejoin: miter"/>
   </g>
   <g id="patch_26">
    <path d="M 209.411504 322.707405 
L 215.627388 322.707405 
L 215.627388 208.7706 
L 209.411504 208.7706 
z
" clip-path="url(#p164c562ab4)" style="fill: #1f77b4; fill-opacity: 0.5; stroke: #000000; stroke-width: 0.466647; stroke-linejoin: miter"/>
   </g>
   <g id="patch_27">
    <path d="M 215.627388 322.707405 
L 221.843271 322.707405 
L 221.843271 229.486382 
L 215.627388 229.486382 
z
" clip-path="url(#p164c562ab4)" style="fill: #1f77b4; fill-opacity: 0.5; stroke: #000000; stroke-width: 0.466647; stroke-linejoin: miter"/>
   </g>
   <g id="patch_28">
    <path d="M 221.843271 322.707405 
L 228.059155 322.707405 
L 228.059155 219.128491 
L 221.843271 219.128491 
z
" clip-path="url(#p164c562ab4)" style="fill: #1f77b4; fill-opacity: 0.5; stroke: #000000; stroke-width: 0.466647; stroke-linejoin: miter"/>
   </g>
   <g id="patch_29">
    <path d="M 228.059155 322.707405 
L 234.275038 322.707405 
L 234.275038 250.202165 
L 228.059155 250.202165 
z
" clip-path="url(#p164c562ab4)" style="fill: #1f77b4; fill-opacity: 0.5; stroke: #000000; stroke-width: 0.466647; stroke-linejoin: miter"/>
   </g>
   <g id="patch_30">
    <path d="M 234.275038 322.707405 
L 240.490922 322.707405 
L 240.490922 260.560057 
L 234.275038 260.560057 
z
" clip-path="url(#p164c562ab4)" style="fill: #1f77b4; fill-opacity: 0.5; stroke: #000000; stroke-width: 0.466647; stroke-linejoin: miter"/>
   </g>
   <g id="patch_31">
    <path d="M 240.490922 322.707405 
L 246.706806 322.707405 
L 246.706806 281.275839 
L 240.490922 281.275839 
z
" clip-path="url(#p164c562ab4)" style="fill: #1f77b4; fill-opacity: 0.5; stroke: #000000; stroke-width: 0.466647; stroke-linejoin: miter"/>
   </g>
   <g id="patch_32">
    <path d="M 246.706806 322.707405 
L 252.922689 322.707405 
L 252.922689 239.844274 
L 246.706806 239.844274 
z
" clip-path="url(#p164c562ab4)" style="fill: #1f77b4; fill-opacity: 0.5; stroke: #000000; stroke-width: 0.466647; stroke-linejoin: miter"/>
   </g>
   <g id="patch_33">
    <path d="M 252.922689 322.707405 
L 259.138573 322.707405 
L 259.138573 281.275839 
L 252.922689 281.275839 
z
" clip-path="url(#p164c562ab4)" style="fill: #1f77b4; fill-opacity: 0.5; stroke: #000000; stroke-width: 0.466647; stroke-linejoin: miter"/>
   </g>
   <g id="patch_34">
    <path d="M 259.138573 322.707405 
L 265.354456 322.707405 
L 265.354456 270.917948 
L 259.138573 270.917948 
z
" clip-path="url(#p164c562ab4)" style="fill: #1f77b4; fill-opacity: 0.5; stroke: #000000; stroke-width: 0.466647; stroke-linejoin: miter"/>
   </g>
   <g id="patch_35">
    <path d="M 265.354456 322.707405 
L 271.57034 322.707405 
L 271.57034 270.917948 
L 265.354456 270.917948 
z
" clip-path="url(#p164c562ab4)" style="fill: #1f77b4; fill-opacity: 0.5; stroke: #000000; stroke-width: 0.466647; stroke-linejoin: miter"/>
   </g>
   <g id="patch_36">
    <path d="M 271.57034 322.707405 
L 277.786224 322.707405 
L 277.786224 239.844274 
L 271.57034 239.844274 
z
" clip-path="url(#p164c562ab4)" style="fill: #1f77b4; fill-opacity: 0.5; stroke: #000000; stroke-width: 0.466647; stroke-linejoin: miter"/>
   </g>
   <g id="patch_37">
    <path d="M 277.786224 322.707405 
L 284.002107 322.707405 
L 284.002107 281.275839 
L 277.786224 281.275839 
z
" clip-path="url(#p164c562ab4)" style="fill: #1f77b4; fill-opacity: 0.5; stroke: #000000; stroke-width: 0.466647; stroke-linejoin: miter"/>
   </g>
   <g id="patch_38">
    <path d="M 284.002107 322.707405 
L 290.217991 322.707405 
L 290.217991 250.202165 
L 284.002107 250.202165 
z
" clip-path="url(#p164c562ab4)" style="fill: #1f77b4; fill-opacity: 0.5; stroke: #000000; stroke-width: 0.466647; stroke-linejoin: miter"/>
   </g>
   <g id="patch_39">
    <path d="M 290.217991 322.707405 
L 296.433874 322.707405 
L 296.433874 281.275839 
L 290.217991 281.275839 
z
" clip-path="url(#p164c562ab4)" style="fill: #1f77b4; fill-opacity: 0.5; stroke: #000000; stroke-width: 0.466647; stroke-linejoin: miter"/>
   </g>
   <g id="patch_40">
    <path d="M 296.433874 322.707405 
L 302.649758 322.707405 
L 302.649758 270.917948 
L 296.433874 270.917948 
z
" clip-path="url(#p164c562ab4)" style="fill: #1f77b4; fill-opacity: 0.5; stroke: #000000; stroke-width: 0.466647; stroke-linejoin: miter"/>
   </g>
   <g id="patch_41">
    <path d="M 302.649758 322.707405 
L 308.865642 322.707405 
L 308.865642 291.633731 
L 302.649758 291.633731 
z
" clip-path="url(#p164c562ab4)" style="fill: #1f77b4; fill-opacity: 0.5; stroke: #000000; stroke-width: 0.466647; stroke-linejoin: miter"/>
   </g>
   <g id="patch_42">
    <path d="M 308.865642 322.707405 
L 315.081525 322.707405 
L 315.081525 260.560057 
L 308.865642 260.560057 
z
" clip-path="url(#p164c562ab4)" style="fill: #1f77b4; fill-opacity: 0.5; stroke: #000000; stroke-width: 0.466647; stroke-linejoin: miter"/>
   </g>
   <g id="patch_43">
    <path d="M 315.081525 322.707405 
L 321.297409 322.707405 
L 321.297409 322.707405 
L 315.081525 322.707405 
z
" clip-path="url(#p164c562ab4)" style="fill: #1f77b4; fill-opacity: 0.5; stroke: #000000; stroke-width: 0.466647; stroke-linejoin: miter"/>
   </g>
   <g id="patch_44">
    <path d="M 321.297409 322.707405 
L 327.513292 322.707405 
L 327.513292 322.707405 
L 321.297409 322.707405 
z
" clip-path="url(#p164c562ab4)" style="fill: #1f77b4; fill-opacity: 0.5; stroke: #000000; stroke-width: 0.466647; stroke-linejoin: miter"/>
   </g>
   <g id="patch_45">
    <path d="M 327.513293 322.707405 
L 333.729176 322.707405 
L 333.729176 322.707405 
L 327.513293 322.707405 
z
" clip-path="url(#p164c562ab4)" style="fill: #1f77b4; fill-opacity: 0.5; stroke: #000000; stroke-width: 0.466647; stroke-linejoin: miter"/>
   </g>
   <g id="patch_46">
    <path d="M 333.729176 322.707405 
L 339.94506 322.707405 
L 339.94506 322.707405 
L 333.729176 322.707405 
z
" clip-path="url(#p164c562ab4)" style="fill: #1f77b4; fill-opacity: 0.5; stroke: #000000; stroke-width: 0.466647; stroke-linejoin: miter"/>
   </g>
   <g id="patch_47">
    <path d="M 339.94506 322.707405 
L 346.160943 322.707405 
L 346.160943 301.991622 
L 339.94506 301.991622 
z
" clip-path="url(#p164c562ab4)" style="fill: #1f77b4; fill-opacity: 0.5; stroke: #000000; stroke-width: 0.466647; stroke-linejoin: miter"/>
   </g>
   <g id="patch_48">
    <path d="M 346.160943 322.707405 
L 352.376827 322.707405 
L 352.376827 312.349514 
L 346.160943 312.349514 
z
" clip-path="url(#p164c562ab4)" style="fill: #1f77b4; fill-opacity: 0.5; stroke: #000000; stroke-width: 0.466647; stroke-linejoin: miter"/>
   </g>
   <g id="patch_49">
    <path d="M 352.376827 322.707405 
L 358.592711 322.707405 
L 358.592711 301.991622 
L 352.376827 301.991622 
z
" clip-path="url(#p164c562ab4)" style="fill: #1f77b4; fill-opacity: 0.5; stroke: #000000; stroke-width: 0.466647; stroke-linejoin: miter"/>
   </g>
   <g id="patch_50">
    <path d="M 358.592711 322.707405 
L 364.808594 322.707405 
L 364.808594 291.633731 
L 358.592711 291.633731 
z
" clip-path="url(#p164c562ab4)" style="fill: #1f77b4; fill-opacity: 0.5; stroke: #000000; stroke-width: 0.466647; stroke-linejoin: miter"/>
   </g>
   <g id="patch_51">
    <path d="M 364.808594 322.707405 
L 371.024478 322.707405 
L 371.024478 291.633731 
L 364.808594 291.633731 
z
" clip-path="url(#p164c562ab4)" style="fill: #1f77b4; fill-opacity: 0.5; stroke: #000000; stroke-width: 0.466647; stroke-linejoin: miter"/>
   </g>
   <g id="patch_52">
    <path d="M 371.024478 322.707405 
L 377.240361 322.707405 
L 377.240361 312.349514 
L 371.024478 312.349514 
z
" clip-path="url(#p164c562ab4)" style="fill: #1f77b4; fill-opacity: 0.5; stroke: #000000; stroke-width: 0.466647; stroke-linejoin: miter"/>
   </g>
   <g id="patch_53">
    <path d="M 377.240361 322.707405 
L 383.456245 322.707405 
L 383.456245 291.633731 
L 377.240361 291.633731 
z
" clip-path="url(#p164c562ab4)" style="fill: #1f77b4; fill-opacity: 0.5; stroke: #000000; stroke-width: 0.466647; stroke-linejoin: miter"/>
   </g>
   <g id="patch_54">
    <path d="M 383.456245 322.707405 
L 389.672129 322.707405 
L 389.672129 312.349514 
L 383.456245 312.349514 
z
" clip-path="url(#p164c562ab4)" style="fill: #1f77b4; fill-opacity: 0.5; stroke: #000000; stroke-width: 0.466647; stroke-linejoin: miter"/>
   </g>
   <g id="patch_55">
    <path d="M 389.672129 322.707405 
L 395.888012 322.707405 
L 395.888012 322.707405 
L 389.672129 322.707405 
z
" clip-path="url(#p164c562ab4)" style="fill: #1f77b4; fill-opacity: 0.5; stroke: #000000; stroke-width: 0.466647; stroke-linejoin: miter"/>
   </g>
   <g id="patch_56">
    <path d="M 395.888012 322.707405 
L 402.103896 322.707405 
L 402.103896 301.991622 
L 395.888012 301.991622 
z
" clip-path="url(#p164c562ab4)" style="fill: #1f77b4; fill-opacity: 0.5; stroke: #000000; stroke-width: 0.466647; stroke-linejoin: miter"/>
   </g>
   <g id="patch_57">
    <path d="M 402.103896 322.707405 
L 408.319779 322.707405 
L 408.319779 301.991622 
L 402.103896 301.991622 
z
" clip-path="url(#p164c562ab4)" style="fill: #1f77b4; fill-opacity: 0.5; stroke: #000000; stroke-width: 0.466647; stroke-linejoin: miter"/>
   </g>
   <g id="patch_58">
    <path d="M 408.319779 322.707405 
L 414.535663 322.707405 
L 414.535663 312.349514 
L 408.319779 312.349514 
z
" clip-path="url(#p164c562ab4)" style="fill: #1f77b4; fill-opacity: 0.5; stroke: #000000; stroke-width: 0.466647; stroke-linejoin: miter"/>
   </g>
   <g id="patch_59">
    <path d="M 414.535663 322.707405 
L 420.751547 322.707405 
L 420.751547 312.349514 
L 414.535663 312.349514 
z
" clip-path="url(#p164c562ab4)" style="fill: #1f77b4; fill-opacity: 0.5; stroke: #000000; stroke-width: 0.466647; stroke-linejoin: miter"/>
   </g>
   <g id="patch_60">
    <path d="M 420.751547 322.707405 
L 426.96743 322.707405 
L 426.96743 281.275839 
L 420.751547 281.275839 
z
" clip-path="url(#p164c562ab4)" style="fill: #1f77b4; fill-opacity: 0.5; stroke: #000000; stroke-width: 0.466647; stroke-linejoin: miter"/>
   </g>
   <g id="patch_61">
    <path d="M 426.96743 322.707405 
L 433.183314 322.707405 
L 433.183314 322.707405 
L 426.96743 322.707405 
z
" clip-path="url(#p164c562ab4)" style="fill: #1f77b4; fill-opacity: 0.5; stroke: #000000; stroke-width: 0.466647; stroke-linejoin: miter"/>
   </g>
   <g id="patch_62">
    <path d="M 433.183314 322.707405 
L 439.399197 322.707405 
L 439.399197 291.633731 
L 433.183314 291.633731 
z
" clip-path="url(#p164c562ab4)" style="fill: #1f77b4; fill-opacity: 0.5; stroke: #000000; stroke-width: 0.466647; stroke-linejoin: miter"/>
   </g>
   <g id="patch_63">
    <path d="M 439.399197 322.707405 
L 445.615081 322.707405 
L 445.615081 270.917948 
L 439.399197 270.917948 
z
" clip-path="url(#p164c562ab4)" style="fill: #1f77b4; fill-opacity: 0.5; stroke: #000000; stroke-width: 0.466647; stroke-linejoin: miter"/>
   </g>
   <g id="patch_64">
    <path d="M 445.615081 322.707405 
L 451.830965 322.707405 
L 451.830965 312.349514 
L 445.615081 312.349514 
z
" clip-path="url(#p164c562ab4)" style="fill: #1f77b4; fill-opacity: 0.5; stroke: #000000; stroke-width: 0.466647; stroke-linejoin: miter"/>
   </g>
   <g id="patch_65">
    <path d="M 451.830965 322.707405 
L 458.046848 322.707405 
L 458.046848 322.707405 
L 451.830965 322.707405 
z
" clip-path="url(#p164c562ab4)" style="fill: #1f77b4; fill-opacity: 0.5; stroke: #000000; stroke-width: 0.466647; stroke-linejoin: miter"/>
   </g>
   <g id="patch_66">
    <path d="M 458.046848 322.707405 
L 464.262732 322.707405 
L 464.262732 322.707405 
L 458.046848 322.707405 
z
" clip-path="url(#p164c562ab4)" style="fill: #1f77b4; fill-opacity: 0.5; stroke: #000000; stroke-width: 0.466647; stroke-linejoin: miter"/>
   </g>
   <g id="patch_67">
    <path d="M 464.262732 322.707405 
L 470.478615 322.707405 
L 470.478615 312.349514 
L 464.262732 312.349514 
z
" clip-path="url(#p164c562ab4)" style="fill: #1f77b4; fill-opacity: 0.5; stroke: #000000; stroke-width: 0.466647; stroke-linejoin: miter"/>
   </g>
   <g id="patch_68">
    <path d="M 470.478615 322.707405 
L 476.694499 322.707405 
L 476.694499 322.707405 
L 470.478615 322.707405 
z
" clip-path="url(#p164c562ab4)" style="fill: #1f77b4; fill-opacity: 0.5; stroke: #000000; stroke-width: 0.466647; stroke-linejoin: miter"/>
   </g>
   <g id="patch_69">
    <path d="M 476.694499 322.707405 
L 482.910383 322.707405 
L 482.910383 312.349514 
L 476.694499 312.349514 
z
" clip-path="url(#p164c562ab4)" style="fill: #1f77b4; fill-opacity: 0.5; stroke: #000000; stroke-width: 0.466647; stroke-linejoin: miter"/>
   </g>
   <g id="patch_70">
    <path d="M 482.910383 322.707405 
L 489.126266 322.707405 
L 489.126266 322.707405 
L 482.910383 322.707405 
z
" clip-path="url(#p164c562ab4)" style="fill: #1f77b4; fill-opacity: 0.5; stroke: #000000; stroke-width: 0.466647; stroke-linejoin: miter"/>
   </g>
   <g id="patch_71">
    <path d="M 489.126266 322.707405 
L 495.34215 322.707405 
L 495.34215 301.991622 
L 489.126266 301.991622 
z
" clip-path="url(#p164c562ab4)" style="fill: #1f77b4; fill-opacity: 0.5; stroke: #000000; stroke-width: 0.466647; stroke-linejoin: miter"/>
   </g>
   <g id="patch_72">
    <path d="M 495.34215 322.707405 
L 501.558033 322.707405 
L 501.558033 322.707405 
L 495.34215 322.707405 
z
" clip-path="url(#p164c562ab4)" style="fill: #1f77b4; fill-opacity: 0.5; stroke: #000000; stroke-width: 0.466647; stroke-linejoin: miter"/>
   </g>
   <g id="patch_73">
    <path d="M 501.558033 322.707405 
L 507.773917 322.707405 
L 507.773917 322.707405 
L 501.558033 322.707405 
z
" clip-path="url(#p164c562ab4)" style="fill: #1f77b4; fill-opacity: 0.5; stroke: #000000; stroke-width: 0.466647; stroke-linejoin: miter"/>
   </g>
   <g id="patch_74">
    <path d="M 507.773917 322.707405 
L 513.989801 322.707405 
L 513.989801 312.349514 
L 507.773917 312.349514 
z
" clip-path="url(#p164c562ab4)" style="fill: #1f77b4; fill-opacity: 0.5; stroke: #000000; stroke-width: 0.466647; stroke-linejoin: miter"/>
   </g>
   <g id="patch_75">
    <path d="M 513.989801 322.707405 
L 520.205684 322.707405 
L 520.205684 312.349514 
L 513.989801 312.349514 
z
" clip-path="url(#p164c562ab4)" style="fill: #1f77b4; fill-opacity: 0.5; stroke: #000000; stroke-width: 0.466647; stroke-linejoin: miter"/>
   </g>
   <g id="patch_76">
    <path d="M 520.205684 322.707405 
L 526.421568 322.707405 
L 526.421568 322.707405 
L 520.205684 322.707405 
z
" clip-path="url(#p164c562ab4)" style="fill: #1f77b4; fill-opacity: 0.5; stroke: #000000; stroke-width: 0.466647; stroke-linejoin: miter"/>
   </g>
   <g id="patch_77">
    <path d="M 526.421568 322.707405 
L 532.637451 322.707405 
L 532.637451 322.707405 
L 526.421568 322.707405 
z
" clip-path="url(#p164c562ab4)" style="fill: #1f77b4; fill-opacity: 0.5; stroke: #000000; stroke-width: 0.466647; stroke-linejoin: miter"/>
   </g>
   <g id="patch_78">
    <path d="M 532.637451 322.707405 
L 538.853335 322.707405 
L 538.853335 322.707405 
L 532.637451 322.707405 
z
" clip-path="url(#p164c562ab4)" style="fill: #1f77b4; fill-opacity: 0.5; stroke: #000000; stroke-width: 0.466647; stroke-linejoin: miter"/>
   </g>
   <g id="patch_79">
    <path d="M 538.853335 322.707405 
L 545.069219 322.707405 
L 545.069219 322.707405 
L 538.853335 322.707405 
z
" clip-path="url(#p164c562ab4)" style="fill: #1f77b4; fill-opacity: 0.5; stroke: #000000; stroke-width: 0.466647; stroke-linejoin: miter"/>
   </g>
   <g id="patch_80">
    <path d="M 545.069219 322.707405 
L 551.285102 322.707405 
L 551.285102 322.707405 
L 545.069219 322.707405 
z
" clip-path="url(#p164c562ab4)" style="fill: #1f77b4; fill-opacity: 0.5; stroke: #000000; stroke-width: 0.466647; stroke-linejoin: miter"/>
   </g>
   <g id="patch_81">
    <path d="M 551.285102 322.707405 
L 557.500986 322.707405 
L 557.500986 322.707405 
L 551.285102 322.707405 
z
" clip-path="url(#p164c562ab4)" style="fill: #1f77b4; fill-opacity: 0.5; stroke: #000000; stroke-width: 0.466647; stroke-linejoin: miter"/>
   </g>
   <g id="patch_82">
    <path d="M 557.500986 322.707405 
L 563.716869 322.707405 
L 563.716869 312.349514 
L 557.500986 312.349514 
z
" clip-path="url(#p164c562ab4)" style="fill: #1f77b4; fill-opacity: 0.5; stroke: #000000; stroke-width: 0.466647; stroke-linejoin: miter"/>
   </g>
   <g id="patch_83">
    <path d="M 563.716869 322.707405 
L 569.932753 322.707405 
L 569.932753 322.707405 
L 563.716869 322.707405 
z
" clip-path="url(#p164c562ab4)" style="fill: #1f77b4; fill-opacity: 0.5; stroke: #000000; stroke-width: 0.466647; stroke-linejoin: miter"/>
   </g>
   <g id="patch_84">
    <path d="M 569.932753 322.707405 
L 576.148637 322.707405 
L 576.148637 322.707405 
L 569.932753 322.707405 
z
" clip-path="url(#p164c562ab4)" style="fill: #1f77b4; fill-opacity: 0.5; stroke: #000000; stroke-width: 0.466647; stroke-linejoin: miter"/>
   </g>
   <g id="patch_85">
    <path d="M 576.148637 322.707405 
L 582.36452 322.707405 
L 582.36452 312.349514 
L 576.148637 312.349514 
z
" clip-path="url(#p164c562ab4)" style="fill: #1f77b4; fill-opacity: 0.5; stroke: #000000; stroke-width: 0.466647; stroke-linejoin: miter"/>
   </g>
   <g id="patch_86">
    <path d="M 582.36452 322.707405 
L 588.580404 322.707405 
L 588.580404 312.349514 
L 582.36452 312.349514 
z
" clip-path="url(#p164c562ab4)" style="fill: #1f77b4; fill-opacity: 0.5; stroke: #000000; stroke-width: 0.466647; stroke-linejoin: miter"/>
   </g>
   <g id="matplotlib.axis_1">
    <g id="xtick_1">
     <g id="line2d_1">
      <defs>
       <path id="md0c209a088" d="M 0 0 
L 0 3.5 
" style="stroke: #000000; stroke-width: 0.8"/>
      </defs>
      <g>
       <use xlink:href="#md0c209a088" x="66.446181" y="322.707405" style="stroke: #000000; stroke-width: 0.8"/>
      </g>
     </g>
     <g id="text_1">
      <!-- 0 -->
      <g transform="translate(63.264931 337.305842)scale(0.1 -0.1)">
       <defs>
        <path id="DejaVuSans-30" d="M 2034 4250 
Q 1547 4250 1301 3770 
Q 1056 3291 1056 2328 
Q 1056 1369 1301 889 
Q 1547 409 2034 409 
Q 2525 409 2770 889 
Q 3016 1369 3016 2328 
Q 3016 3291 2770 3770 
Q 2525 4250 2034 4250 
z
M 2034 4750 
Q 2819 4750 3233 4129 
Q 3647 3509 3647 2328 
Q 3647 1150 3233 529 
Q 2819 -91 2034 -91 
Q 1250 -91 836 529 
Q 422 1150 422 2328 
Q 422 3509 836 4129 
Q 1250 4750 2034 4750 
z
" transform="scale(0.015625)"/>
       </defs>
       <use xlink:href="#DejaVuSans-30"/>
      </g>
     </g>
    </g>
    <g id="xtick_2">
     <g id="line2d_2">
      <g>
       <use xlink:href="#md0c209a088" x="190.763853" y="322.707405" style="stroke: #000000; stroke-width: 0.8"/>
      </g>
     </g>
     <g id="text_2">
      <!-- 2000 -->
      <g transform="translate(178.038853 337.305842)scale(0.1 -0.1)">
       <defs>
        <path id="DejaVuSans-32" d="M 1228 531 
L 3431 531 
L 3431 0 
L 469 0 
L 469 531 
Q 828 903 1448 1529 
Q 2069 2156 2228 2338 
Q 2531 2678 2651 2914 
Q 2772 3150 2772 3378 
Q 2772 3750 2511 3984 
Q 2250 4219 1831 4219 
Q 1534 4219 1204 4116 
Q 875 4013 500 3803 
L 500 4441 
Q 881 4594 1212 4672 
Q 1544 4750 1819 4750 
Q 2544 4750 2975 4387 
Q 3406 4025 3406 3419 
Q 3406 3131 3298 2873 
Q 3191 2616 2906 2266 
Q 2828 2175 2409 1742 
Q 1991 1309 1228 531 
z
" transform="scale(0.015625)"/>
       </defs>
       <use xlink:href="#DejaVuSans-32"/>
       <use xlink:href="#DejaVuSans-30" x="63.623047"/>
       <use xlink:href="#DejaVuSans-30" x="127.246094"/>
       <use xlink:href="#DejaVuSans-30" x="190.869141"/>
      </g>
     </g>
    </g>
    <g id="xtick_3">
     <g id="line2d_3">
      <g>
       <use xlink:href="#md0c209a088" x="315.081525" y="322.707405" style="stroke: #000000; stroke-width: 0.8"/>
      </g>
     </g>
     <g id="text_3">
      <!-- 4000 -->
      <g transform="translate(302.356525 337.305842)scale(0.1 -0.1)">
       <defs>
        <path id="DejaVuSans-34" d="M 2419 4116 
L 825 1625 
L 2419 1625 
L 2419 4116 
z
M 2253 4666 
L 3047 4666 
L 3047 1625 
L 3713 1625 
L 3713 1100 
L 3047 1100 
L 3047 0 
L 2419 0 
L 2419 1100 
L 313 1100 
L 313 1709 
L 2253 4666 
z
" transform="scale(0.015625)"/>
       </defs>
       <use xlink:href="#DejaVuSans-34"/>
       <use xlink:href="#DejaVuSans-30" x="63.623047"/>
       <use xlink:href="#DejaVuSans-30" x="127.246094"/>
       <use xlink:href="#DejaVuSans-30" x="190.869141"/>
      </g>
     </g>
    </g>
    <g id="xtick_4">
     <g id="line2d_4">
      <g>
       <use xlink:href="#md0c209a088" x="439.399197" y="322.707405" style="stroke: #000000; stroke-width: 0.8"/>
      </g>
     </g>
     <g id="text_4">
      <!-- 6000 -->
      <g transform="translate(426.674197 337.305842)scale(0.1 -0.1)">
       <defs>
        <path id="DejaVuSans-36" d="M 2113 2584 
Q 1688 2584 1439 2293 
Q 1191 2003 1191 1497 
Q 1191 994 1439 701 
Q 1688 409 2113 409 
Q 2538 409 2786 701 
Q 3034 994 3034 1497 
Q 3034 2003 2786 2293 
Q 2538 2584 2113 2584 
z
M 3366 4563 
L 3366 3988 
Q 3128 4100 2886 4159 
Q 2644 4219 2406 4219 
Q 1781 4219 1451 3797 
Q 1122 3375 1075 2522 
Q 1259 2794 1537 2939 
Q 1816 3084 2150 3084 
Q 2853 3084 3261 2657 
Q 3669 2231 3669 1497 
Q 3669 778 3244 343 
Q 2819 -91 2113 -91 
Q 1303 -91 875 529 
Q 447 1150 447 2328 
Q 447 3434 972 4092 
Q 1497 4750 2381 4750 
Q 2619 4750 2861 4703 
Q 3103 4656 3366 4563 
z
" transform="scale(0.015625)"/>
       </defs>
       <use xlink:href="#DejaVuSans-36"/>
       <use xlink:href="#DejaVuSans-30" x="63.623047"/>
       <use xlink:href="#DejaVuSans-30" x="127.246094"/>
       <use xlink:href="#DejaVuSans-30" x="190.869141"/>
      </g>
     </g>
    </g>
    <g id="xtick_5">
     <g id="line2d_5">
      <g>
       <use xlink:href="#md0c209a088" x="563.716869" y="322.707405" style="stroke: #000000; stroke-width: 0.8"/>
      </g>
     </g>
     <g id="text_5">
      <!-- 8000 -->
      <g transform="translate(550.991869 337.305842)scale(0.1 -0.1)">
       <defs>
        <path id="DejaVuSans-38" d="M 2034 2216 
Q 1584 2216 1326 1975 
Q 1069 1734 1069 1313 
Q 1069 891 1326 650 
Q 1584 409 2034 409 
Q 2484 409 2743 651 
Q 3003 894 3003 1313 
Q 3003 1734 2745 1975 
Q 2488 2216 2034 2216 
z
M 1403 2484 
Q 997 2584 770 2862 
Q 544 3141 544 3541 
Q 544 4100 942 4425 
Q 1341 4750 2034 4750 
Q 2731 4750 3128 4425 
Q 3525 4100 3525 3541 
Q 3525 3141 3298 2862 
Q 3072 2584 2669 2484 
Q 3125 2378 3379 2068 
Q 3634 1759 3634 1313 
Q 3634 634 3220 271 
Q 2806 -91 2034 -91 
Q 1263 -91 848 271 
Q 434 634 434 1313 
Q 434 1759 690 2068 
Q 947 2378 1403 2484 
z
M 1172 3481 
Q 1172 3119 1398 2916 
Q 1625 2713 2034 2713 
Q 2441 2713 2670 2916 
Q 2900 3119 2900 3481 
Q 2900 3844 2670 4047 
Q 2441 4250 2034 4250 
Q 1625 4250 1398 4047 
Q 1172 3844 1172 3481 
z
" transform="scale(0.015625)"/>
       </defs>
       <use xlink:href="#DejaVuSans-38"/>
       <use xlink:href="#DejaVuSans-30" x="63.623047"/>
       <use xlink:href="#DejaVuSans-30" x="127.246094"/>
       <use xlink:href="#DejaVuSans-30" x="190.869141"/>
      </g>
     </g>
    </g>
   </g>
   <g id="matplotlib.axis_2">
    <g id="ytick_1">
     <g id="line2d_6">
      <defs>
       <path id="m2b1140b1fd" d="M 0 0 
L -3.5 0 
" style="stroke: #000000; stroke-width: 0.8"/>
      </defs>
      <g>
       <use xlink:href="#m2b1140b1fd" x="40.33947" y="322.707405" style="stroke: #000000; stroke-width: 0.8"/>
      </g>
     </g>
     <g id="text_6">
      <!-- 0 -->
      <g transform="translate(26.97697 326.506624)scale(0.1 -0.1)">
       <use xlink:href="#DejaVuSans-30"/>
      </g>
     </g>
    </g>
    <g id="ytick_2">
     <g id="line2d_7">
      <g>
       <use xlink:href="#m2b1140b1fd" x="40.33947" y="270.917948" style="stroke: #000000; stroke-width: 0.8"/>
      </g>
     </g>
     <g id="text_7">
      <!-- 5 -->
      <g transform="translate(26.97697 274.717167)scale(0.1 -0.1)">
       <defs>
        <path id="DejaVuSans-35" d="M 691 4666 
L 3169 4666 
L 3169 4134 
L 1269 4134 
L 1269 2991 
Q 1406 3038 1543 3061 
Q 1681 3084 1819 3084 
Q 2600 3084 3056 2656 
Q 3513 2228 3513 1497 
Q 3513 744 3044 326 
Q 2575 -91 1722 -91 
Q 1428 -91 1123 -41 
Q 819 9 494 109 
L 494 744 
Q 775 591 1075 516 
Q 1375 441 1709 441 
Q 2250 441 2565 725 
Q 2881 1009 2881 1497 
Q 2881 1984 2565 2268 
Q 2250 2553 1709 2553 
Q 1456 2553 1204 2497 
Q 953 2441 691 2322 
L 691 4666 
z
" transform="scale(0.015625)"/>
       </defs>
       <use xlink:href="#DejaVuSans-35"/>
      </g>
     </g>
    </g>
    <g id="ytick_3">
     <g id="line2d_8">
      <g>
       <use xlink:href="#m2b1140b1fd" x="40.33947" y="219.128491" style="stroke: #000000; stroke-width: 0.8"/>
      </g>
     </g>
     <g id="text_8">
      <!-- 10 -->
      <g transform="translate(20.61447 222.92771)scale(0.1 -0.1)">
       <defs>
        <path id="DejaVuSans-31" d="M 794 531 
L 1825 531 
L 1825 4091 
L 703 3866 
L 703 4441 
L 1819 4666 
L 2450 4666 
L 2450 531 
L 3481 531 
L 3481 0 
L 794 0 
L 794 531 
z
" transform="scale(0.015625)"/>
       </defs>
       <use xlink:href="#DejaVuSans-31"/>
       <use xlink:href="#DejaVuSans-30" x="63.623047"/>
      </g>
     </g>
    </g>
    <g id="ytick_4">
     <g id="line2d_9">
      <g>
       <use xlink:href="#m2b1140b1fd" x="40.33947" y="167.339034" style="stroke: #000000; stroke-width: 0.8"/>
      </g>
     </g>
     <g id="text_9">
      <!-- 15 -->
      <g transform="translate(20.61447 171.138253)scale(0.1 -0.1)">
       <use xlink:href="#DejaVuSans-31"/>
       <use xlink:href="#DejaVuSans-35" x="63.623047"/>
      </g>
     </g>
    </g>
    <g id="ytick_5">
     <g id="line2d_10">
      <g>
       <use xlink:href="#m2b1140b1fd" x="40.33947" y="115.549577" style="stroke: #000000; stroke-width: 0.8"/>
      </g>
     </g>
     <g id="text_10">
      <!-- 20 -->
      <g transform="translate(20.61447 119.348796)scale(0.1 -0.1)">
       <use xlink:href="#DejaVuSans-32"/>
       <use xlink:href="#DejaVuSans-30" x="63.623047"/>
      </g>
     </g>
    </g>
    <g id="ytick_6">
     <g id="line2d_11">
      <g>
       <use xlink:href="#m2b1140b1fd" x="40.33947" y="63.76012" style="stroke: #000000; stroke-width: 0.8"/>
      </g>
     </g>
     <g id="text_11">
      <!-- 25 -->
      <g transform="translate(20.61447 67.559339)scale(0.1 -0.1)">
       <use xlink:href="#DejaVuSans-32"/>
       <use xlink:href="#DejaVuSans-35" x="63.623047"/>
      </g>
     </g>
    </g>
   </g>
   <g id="line2d_12">
    <path d="M 67.502881 293.61598 
L 70.098356 289.840186 
L 72.693831 285.723762 
L 75.289306 281.260829 
L 77.884781 276.450458 
L 80.480256 271.297443 
L 83.075731 265.812967 
L 85.671206 260.015105 
L 90.862156 247.587441 
L 96.053106 234.301282 
L 111.625956 193.470201 
L 116.816906 181.092232 
L 119.412381 175.373076 
L 122.007856 170.019789 
L 124.603331 165.062156 
L 127.198806 160.521623 
L 129.794281 156.411213 
L 132.389756 152.735773 
L 134.985231 149.49254 
L 137.580706 146.671976 
L 140.176181 144.258837 
L 142.771656 142.233403 
L 145.367131 140.572833 
L 147.962606 139.252551 
L 150.558081 138.247627 
L 153.153556 137.534074 
L 155.749031 137.090024 
L 158.344506 136.896717 
L 160.939981 136.939284 
L 163.535456 137.207277 
L 166.130931 137.694932 
L 168.726406 138.401162 
L 171.321881 139.32927 
L 173.917356 140.4864 
L 176.512831 141.882757 
L 179.108306 143.530623 
L 181.703781 145.443217 
L 184.299256 147.633463 
L 186.894731 150.112712 
L 189.490206 152.889504 
L 192.085681 155.96841 
L 194.681156 159.349043 
L 197.276631 163.02527 
L 199.872106 166.984694 
L 202.467581 171.208409 
L 207.658531 180.341271 
L 212.849481 190.152506 
L 225.826856 215.336156 
L 231.017806 224.721044 
L 233.613281 229.111298 
L 236.208756 233.263558 
L 238.804231 237.158437 
L 241.399706 240.783309 
L 243.995181 244.132329 
L 246.590656 247.206249 
L 249.186131 250.012027 
L 251.781606 252.562288 
L 254.377081 254.874634 
L 256.972556 256.970857 
L 259.568031 258.876078 
L 262.163506 260.617836 
L 267.354456 263.727695 
L 275.140881 267.893162 
L 282.927306 272.063709 
L 288.118256 275.080234 
L 293.309206 278.35505 
L 298.500156 281.870092 
L 316.668481 294.521248 
L 321.859431 297.614885 
L 324.454906 298.985914 
L 327.050381 300.223854 
L 329.645856 301.320997 
L 332.241331 302.273293 
L 334.836806 303.080403 
L 337.432281 303.7456 
L 340.027756 304.275511 
L 342.623231 304.679734 
L 347.814181 305.161235 
L 353.005131 305.305265 
L 360.791556 305.158443 
L 376.364406 304.713852 
L 389.341781 304.688839 
L 404.914631 304.659669 
L 417.892006 304.625041 
L 423.082956 304.761377 
L 428.273906 305.065948 
L 433.464856 305.578265 
L 438.655806 306.31331 
L 443.846756 307.256764 
L 451.633181 308.96412 
L 467.206031 312.590234 
L 474.992456 314.101465 
L 482.778881 315.29469 
L 490.565306 316.211699 
L 500.947206 317.170325 
L 519.115531 318.587225 
L 529.497431 319.244738 
L 539.879331 319.664437 
L 550.261231 319.810753 
L 578.811456 319.899494 
L 584.002406 320.057956 
L 584.002406 320.057956 
" clip-path="url(#p164c562ab4)" style="fill: none; stroke: #1f77b4; stroke-width: 1.5; stroke-linecap: square"/>
   </g>
   <g id="line2d_13">
    <path d="M 181.215013 322.707405 
L 181.215013 39.93697 
" clip-path="url(#p164c562ab4)" style="fill: none; stroke: #d62728; stroke-width: 2; stroke-linecap: square"/>
   </g>
   <g id="line2d_14">
    <path d="M 585.682774 322.707405 
L 585.682774 39.93697 
" clip-path="url(#p164c562ab4)" style="fill: none; stroke: #bcbd22; stroke-width: 2; stroke-linecap: square"/>
   </g>
   <g id="patch_87">
    <path d="M 40.33947 322.707405 
L 40.33947 39.93697 
" style="fill: none; stroke: #000000; stroke-width: 0.8; stroke-linejoin: miter; stroke-linecap: square"/>
   </g>
   <g id="patch_88">
    <path d="M 614.687115 322.707405 
L 614.687115 39.93697 
" style="fill: none; stroke: #000000; stroke-width: 0.8; stroke-linejoin: miter; stroke-linecap: square"/>
   </g>
   <g id="patch_89">
    <path d="M 40.33947 322.707405 
L 614.687115 322.707405 
" style="fill: none; stroke: #000000; stroke-width: 0.8; stroke-linejoin: miter; stroke-linecap: square"/>
   </g>
   <g id="patch_90">
    <path d="M 40.33947 39.93697 
L 614.687115 39.93697 
" style="fill: none; stroke: #000000; stroke-width: 0.8; stroke-linejoin: miter; stroke-linecap: square"/>
   </g>
   <g id="text_12">
    <!-- Considerando a média -->
    <g transform="translate(259.95048 29.93697)scale(0.12 -0.12)">
     <defs>
      <path id="DejaVuSans-43" d="M 4122 4306 
L 4122 3641 
Q 3803 3938 3442 4084 
Q 3081 4231 2675 4231 
Q 1875 4231 1450 3742 
Q 1025 3253 1025 2328 
Q 1025 1406 1450 917 
Q 1875 428 2675 428 
Q 3081 428 3442 575 
Q 3803 722 4122 1019 
L 4122 359 
Q 3791 134 3420 21 
Q 3050 -91 2638 -91 
Q 1578 -91 968 557 
Q 359 1206 359 2328 
Q 359 3453 968 4101 
Q 1578 4750 2638 4750 
Q 3056 4750 3426 4639 
Q 3797 4528 4122 4306 
z
" transform="scale(0.015625)"/>
      <path id="DejaVuSans-6f" d="M 1959 3097 
Q 1497 3097 1228 2736 
Q 959 2375 959 1747 
Q 959 1119 1226 758 
Q 1494 397 1959 397 
Q 2419 397 2687 759 
Q 2956 1122 2956 1747 
Q 2956 2369 2687 2733 
Q 2419 3097 1959 3097 
z
M 1959 3584 
Q 2709 3584 3137 3096 
Q 3566 2609 3566 1747 
Q 3566 888 3137 398 
Q 2709 -91 1959 -91 
Q 1206 -91 779 398 
Q 353 888 353 1747 
Q 353 2609 779 3096 
Q 1206 3584 1959 3584 
z
" transform="scale(0.015625)"/>
      <path id="DejaVuSans-6e" d="M 3513 2113 
L 3513 0 
L 2938 0 
L 2938 2094 
Q 2938 2591 2744 2837 
Q 2550 3084 2163 3084 
Q 1697 3084 1428 2787 
Q 1159 2491 1159 1978 
L 1159 0 
L 581 0 
L 581 3500 
L 1159 3500 
L 1159 2956 
Q 1366 3272 1645 3428 
Q 1925 3584 2291 3584 
Q 2894 3584 3203 3211 
Q 3513 2838 3513 2113 
z
" transform="scale(0.015625)"/>
      <path id="DejaVuSans-73" d="M 2834 3397 
L 2834 2853 
Q 2591 2978 2328 3040 
Q 2066 3103 1784 3103 
Q 1356 3103 1142 2972 
Q 928 2841 928 2578 
Q 928 2378 1081 2264 
Q 1234 2150 1697 2047 
L 1894 2003 
Q 2506 1872 2764 1633 
Q 3022 1394 3022 966 
Q 3022 478 2636 193 
Q 2250 -91 1575 -91 
Q 1294 -91 989 -36 
Q 684 19 347 128 
L 347 722 
Q 666 556 975 473 
Q 1284 391 1588 391 
Q 1994 391 2212 530 
Q 2431 669 2431 922 
Q 2431 1156 2273 1281 
Q 2116 1406 1581 1522 
L 1381 1569 
Q 847 1681 609 1914 
Q 372 2147 372 2553 
Q 372 3047 722 3315 
Q 1072 3584 1716 3584 
Q 2034 3584 2315 3537 
Q 2597 3491 2834 3397 
z
" transform="scale(0.015625)"/>
      <path id="DejaVuSans-69" d="M 603 3500 
L 1178 3500 
L 1178 0 
L 603 0 
L 603 3500 
z
M 603 4863 
L 1178 4863 
L 1178 4134 
L 603 4134 
L 603 4863 
z
" transform="scale(0.015625)"/>
      <path id="DejaVuSans-64" d="M 2906 2969 
L 2906 4863 
L 3481 4863 
L 3481 0 
L 2906 0 
L 2906 525 
Q 2725 213 2448 61 
Q 2172 -91 1784 -91 
Q 1150 -91 751 415 
Q 353 922 353 1747 
Q 353 2572 751 3078 
Q 1150 3584 1784 3584 
Q 2172 3584 2448 3432 
Q 2725 3281 2906 2969 
z
M 947 1747 
Q 947 1113 1208 752 
Q 1469 391 1925 391 
Q 2381 391 2643 752 
Q 2906 1113 2906 1747 
Q 2906 2381 2643 2742 
Q 2381 3103 1925 3103 
Q 1469 3103 1208 2742 
Q 947 2381 947 1747 
z
" transform="scale(0.015625)"/>
      <path id="DejaVuSans-65" d="M 3597 1894 
L 3597 1613 
L 953 1613 
Q 991 1019 1311 708 
Q 1631 397 2203 397 
Q 2534 397 2845 478 
Q 3156 559 3463 722 
L 3463 178 
Q 3153 47 2828 -22 
Q 2503 -91 2169 -91 
Q 1331 -91 842 396 
Q 353 884 353 1716 
Q 353 2575 817 3079 
Q 1281 3584 2069 3584 
Q 2775 3584 3186 3129 
Q 3597 2675 3597 1894 
z
M 3022 2063 
Q 3016 2534 2758 2815 
Q 2500 3097 2075 3097 
Q 1594 3097 1305 2825 
Q 1016 2553 972 2059 
L 3022 2063 
z
" transform="scale(0.015625)"/>
      <path id="DejaVuSans-72" d="M 2631 2963 
Q 2534 3019 2420 3045 
Q 2306 3072 2169 3072 
Q 1681 3072 1420 2755 
Q 1159 2438 1159 1844 
L 1159 0 
L 581 0 
L 581 3500 
L 1159 3500 
L 1159 2956 
Q 1341 3275 1631 3429 
Q 1922 3584 2338 3584 
Q 2397 3584 2469 3576 
Q 2541 3569 2628 3553 
L 2631 2963 
z
" transform="scale(0.015625)"/>
      <path id="DejaVuSans-61" d="M 2194 1759 
Q 1497 1759 1228 1600 
Q 959 1441 959 1056 
Q 959 750 1161 570 
Q 1363 391 1709 391 
Q 2188 391 2477 730 
Q 2766 1069 2766 1631 
L 2766 1759 
L 2194 1759 
z
M 3341 1997 
L 3341 0 
L 2766 0 
L 2766 531 
Q 2569 213 2275 61 
Q 1981 -91 1556 -91 
Q 1019 -91 701 211 
Q 384 513 384 1019 
Q 384 1609 779 1909 
Q 1175 2209 1959 2209 
L 2766 2209 
L 2766 2266 
Q 2766 2663 2505 2880 
Q 2244 3097 1772 3097 
Q 1472 3097 1187 3025 
Q 903 2953 641 2809 
L 641 3341 
Q 956 3463 1253 3523 
Q 1550 3584 1831 3584 
Q 2591 3584 2966 3190 
Q 3341 2797 3341 1997 
z
" transform="scale(0.015625)"/>
      <path id="DejaVuSans-20" transform="scale(0.015625)"/>
      <path id="DejaVuSans-6d" d="M 3328 2828 
Q 3544 3216 3844 3400 
Q 4144 3584 4550 3584 
Q 5097 3584 5394 3201 
Q 5691 2819 5691 2113 
L 5691 0 
L 5113 0 
L 5113 2094 
Q 5113 2597 4934 2840 
Q 4756 3084 4391 3084 
Q 3944 3084 3684 2787 
Q 3425 2491 3425 1978 
L 3425 0 
L 2847 0 
L 2847 2094 
Q 2847 2600 2669 2842 
Q 2491 3084 2119 3084 
Q 1678 3084 1418 2786 
Q 1159 2488 1159 1978 
L 1159 0 
L 581 0 
L 581 3500 
L 1159 3500 
L 1159 2956 
Q 1356 3278 1631 3431 
Q 1906 3584 2284 3584 
Q 2666 3584 2933 3390 
Q 3200 3197 3328 2828 
z
" transform="scale(0.015625)"/>
      <path id="DejaVuSans-e9" d="M 3597 1894 
L 3597 1613 
L 953 1613 
Q 991 1019 1311 708 
Q 1631 397 2203 397 
Q 2534 397 2845 478 
Q 3156 559 3463 722 
L 3463 178 
Q 3153 47 2828 -22 
Q 2503 -91 2169 -91 
Q 1331 -91 842 396 
Q 353 884 353 1716 
Q 353 2575 817 3079 
Q 1281 3584 2069 3584 
Q 2775 3584 3186 3129 
Q 3597 2675 3597 1894 
z
M 3022 2063 
Q 3016 2534 2758 2815 
Q 2500 3097 2075 3097 
Q 1594 3097 1305 2825 
Q 1016 2553 972 2059 
L 3022 2063 
z
M 2469 5119 
L 3091 5119 
L 2072 3944 
L 1594 3944 
L 2469 5119 
z
" transform="scale(0.015625)"/>
     </defs>
     <use xlink:href="#DejaVuSans-43"/>
     <use xlink:href="#DejaVuSans-6f" x="69.824219"/>
     <use xlink:href="#DejaVuSans-6e" x="131.005859"/>
     <use xlink:href="#DejaVuSans-73" x="194.384766"/>
     <use xlink:href="#DejaVuSans-69" x="246.484375"/>
     <use xlink:href="#DejaVuSans-64" x="274.267578"/>
     <use xlink:href="#DejaVuSans-65" x="337.744141"/>
     <use xlink:href="#DejaVuSans-72" x="399.267578"/>
     <use xlink:href="#DejaVuSans-61" x="440.380859"/>
     <use xlink:href="#DejaVuSans-6e" x="501.660156"/>
     <use xlink:href="#DejaVuSans-64" x="565.039062"/>
     <use xlink:href="#DejaVuSans-6f" x="628.515625"/>
     <use xlink:href="#DejaVuSans-20" x="689.697266"/>
     <use xlink:href="#DejaVuSans-61" x="721.484375"/>
     <use xlink:href="#DejaVuSans-20" x="782.763672"/>
     <use xlink:href="#DejaVuSans-6d" x="814.550781"/>
     <use xlink:href="#DejaVuSans-e9" x="911.962891"/>
     <use xlink:href="#DejaVuSans-64" x="973.486328"/>
     <use xlink:href="#DejaVuSans-69" x="1036.962891"/>
     <use xlink:href="#DejaVuSans-61" x="1064.746094"/>
    </g>
   </g>
   <g id="legend_1">
    <g id="patch_91">
     <path d="M 263.68048 91.971345 
L 391.346105 91.971345 
Q 393.346105 91.971345 393.346105 89.971345 
L 393.346105 46.93697 
Q 393.346105 44.93697 391.346105 44.93697 
L 263.68048 44.93697 
Q 261.68048 44.93697 261.68048 46.93697 
L 261.68048 89.971345 
Q 261.68048 91.971345 263.68048 91.971345 
z
" style="fill: #ffffff; opacity: 0.8; stroke: #cccccc; stroke-linejoin: miter"/>
    </g>
    <g id="line2d_15">
     <path d="M 265.68048 53.035408 
L 275.68048 53.035408 
L 285.68048 53.035408 
" style="fill: none; stroke: #1f77b4; stroke-width: 1.5; stroke-linecap: square"/>
    </g>
    <g id="text_13">
     <!-- Linha de tendência -->
     <g transform="translate(293.68048 56.535408)scale(0.1 -0.1)">
      <defs>
       <path id="DejaVuSans-4c" d="M 628 4666 
L 1259 4666 
L 1259 531 
L 3531 531 
L 3531 0 
L 628 0 
L 628 4666 
z
" transform="scale(0.015625)"/>
       <path id="DejaVuSans-68" d="M 3513 2113 
L 3513 0 
L 2938 0 
L 2938 2094 
Q 2938 2591 2744 2837 
Q 2550 3084 2163 3084 
Q 1697 3084 1428 2787 
Q 1159 2491 1159 1978 
L 1159 0 
L 581 0 
L 581 4863 
L 1159 4863 
L 1159 2956 
Q 1366 3272 1645 3428 
Q 1925 3584 2291 3584 
Q 2894 3584 3203 3211 
Q 3513 2838 3513 2113 
z
" transform="scale(0.015625)"/>
       <path id="DejaVuSans-74" d="M 1172 4494 
L 1172 3500 
L 2356 3500 
L 2356 3053 
L 1172 3053 
L 1172 1153 
Q 1172 725 1289 603 
Q 1406 481 1766 481 
L 2356 481 
L 2356 0 
L 1766 0 
Q 1100 0 847 248 
Q 594 497 594 1153 
L 594 3053 
L 172 3053 
L 172 3500 
L 594 3500 
L 594 4494 
L 1172 4494 
z
" transform="scale(0.015625)"/>
       <path id="DejaVuSans-ea" d="M 3597 1894 
L 3597 1613 
L 953 1613 
Q 991 1019 1311 708 
Q 1631 397 2203 397 
Q 2534 397 2845 478 
Q 3156 559 3463 722 
L 3463 178 
Q 3153 47 2828 -22 
Q 2503 -91 2169 -91 
Q 1331 -91 842 396 
Q 353 884 353 1716 
Q 353 2575 817 3079 
Q 1281 3584 2069 3584 
Q 2775 3584 3186 3129 
Q 3597 2675 3597 1894 
z
M 3022 2063 
Q 3016 2534 2758 2815 
Q 2500 3097 2075 3097 
Q 1594 3097 1305 2825 
Q 1016 2553 972 2059 
L 3022 2063 
z
M 1803 5119 
L 2266 5119 
L 3031 3944 
L 2597 3944 
L 2034 4709 
L 1472 3944 
L 1038 3944 
L 1803 5119 
z
" transform="scale(0.015625)"/>
       <path id="DejaVuSans-63" d="M 3122 3366 
L 3122 2828 
Q 2878 2963 2633 3030 
Q 2388 3097 2138 3097 
Q 1578 3097 1268 2742 
Q 959 2388 959 1747 
Q 959 1106 1268 751 
Q 1578 397 2138 397 
Q 2388 397 2633 464 
Q 2878 531 3122 666 
L 3122 134 
Q 2881 22 2623 -34 
Q 2366 -91 2075 -91 
Q 1284 -91 818 406 
Q 353 903 353 1747 
Q 353 2603 823 3093 
Q 1294 3584 2113 3584 
Q 2378 3584 2631 3529 
Q 2884 3475 3122 3366 
z
" transform="scale(0.015625)"/>
      </defs>
      <use xlink:href="#DejaVuSans-4c"/>
      <use xlink:href="#DejaVuSans-69" x="55.712891"/>
      <use xlink:href="#DejaVuSans-6e" x="83.496094"/>
      <use xlink:href="#DejaVuSans-68" x="146.875"/>
      <use xlink:href="#DejaVuSans-61" x="210.253906"/>
      <use xlink:href="#DejaVuSans-20" x="271.533203"/>
      <use xlink:href="#DejaVuSans-64" x="303.320312"/>
      <use xlink:href="#DejaVuSans-65" x="366.796875"/>
      <use xlink:href="#DejaVuSans-20" x="428.320312"/>
      <use xlink:href="#DejaVuSans-74" x="460.107422"/>
      <use xlink:href="#DejaVuSans-65" x="499.316406"/>
      <use xlink:href="#DejaVuSans-6e" x="560.839844"/>
      <use xlink:href="#DejaVuSans-64" x="624.21875"/>
      <use xlink:href="#DejaVuSans-ea" x="687.695312"/>
      <use xlink:href="#DejaVuSans-6e" x="749.21875"/>
      <use xlink:href="#DejaVuSans-63" x="812.597656"/>
      <use xlink:href="#DejaVuSans-69" x="867.578125"/>
      <use xlink:href="#DejaVuSans-61" x="895.361328"/>
     </g>
    </g>
    <g id="line2d_16">
     <path d="M 265.68048 67.713533 
L 275.68048 67.713533 
L 285.68048 67.713533 
" style="fill: none; stroke: #d62728; stroke-width: 2; stroke-linecap: square"/>
    </g>
    <g id="text_14">
     <!-- Mediana (1846.4) -->
     <g transform="translate(293.68048 71.213533)scale(0.1 -0.1)">
      <defs>
       <path id="DejaVuSans-4d" d="M 628 4666 
L 1569 4666 
L 2759 1491 
L 3956 4666 
L 4897 4666 
L 4897 0 
L 4281 0 
L 4281 4097 
L 3078 897 
L 2444 897 
L 1241 4097 
L 1241 0 
L 628 0 
L 628 4666 
z
" transform="scale(0.015625)"/>
       <path id="DejaVuSans-28" d="M 1984 4856 
Q 1566 4138 1362 3434 
Q 1159 2731 1159 2009 
Q 1159 1288 1364 580 
Q 1569 -128 1984 -844 
L 1484 -844 
Q 1016 -109 783 600 
Q 550 1309 550 2009 
Q 550 2706 781 3412 
Q 1013 4119 1484 4856 
L 1984 4856 
z
" transform="scale(0.015625)"/>
       <path id="DejaVuSans-2e" d="M 684 794 
L 1344 794 
L 1344 0 
L 684 0 
L 684 794 
z
" transform="scale(0.015625)"/>
       <path id="DejaVuSans-29" d="M 513 4856 
L 1013 4856 
Q 1481 4119 1714 3412 
Q 1947 2706 1947 2009 
Q 1947 1309 1714 600 
Q 1481 -109 1013 -844 
L 513 -844 
Q 928 -128 1133 580 
Q 1338 1288 1338 2009 
Q 1338 2731 1133 3434 
Q 928 4138 513 4856 
z
" transform="scale(0.015625)"/>
      </defs>
      <use xlink:href="#DejaVuSans-4d"/>
      <use xlink:href="#DejaVuSans-65" x="86.279297"/>
      <use xlink:href="#DejaVuSans-64" x="147.802734"/>
      <use xlink:href="#DejaVuSans-69" x="211.279297"/>
      <use xlink:href="#DejaVuSans-61" x="239.0625"/>
      <use xlink:href="#DejaVuSans-6e" x="300.341797"/>
      <use xlink:href="#DejaVuSans-61" x="363.720703"/>
      <use xlink:href="#DejaVuSans-20" x="425"/>
      <use xlink:href="#DejaVuSans-28" x="456.787109"/>
      <use xlink:href="#DejaVuSans-31" x="495.800781"/>
      <use xlink:href="#DejaVuSans-38" x="559.423828"/>
      <use xlink:href="#DejaVuSans-34" x="623.046875"/>
      <use xlink:href="#DejaVuSans-36" x="686.669922"/>
      <use xlink:href="#DejaVuSans-2e" x="750.292969"/>
      <use xlink:href="#DejaVuSans-34" x="782.080078"/>
      <use xlink:href="#DejaVuSans-29" x="845.703125"/>
     </g>
    </g>
    <g id="line2d_17">
     <path d="M 265.68048 82.391658 
L 275.68048 82.391658 
L 285.68048 82.391658 
" style="fill: none; stroke: #bcbd22; stroke-width: 2; stroke-linecap: square"/>
    </g>
    <g id="text_15">
     <!-- Média (8353.4) -->
     <g transform="translate(293.68048 85.891658)scale(0.1 -0.1)">
      <defs>
       <path id="DejaVuSans-33" d="M 2597 2516 
Q 3050 2419 3304 2112 
Q 3559 1806 3559 1356 
Q 3559 666 3084 287 
Q 2609 -91 1734 -91 
Q 1441 -91 1130 -33 
Q 819 25 488 141 
L 488 750 
Q 750 597 1062 519 
Q 1375 441 1716 441 
Q 2309 441 2620 675 
Q 2931 909 2931 1356 
Q 2931 1769 2642 2001 
Q 2353 2234 1838 2234 
L 1294 2234 
L 1294 2753 
L 1863 2753 
Q 2328 2753 2575 2939 
Q 2822 3125 2822 3475 
Q 2822 3834 2567 4026 
Q 2313 4219 1838 4219 
Q 1578 4219 1281 4162 
Q 984 4106 628 3988 
L 628 4550 
Q 988 4650 1302 4700 
Q 1616 4750 1894 4750 
Q 2613 4750 3031 4423 
Q 3450 4097 3450 3541 
Q 3450 3153 3228 2886 
Q 3006 2619 2597 2516 
z
" transform="scale(0.015625)"/>
      </defs>
      <use xlink:href="#DejaVuSans-4d"/>
      <use xlink:href="#DejaVuSans-e9" x="86.279297"/>
      <use xlink:href="#DejaVuSans-64" x="147.802734"/>
      <use xlink:href="#DejaVuSans-69" x="211.279297"/>
      <use xlink:href="#DejaVuSans-61" x="239.0625"/>
      <use xlink:href="#DejaVuSans-20" x="300.341797"/>
      <use xlink:href="#DejaVuSans-28" x="332.128906"/>
      <use xlink:href="#DejaVuSans-38" x="371.142578"/>
      <use xlink:href="#DejaVuSans-33" x="434.765625"/>
      <use xlink:href="#DejaVuSans-35" x="498.388672"/>
      <use xlink:href="#DejaVuSans-33" x="562.011719"/>
      <use xlink:href="#DejaVuSans-2e" x="625.634766"/>
      <use xlink:href="#DejaVuSans-34" x="657.421875"/>
      <use xlink:href="#DejaVuSans-29" x="721.044922"/>
     </g>
    </g>
   </g>
  </g>
  <g id="axes_2">
   <g id="patch_92">
    <path d="M 646.652115 322.707405 
L 1220.99976 322.707405 
L 1220.99976 39.93697 
L 646.652115 39.93697 
z
" style="fill: #ffffff"/>
   </g>
   <g id="patch_93">
    <path d="M 672.758826 322.707405 
L 682.996752 322.707405 
L 682.996752 270.917948 
L 672.758826 270.917948 
z
" clip-path="url(#p49ffd940ae)" style="fill: #1f77b4; fill-opacity: 0.5; stroke: #000000; stroke-width: 0.768595; stroke-linejoin: miter"/>
   </g>
   <g id="patch_94">
    <path d="M 682.996752 322.707405 
L 693.234678 322.707405 
L 693.234678 312.349514 
L 682.996752 312.349514 
z
" clip-path="url(#p49ffd940ae)" style="fill: #1f77b4; fill-opacity: 0.5; stroke: #000000; stroke-width: 0.768595; stroke-linejoin: miter"/>
   </g>
   <g id="patch_95">
    <path d="M 693.234678 322.707405 
L 703.472604 322.707405 
L 703.472604 301.991622 
L 693.234678 301.991622 
z
" clip-path="url(#p49ffd940ae)" style="fill: #1f77b4; fill-opacity: 0.5; stroke: #000000; stroke-width: 0.768595; stroke-linejoin: miter"/>
   </g>
   <g id="patch_96">
    <path d="M 703.472604 322.707405 
L 713.71053 322.707405 
L 713.71053 281.275839 
L 703.472604 281.275839 
z
" clip-path="url(#p49ffd940ae)" style="fill: #1f77b4; fill-opacity: 0.5; stroke: #000000; stroke-width: 0.768595; stroke-linejoin: miter"/>
   </g>
   <g id="patch_97">
    <path d="M 713.71053 322.707405 
L 723.948456 322.707405 
L 723.948456 312.349514 
L 713.71053 312.349514 
z
" clip-path="url(#p49ffd940ae)" style="fill: #1f77b4; fill-opacity: 0.5; stroke: #000000; stroke-width: 0.768595; stroke-linejoin: miter"/>
   </g>
   <g id="patch_98">
    <path d="M 723.948456 322.707405 
L 734.186382 322.707405 
L 734.186382 260.560057 
L 723.948456 260.560057 
z
" clip-path="url(#p49ffd940ae)" style="fill: #1f77b4; fill-opacity: 0.5; stroke: #000000; stroke-width: 0.768595; stroke-linejoin: miter"/>
   </g>
   <g id="patch_99">
    <path d="M 734.186382 322.707405 
L 744.424308 322.707405 
L 744.424308 115.549577 
L 734.186382 115.549577 
z
" clip-path="url(#p49ffd940ae)" style="fill: #1f77b4; fill-opacity: 0.5; stroke: #000000; stroke-width: 0.768595; stroke-linejoin: miter"/>
   </g>
   <g id="patch_100">
    <path d="M 744.424308 322.707405 
L 754.662234 322.707405 
L 754.662234 198.412708 
L 744.424308 198.412708 
z
" clip-path="url(#p49ffd940ae)" style="fill: #1f77b4; fill-opacity: 0.5; stroke: #000000; stroke-width: 0.768595; stroke-linejoin: miter"/>
   </g>
   <g id="patch_101">
    <path d="M 754.662234 322.707405 
L 764.90016 322.707405 
L 764.90016 115.549577 
L 754.662234 115.549577 
z
" clip-path="url(#p49ffd940ae)" style="fill: #1f77b4; fill-opacity: 0.5; stroke: #000000; stroke-width: 0.768595; stroke-linejoin: miter"/>
   </g>
   <g id="patch_102">
    <path d="M 764.90016 322.707405 
L 775.138085 322.707405 
L 775.138085 74.118012 
L 764.90016 74.118012 
z
" clip-path="url(#p49ffd940ae)" style="fill: #1f77b4; fill-opacity: 0.5; stroke: #000000; stroke-width: 0.768595; stroke-linejoin: miter"/>
   </g>
   <g id="patch_103">
    <path d="M 775.138085 322.707405 
L 785.376011 322.707405 
L 785.376011 188.054817 
L 775.138085 188.054817 
z
" clip-path="url(#p49ffd940ae)" style="fill: #1f77b4; fill-opacity: 0.5; stroke: #000000; stroke-width: 0.768595; stroke-linejoin: miter"/>
   </g>
   <g id="patch_104">
    <path d="M 785.376011 322.707405 
L 795.613937 322.707405 
L 795.613937 94.833794 
L 785.376011 94.833794 
z
" clip-path="url(#p49ffd940ae)" style="fill: #1f77b4; fill-opacity: 0.5; stroke: #000000; stroke-width: 0.768595; stroke-linejoin: miter"/>
   </g>
   <g id="patch_105">
    <path d="M 795.613937 322.707405 
L 805.851863 322.707405 
L 805.851863 146.623251 
L 795.613937 146.623251 
z
" clip-path="url(#p49ffd940ae)" style="fill: #1f77b4; fill-opacity: 0.5; stroke: #000000; stroke-width: 0.768595; stroke-linejoin: miter"/>
   </g>
   <g id="patch_106">
    <path d="M 805.851863 322.707405 
L 816.089789 322.707405 
L 816.089789 53.402229 
L 805.851863 53.402229 
z
" clip-path="url(#p49ffd940ae)" style="fill: #1f77b4; fill-opacity: 0.5; stroke: #000000; stroke-width: 0.768595; stroke-linejoin: miter"/>
   </g>
   <g id="patch_107">
    <path d="M 816.089789 322.707405 
L 826.327715 322.707405 
L 826.327715 198.412708 
L 816.089789 198.412708 
z
" clip-path="url(#p49ffd940ae)" style="fill: #1f77b4; fill-opacity: 0.5; stroke: #000000; stroke-width: 0.768595; stroke-linejoin: miter"/>
   </g>
   <g id="patch_108">
    <path d="M 826.327715 322.707405 
L 836.565641 322.707405 
L 836.565641 156.981143 
L 826.327715 156.981143 
z
" clip-path="url(#p49ffd940ae)" style="fill: #1f77b4; fill-opacity: 0.5; stroke: #000000; stroke-width: 0.768595; stroke-linejoin: miter"/>
   </g>
   <g id="patch_109">
    <path d="M 836.565641 322.707405 
L 846.803567 322.707405 
L 846.803567 125.907469 
L 836.565641 125.907469 
z
" clip-path="url(#p49ffd940ae)" style="fill: #1f77b4; fill-opacity: 0.5; stroke: #000000; stroke-width: 0.768595; stroke-linejoin: miter"/>
   </g>
   <g id="patch_110">
    <path d="M 846.803567 322.707405 
L 857.041493 322.707405 
L 857.041493 84.475903 
L 846.803567 84.475903 
z
" clip-path="url(#p49ffd940ae)" style="fill: #1f77b4; fill-opacity: 0.5; stroke: #000000; stroke-width: 0.768595; stroke-linejoin: miter"/>
   </g>
   <g id="patch_111">
    <path d="M 857.041493 322.707405 
L 867.279419 322.707405 
L 867.279419 198.412708 
L 857.041493 198.412708 
z
" clip-path="url(#p49ffd940ae)" style="fill: #1f77b4; fill-opacity: 0.5; stroke: #000000; stroke-width: 0.768595; stroke-linejoin: miter"/>
   </g>
   <g id="patch_112">
    <path d="M 867.279419 322.707405 
L 877.517345 322.707405 
L 877.517345 136.26536 
L 867.279419 136.26536 
z
" clip-path="url(#p49ffd940ae)" style="fill: #1f77b4; fill-opacity: 0.5; stroke: #000000; stroke-width: 0.768595; stroke-linejoin: miter"/>
   </g>
   <g id="patch_113">
    <path d="M 877.517345 322.707405 
L 887.755271 322.707405 
L 887.755271 74.118012 
L 877.517345 74.118012 
z
" clip-path="url(#p49ffd940ae)" style="fill: #1f77b4; fill-opacity: 0.5; stroke: #000000; stroke-width: 0.768595; stroke-linejoin: miter"/>
   </g>
   <g id="patch_114">
    <path d="M 887.755271 322.707405 
L 897.993197 322.707405 
L 897.993197 146.623251 
L 887.755271 146.623251 
z
" clip-path="url(#p49ffd940ae)" style="fill: #1f77b4; fill-opacity: 0.5; stroke: #000000; stroke-width: 0.768595; stroke-linejoin: miter"/>
   </g>
   <g id="patch_115">
    <path d="M 897.993197 322.707405 
L 908.231123 322.707405 
L 908.231123 125.907469 
L 897.993197 125.907469 
z
" clip-path="url(#p49ffd940ae)" style="fill: #1f77b4; fill-opacity: 0.5; stroke: #000000; stroke-width: 0.768595; stroke-linejoin: miter"/>
   </g>
   <g id="patch_116">
    <path d="M 908.231123 322.707405 
L 918.469049 322.707405 
L 918.469049 208.7706 
L 908.231123 208.7706 
z
" clip-path="url(#p49ffd940ae)" style="fill: #1f77b4; fill-opacity: 0.5; stroke: #000000; stroke-width: 0.768595; stroke-linejoin: miter"/>
   </g>
   <g id="patch_117">
    <path d="M 918.469049 322.707405 
L 928.706975 322.707405 
L 928.706975 229.486382 
L 918.469049 229.486382 
z
" clip-path="url(#p49ffd940ae)" style="fill: #1f77b4; fill-opacity: 0.5; stroke: #000000; stroke-width: 0.768595; stroke-linejoin: miter"/>
   </g>
   <g id="patch_118">
    <path d="M 928.706975 322.707405 
L 938.9449 322.707405 
L 938.9449 219.128491 
L 928.706975 219.128491 
z
" clip-path="url(#p49ffd940ae)" style="fill: #1f77b4; fill-opacity: 0.5; stroke: #000000; stroke-width: 0.768595; stroke-linejoin: miter"/>
   </g>
   <g id="patch_119">
    <path d="M 938.9449 322.707405 
L 949.182826 322.707405 
L 949.182826 250.202165 
L 938.9449 250.202165 
z
" clip-path="url(#p49ffd940ae)" style="fill: #1f77b4; fill-opacity: 0.5; stroke: #000000; stroke-width: 0.768595; stroke-linejoin: miter"/>
   </g>
   <g id="patch_120">
    <path d="M 949.182826 322.707405 
L 959.420752 322.707405 
L 959.420752 260.560057 
L 949.182826 260.560057 
z
" clip-path="url(#p49ffd940ae)" style="fill: #1f77b4; fill-opacity: 0.5; stroke: #000000; stroke-width: 0.768595; stroke-linejoin: miter"/>
   </g>
   <g id="patch_121">
    <path d="M 959.420752 322.707405 
L 969.658678 322.707405 
L 969.658678 281.275839 
L 959.420752 281.275839 
z
" clip-path="url(#p49ffd940ae)" style="fill: #1f77b4; fill-opacity: 0.5; stroke: #000000; stroke-width: 0.768595; stroke-linejoin: miter"/>
   </g>
   <g id="patch_122">
    <path d="M 969.658678 322.707405 
L 979.896604 322.707405 
L 979.896604 239.844274 
L 969.658678 239.844274 
z
" clip-path="url(#p49ffd940ae)" style="fill: #1f77b4; fill-opacity: 0.5; stroke: #000000; stroke-width: 0.768595; stroke-linejoin: miter"/>
   </g>
   <g id="patch_123">
    <path d="M 979.896604 322.707405 
L 990.13453 322.707405 
L 990.13453 281.275839 
L 979.896604 281.275839 
z
" clip-path="url(#p49ffd940ae)" style="fill: #1f77b4; fill-opacity: 0.5; stroke: #000000; stroke-width: 0.768595; stroke-linejoin: miter"/>
   </g>
   <g id="patch_124">
    <path d="M 990.13453 322.707405 
L 1000.372456 322.707405 
L 1000.372456 270.917948 
L 990.13453 270.917948 
z
" clip-path="url(#p49ffd940ae)" style="fill: #1f77b4; fill-opacity: 0.5; stroke: #000000; stroke-width: 0.768595; stroke-linejoin: miter"/>
   </g>
   <g id="patch_125">
    <path d="M 1000.372456 322.707405 
L 1010.610382 322.707405 
L 1010.610382 270.917948 
L 1000.372456 270.917948 
z
" clip-path="url(#p49ffd940ae)" style="fill: #1f77b4; fill-opacity: 0.5; stroke: #000000; stroke-width: 0.768595; stroke-linejoin: miter"/>
   </g>
   <g id="patch_126">
    <path d="M 1010.610382 322.707405 
L 1020.848308 322.707405 
L 1020.848308 239.844274 
L 1010.610382 239.844274 
z
" clip-path="url(#p49ffd940ae)" style="fill: #1f77b4; fill-opacity: 0.5; stroke: #000000; stroke-width: 0.768595; stroke-linejoin: miter"/>
   </g>
   <g id="patch_127">
    <path d="M 1020.848308 322.707405 
L 1031.086234 322.707405 
L 1031.086234 281.275839 
L 1020.848308 281.275839 
z
" clip-path="url(#p49ffd940ae)" style="fill: #1f77b4; fill-opacity: 0.5; stroke: #000000; stroke-width: 0.768595; stroke-linejoin: miter"/>
   </g>
   <g id="patch_128">
    <path d="M 1031.086234 322.707405 
L 1041.32416 322.707405 
L 1041.32416 250.202165 
L 1031.086234 250.202165 
z
" clip-path="url(#p49ffd940ae)" style="fill: #1f77b4; fill-opacity: 0.5; stroke: #000000; stroke-width: 0.768595; stroke-linejoin: miter"/>
   </g>
   <g id="patch_129">
    <path d="M 1041.32416 322.707405 
L 1051.562086 322.707405 
L 1051.562086 281.275839 
L 1041.32416 281.275839 
z
" clip-path="url(#p49ffd940ae)" style="fill: #1f77b4; fill-opacity: 0.5; stroke: #000000; stroke-width: 0.768595; stroke-linejoin: miter"/>
   </g>
   <g id="patch_130">
    <path d="M 1051.562086 322.707405 
L 1061.800012 322.707405 
L 1061.800012 270.917948 
L 1051.562086 270.917948 
z
" clip-path="url(#p49ffd940ae)" style="fill: #1f77b4; fill-opacity: 0.5; stroke: #000000; stroke-width: 0.768595; stroke-linejoin: miter"/>
   </g>
   <g id="patch_131">
    <path d="M 1061.800012 322.707405 
L 1072.037938 322.707405 
L 1072.037938 291.633731 
L 1061.800012 291.633731 
z
" clip-path="url(#p49ffd940ae)" style="fill: #1f77b4; fill-opacity: 0.5; stroke: #000000; stroke-width: 0.768595; stroke-linejoin: miter"/>
   </g>
   <g id="patch_132">
    <path d="M 1072.037938 322.707405 
L 1082.275864 322.707405 
L 1082.275864 260.560057 
L 1072.037938 260.560057 
z
" clip-path="url(#p49ffd940ae)" style="fill: #1f77b4; fill-opacity: 0.5; stroke: #000000; stroke-width: 0.768595; stroke-linejoin: miter"/>
   </g>
   <g id="patch_133">
    <path d="M 1082.275864 322.707405 
L 1092.51379 322.707405 
L 1092.51379 322.707405 
L 1082.275864 322.707405 
z
" clip-path="url(#p49ffd940ae)" style="fill: #1f77b4; fill-opacity: 0.5; stroke: #000000; stroke-width: 0.768595; stroke-linejoin: miter"/>
   </g>
   <g id="patch_134">
    <path d="M 1092.51379 322.707405 
L 1102.751715 322.707405 
L 1102.751715 322.707405 
L 1092.51379 322.707405 
z
" clip-path="url(#p49ffd940ae)" style="fill: #1f77b4; fill-opacity: 0.5; stroke: #000000; stroke-width: 0.768595; stroke-linejoin: miter"/>
   </g>
   <g id="patch_135">
    <path d="M 1102.751715 322.707405 
L 1112.989641 322.707405 
L 1112.989641 322.707405 
L 1102.751715 322.707405 
z
" clip-path="url(#p49ffd940ae)" style="fill: #1f77b4; fill-opacity: 0.5; stroke: #000000; stroke-width: 0.768595; stroke-linejoin: miter"/>
   </g>
   <g id="patch_136">
    <path d="M 1112.989641 322.707405 
L 1123.227567 322.707405 
L 1123.227567 322.707405 
L 1112.989641 322.707405 
z
" clip-path="url(#p49ffd940ae)" style="fill: #1f77b4; fill-opacity: 0.5; stroke: #000000; stroke-width: 0.768595; stroke-linejoin: miter"/>
   </g>
   <g id="patch_137">
    <path d="M 1123.227567 322.707405 
L 1133.465493 322.707405 
L 1133.465493 301.991622 
L 1123.227567 301.991622 
z
" clip-path="url(#p49ffd940ae)" style="fill: #1f77b4; fill-opacity: 0.5; stroke: #000000; stroke-width: 0.768595; stroke-linejoin: miter"/>
   </g>
   <g id="patch_138">
    <path d="M 1133.465493 322.707405 
L 1143.703419 322.707405 
L 1143.703419 312.349514 
L 1133.465493 312.349514 
z
" clip-path="url(#p49ffd940ae)" style="fill: #1f77b4; fill-opacity: 0.5; stroke: #000000; stroke-width: 0.768595; stroke-linejoin: miter"/>
   </g>
   <g id="patch_139">
    <path d="M 1143.703419 322.707405 
L 1153.941345 322.707405 
L 1153.941345 301.991622 
L 1143.703419 301.991622 
z
" clip-path="url(#p49ffd940ae)" style="fill: #1f77b4; fill-opacity: 0.5; stroke: #000000; stroke-width: 0.768595; stroke-linejoin: miter"/>
   </g>
   <g id="patch_140">
    <path d="M 1153.941345 322.707405 
L 1164.179271 322.707405 
L 1164.179271 291.633731 
L 1153.941345 291.633731 
z
" clip-path="url(#p49ffd940ae)" style="fill: #1f77b4; fill-opacity: 0.5; stroke: #000000; stroke-width: 0.768595; stroke-linejoin: miter"/>
   </g>
   <g id="patch_141">
    <path d="M 1164.179271 322.707405 
L 1174.417197 322.707405 
L 1174.417197 291.633731 
L 1164.179271 291.633731 
z
" clip-path="url(#p49ffd940ae)" style="fill: #1f77b4; fill-opacity: 0.5; stroke: #000000; stroke-width: 0.768595; stroke-linejoin: miter"/>
   </g>
   <g id="patch_142">
    <path d="M 1174.417197 322.707405 
L 1184.655123 322.707405 
L 1184.655123 312.349514 
L 1174.417197 312.349514 
z
" clip-path="url(#p49ffd940ae)" style="fill: #1f77b4; fill-opacity: 0.5; stroke: #000000; stroke-width: 0.768595; stroke-linejoin: miter"/>
   </g>
   <g id="patch_143">
    <path d="M 1184.655123 322.707405 
L 1194.893049 322.707405 
L 1194.893049 291.633731 
L 1184.655123 291.633731 
z
" clip-path="url(#p49ffd940ae)" style="fill: #1f77b4; fill-opacity: 0.5; stroke: #000000; stroke-width: 0.768595; stroke-linejoin: miter"/>
   </g>
   <g id="matplotlib.axis_3">
    <g id="xtick_6">
     <g id="line2d_18">
      <g>
       <use xlink:href="#md0c209a088" x="672.758826" y="322.707405" style="stroke: #000000; stroke-width: 0.8"/>
      </g>
     </g>
     <g id="text_16">
      <!-- 0 -->
      <g transform="translate(669.577576 337.305842)scale(0.1 -0.1)">
       <use xlink:href="#DejaVuSans-30"/>
      </g>
     </g>
    </g>
    <g id="xtick_7">
     <g id="line2d_19">
      <g>
       <use xlink:href="#md0c209a088" x="775.138085" y="322.707405" style="stroke: #000000; stroke-width: 0.8"/>
      </g>
     </g>
     <g id="text_17">
      <!-- 1000 -->
      <g transform="translate(762.413085 337.305842)scale(0.1 -0.1)">
       <use xlink:href="#DejaVuSans-31"/>
       <use xlink:href="#DejaVuSans-30" x="63.623047"/>
       <use xlink:href="#DejaVuSans-30" x="127.246094"/>
       <use xlink:href="#DejaVuSans-30" x="190.869141"/>
      </g>
     </g>
    </g>
    <g id="xtick_8">
     <g id="line2d_20">
      <g>
       <use xlink:href="#md0c209a088" x="877.517345" y="322.707405" style="stroke: #000000; stroke-width: 0.8"/>
      </g>
     </g>
     <g id="text_18">
      <!-- 2000 -->
      <g transform="translate(864.792345 337.305842)scale(0.1 -0.1)">
       <use xlink:href="#DejaVuSans-32"/>
       <use xlink:href="#DejaVuSans-30" x="63.623047"/>
       <use xlink:href="#DejaVuSans-30" x="127.246094"/>
       <use xlink:href="#DejaVuSans-30" x="190.869141"/>
      </g>
     </g>
    </g>
    <g id="xtick_9">
     <g id="line2d_21">
      <g>
       <use xlink:href="#md0c209a088" x="979.896604" y="322.707405" style="stroke: #000000; stroke-width: 0.8"/>
      </g>
     </g>
     <g id="text_19">
      <!-- 3000 -->
      <g transform="translate(967.171604 337.305842)scale(0.1 -0.1)">
       <use xlink:href="#DejaVuSans-33"/>
       <use xlink:href="#DejaVuSans-30" x="63.623047"/>
       <use xlink:href="#DejaVuSans-30" x="127.246094"/>
       <use xlink:href="#DejaVuSans-30" x="190.869141"/>
      </g>
     </g>
    </g>
    <g id="xtick_10">
     <g id="line2d_22">
      <g>
       <use xlink:href="#md0c209a088" x="1082.275864" y="322.707405" style="stroke: #000000; stroke-width: 0.8"/>
      </g>
     </g>
     <g id="text_20">
      <!-- 4000 -->
      <g transform="translate(1069.550864 337.305842)scale(0.1 -0.1)">
       <use xlink:href="#DejaVuSans-34"/>
       <use xlink:href="#DejaVuSans-30" x="63.623047"/>
       <use xlink:href="#DejaVuSans-30" x="127.246094"/>
       <use xlink:href="#DejaVuSans-30" x="190.869141"/>
      </g>
     </g>
    </g>
    <g id="xtick_11">
     <g id="line2d_23">
      <g>
       <use xlink:href="#md0c209a088" x="1184.655123" y="322.707405" style="stroke: #000000; stroke-width: 0.8"/>
      </g>
     </g>
     <g id="text_21">
      <!-- 5000 -->
      <g transform="translate(1171.930123 337.305842)scale(0.1 -0.1)">
       <use xlink:href="#DejaVuSans-35"/>
       <use xlink:href="#DejaVuSans-30" x="63.623047"/>
       <use xlink:href="#DejaVuSans-30" x="127.246094"/>
       <use xlink:href="#DejaVuSans-30" x="190.869141"/>
      </g>
     </g>
    </g>
   </g>
   <g id="matplotlib.axis_4">
    <g id="ytick_7">
     <g id="line2d_24">
      <g>
       <use xlink:href="#m2b1140b1fd" x="646.652115" y="322.707405" style="stroke: #000000; stroke-width: 0.8"/>
      </g>
     </g>
     <g id="text_22">
      <!-- 0 -->
      <g transform="translate(633.289615 326.506624)scale(0.1 -0.1)">
       <use xlink:href="#DejaVuSans-30"/>
      </g>
     </g>
    </g>
    <g id="ytick_8">
     <g id="line2d_25">
      <g>
       <use xlink:href="#m2b1140b1fd" x="646.652115" y="270.917948" style="stroke: #000000; stroke-width: 0.8"/>
      </g>
     </g>
     <g id="text_23">
      <!-- 5 -->
      <g transform="translate(633.289615 274.717167)scale(0.1 -0.1)">
       <use xlink:href="#DejaVuSans-35"/>
      </g>
     </g>
    </g>
    <g id="ytick_9">
     <g id="line2d_26">
      <g>
       <use xlink:href="#m2b1140b1fd" x="646.652115" y="219.128491" style="stroke: #000000; stroke-width: 0.8"/>
      </g>
     </g>
     <g id="text_24">
      <!-- 10 -->
      <g transform="translate(626.927115 222.92771)scale(0.1 -0.1)">
       <use xlink:href="#DejaVuSans-31"/>
       <use xlink:href="#DejaVuSans-30" x="63.623047"/>
      </g>
     </g>
    </g>
    <g id="ytick_10">
     <g id="line2d_27">
      <g>
       <use xlink:href="#m2b1140b1fd" x="646.652115" y="167.339034" style="stroke: #000000; stroke-width: 0.8"/>
      </g>
     </g>
     <g id="text_25">
      <!-- 15 -->
      <g transform="translate(626.927115 171.138253)scale(0.1 -0.1)">
       <use xlink:href="#DejaVuSans-31"/>
       <use xlink:href="#DejaVuSans-35" x="63.623047"/>
      </g>
     </g>
    </g>
    <g id="ytick_11">
     <g id="line2d_28">
      <g>
       <use xlink:href="#m2b1140b1fd" x="646.652115" y="115.549577" style="stroke: #000000; stroke-width: 0.8"/>
      </g>
     </g>
     <g id="text_26">
      <!-- 20 -->
      <g transform="translate(626.927115 119.348796)scale(0.1 -0.1)">
       <use xlink:href="#DejaVuSans-32"/>
       <use xlink:href="#DejaVuSans-30" x="63.623047"/>
      </g>
     </g>
    </g>
    <g id="ytick_12">
     <g id="line2d_29">
      <g>
       <use xlink:href="#m2b1140b1fd" x="646.652115" y="63.76012" style="stroke: #000000; stroke-width: 0.8"/>
      </g>
     </g>
     <g id="text_27">
      <!-- 25 -->
      <g transform="translate(626.927115 67.559339)scale(0.1 -0.1)">
       <use xlink:href="#DejaVuSans-32"/>
       <use xlink:href="#DejaVuSans-35" x="63.623047"/>
      </g>
     </g>
    </g>
   </g>
   <g id="line2d_30">
    <path d="M 674.499274 302.458608 
L 677.114132 300.589445 
L 679.728991 298.578881 
L 682.34385 296.415425 
L 684.958709 294.087133 
L 687.573568 291.581898 
L 690.188427 288.887799 
L 692.803286 285.993498 
L 695.418145 282.888671 
L 698.033004 279.56447 
L 700.647862 276.013984 
L 703.262721 272.232696 
L 705.87758 268.218906 
L 708.492439 263.974109 
L 713.722157 254.815219 
L 718.951875 244.841485 
L 724.181592 234.199682 
L 732.026169 217.44212 
L 742.485605 194.987224 
L 747.715322 184.338786 
L 752.94504 174.41891 
L 755.559899 169.798493 
L 758.174758 165.4329 
L 760.789617 161.338655 
L 763.404476 157.528229 
L 766.019335 154.010014 
L 768.634194 150.788401 
L 771.249052 147.863953 
L 773.863911 145.233657 
L 776.47877 142.89124 
L 779.093629 140.827543 
L 781.708488 139.030911 
L 784.323347 137.487613 
L 786.938206 136.182254 
L 789.553065 135.098176 
L 792.167924 134.217834 
L 794.782782 133.523146 
L 797.397641 132.995806 
L 800.0125 132.617558 
L 802.627359 132.370441 
L 807.857077 132.20045 
L 813.086795 132.355322 
L 820.931371 132.950851 
L 847.07996 135.536416 
L 852.309678 136.162782 
L 857.539396 136.985321 
L 862.769114 138.129927 
L 865.383972 138.867024 
L 867.998831 139.738401 
L 870.61369 140.762183 
L 873.228549 141.955763 
L 875.843408 143.335292 
L 878.458267 144.915181 
L 881.073126 146.707618 
L 883.687985 148.72212 
L 886.302844 150.965149 
L 888.917702 153.439793 
L 891.532561 156.145541 
L 894.14742 159.078149 
L 896.762279 162.229619 
L 899.377138 165.588274 
L 904.606856 172.863293 
L 909.836573 180.745808 
L 917.68115 193.27572 
L 928.140586 210.158118 
L 933.370303 218.207627 
L 938.600021 225.764604 
L 943.829739 232.70021 
L 946.444598 235.905567 
L 949.059457 238.925189 
L 951.674316 241.753948 
L 954.289175 244.388935 
L 956.904033 246.829322 
L 959.518892 249.076209 
L 962.133751 251.132469 
L 964.74861 253.002591 
L 967.363469 254.692524 
L 969.978328 256.20953 
L 972.593187 257.562043 
L 975.208046 258.759529 
L 977.822905 259.812361 
L 980.437763 260.731688 
L 985.667481 262.217582 
L 990.897199 263.317329 
L 996.126917 264.135687 
L 1003.971493 265.06564 
L 1014.430929 266.269334 
L 1019.660647 267.050786 
L 1024.890365 268.045256 
L 1030.120082 269.304708 
L 1035.3498 270.865585 
L 1040.579518 272.748258 
L 1045.809236 274.95654 
L 1051.038953 277.477117 
L 1056.268671 280.278981 
L 1061.498389 283.313164 
L 1069.342966 288.150334 
L 1079.802401 294.671163 
L 1085.032119 297.737706 
L 1090.261837 300.541827 
L 1095.491555 302.995934 
L 1100.721272 305.031316 
L 1103.336131 305.877216 
L 1105.95099 306.60423 
L 1108.565849 307.211434 
L 1111.180708 307.699805 
L 1116.410426 308.333263 
L 1121.640143 308.548376 
L 1126.869861 308.41342 
L 1132.099579 308.015194 
L 1139.944156 307.140084 
L 1150.403591 305.978133 
L 1155.633309 305.598004 
L 1160.863027 305.441184 
L 1166.092745 305.549322 
L 1171.322462 305.941738 
L 1176.55218 306.615724 
L 1181.781898 307.54844 
L 1187.011616 308.700212 
L 1194.856192 310.722373 
L 1194.856192 310.722373 
" clip-path="url(#p49ffd940ae)" style="fill: none; stroke: #1f77b4; stroke-width: 1.5; stroke-linecap: square"/>
   </g>
   <g id="line2d_31">
    <path d="M 861.789843 322.707405 
L 861.789843 39.93697 
" clip-path="url(#p49ffd940ae)" style="fill: none; stroke: #d62728; stroke-width: 2; stroke-linecap: square"/>
   </g>
   <g id="patch_144">
    <path d="M 646.652115 322.707405 
L 646.652115 39.93697 
" style="fill: none; stroke: #000000; stroke-width: 0.8; stroke-linejoin: miter; stroke-linecap: square"/>
   </g>
   <g id="patch_145">
    <path d="M 1220.99976 322.707405 
L 1220.99976 39.93697 
" style="fill: none; stroke: #000000; stroke-width: 0.8; stroke-linejoin: miter; stroke-linecap: square"/>
   </g>
   <g id="patch_146">
    <path d="M 646.652115 322.707405 
L 1220.99976 322.707405 
" style="fill: none; stroke: #000000; stroke-width: 0.8; stroke-linejoin: miter; stroke-linecap: square"/>
   </g>
   <g id="patch_147">
    <path d="M 646.652115 39.93697 
L 1220.99976 39.93697 
" style="fill: none; stroke: #000000; stroke-width: 0.8; stroke-linejoin: miter; stroke-linecap: square"/>
   </g>
   <g id="text_28">
    <!-- Considerando apenas a mediana -->
    <g transform="translate(835.094063 29.93697)scale(0.12 -0.12)">
     <defs>
      <path id="DejaVuSans-70" d="M 1159 525 
L 1159 -1331 
L 581 -1331 
L 581 3500 
L 1159 3500 
L 1159 2969 
Q 1341 3281 1617 3432 
Q 1894 3584 2278 3584 
Q 2916 3584 3314 3078 
Q 3713 2572 3713 1747 
Q 3713 922 3314 415 
Q 2916 -91 2278 -91 
Q 1894 -91 1617 61 
Q 1341 213 1159 525 
z
M 3116 1747 
Q 3116 2381 2855 2742 
Q 2594 3103 2138 3103 
Q 1681 3103 1420 2742 
Q 1159 2381 1159 1747 
Q 1159 1113 1420 752 
Q 1681 391 2138 391 
Q 2594 391 2855 752 
Q 3116 1113 3116 1747 
z
" transform="scale(0.015625)"/>
     </defs>
     <use xlink:href="#DejaVuSans-43"/>
     <use xlink:href="#DejaVuSans-6f" x="69.824219"/>
     <use xlink:href="#DejaVuSans-6e" x="131.005859"/>
     <use xlink:href="#DejaVuSans-73" x="194.384766"/>
     <use xlink:href="#DejaVuSans-69" x="246.484375"/>
     <use xlink:href="#DejaVuSans-64" x="274.267578"/>
     <use xlink:href="#DejaVuSans-65" x="337.744141"/>
     <use xlink:href="#DejaVuSans-72" x="399.267578"/>
     <use xlink:href="#DejaVuSans-61" x="440.380859"/>
     <use xlink:href="#DejaVuSans-6e" x="501.660156"/>
     <use xlink:href="#DejaVuSans-64" x="565.039062"/>
     <use xlink:href="#DejaVuSans-6f" x="628.515625"/>
     <use xlink:href="#DejaVuSans-20" x="689.697266"/>
     <use xlink:href="#DejaVuSans-61" x="721.484375"/>
     <use xlink:href="#DejaVuSans-70" x="782.763672"/>
     <use xlink:href="#DejaVuSans-65" x="846.240234"/>
     <use xlink:href="#DejaVuSans-6e" x="907.763672"/>
     <use xlink:href="#DejaVuSans-61" x="971.142578"/>
     <use xlink:href="#DejaVuSans-73" x="1032.421875"/>
     <use xlink:href="#DejaVuSans-20" x="1084.521484"/>
     <use xlink:href="#DejaVuSans-61" x="1116.308594"/>
     <use xlink:href="#DejaVuSans-20" x="1177.587891"/>
     <use xlink:href="#DejaVuSans-6d" x="1209.375"/>
     <use xlink:href="#DejaVuSans-65" x="1306.787109"/>
     <use xlink:href="#DejaVuSans-64" x="1368.310547"/>
     <use xlink:href="#DejaVuSans-69" x="1431.787109"/>
     <use xlink:href="#DejaVuSans-61" x="1459.570312"/>
     <use xlink:href="#DejaVuSans-6e" x="1520.849609"/>
     <use xlink:href="#DejaVuSans-61" x="1584.228516"/>
    </g>
   </g>
   <g id="legend_2">
    <g id="patch_148">
     <path d="M 1086.334135 77.29322 
L 1213.99976 77.29322 
Q 1215.99976 77.29322 1215.99976 75.29322 
L 1215.99976 46.93697 
Q 1215.99976 44.93697 1213.99976 44.93697 
L 1086.334135 44.93697 
Q 1084.334135 44.93697 1084.334135 46.93697 
L 1084.334135 75.29322 
Q 1084.334135 77.29322 1086.334135 77.29322 
z
" style="fill: #ffffff; opacity: 0.8; stroke: #cccccc; stroke-linejoin: miter"/>
    </g>
    <g id="line2d_32">
     <path d="M 1088.334135 53.035408 
L 1098.334135 53.035408 
L 1108.334135 53.035408 
" style="fill: none; stroke: #1f77b4; stroke-width: 1.5; stroke-linecap: square"/>
    </g>
    <g id="text_29">
     <!-- Linha de tendência -->
     <g transform="translate(1116.334135 56.535408)scale(0.1 -0.1)">
      <use xlink:href="#DejaVuSans-4c"/>
      <use xlink:href="#DejaVuSans-69" x="55.712891"/>
      <use xlink:href="#DejaVuSans-6e" x="83.496094"/>
      <use xlink:href="#DejaVuSans-68" x="146.875"/>
      <use xlink:href="#DejaVuSans-61" x="210.253906"/>
      <use xlink:href="#DejaVuSans-20" x="271.533203"/>
      <use xlink:href="#DejaVuSans-64" x="303.320312"/>
      <use xlink:href="#DejaVuSans-65" x="366.796875"/>
      <use xlink:href="#DejaVuSans-20" x="428.320312"/>
      <use xlink:href="#DejaVuSans-74" x="460.107422"/>
      <use xlink:href="#DejaVuSans-65" x="499.316406"/>
      <use xlink:href="#DejaVuSans-6e" x="560.839844"/>
      <use xlink:href="#DejaVuSans-64" x="624.21875"/>
      <use xlink:href="#DejaVuSans-ea" x="687.695312"/>
      <use xlink:href="#DejaVuSans-6e" x="749.21875"/>
      <use xlink:href="#DejaVuSans-63" x="812.597656"/>
      <use xlink:href="#DejaVuSans-69" x="867.578125"/>
      <use xlink:href="#DejaVuSans-61" x="895.361328"/>
     </g>
    </g>
    <g id="line2d_33">
     <path d="M 1088.334135 67.713533 
L 1098.334135 67.713533 
L 1108.334135 67.713533 
" style="fill: none; stroke: #d62728; stroke-width: 2; stroke-linecap: square"/>
    </g>
    <g id="text_30">
     <!-- Mediana (1846.4) -->
     <g transform="translate(1116.334135 71.213533)scale(0.1 -0.1)">
      <use xlink:href="#DejaVuSans-4d"/>
      <use xlink:href="#DejaVuSans-65" x="86.279297"/>
      <use xlink:href="#DejaVuSans-64" x="147.802734"/>
      <use xlink:href="#DejaVuSans-69" x="211.279297"/>
      <use xlink:href="#DejaVuSans-61" x="239.0625"/>
      <use xlink:href="#DejaVuSans-6e" x="300.341797"/>
      <use xlink:href="#DejaVuSans-61" x="363.720703"/>
      <use xlink:href="#DejaVuSans-20" x="425"/>
      <use xlink:href="#DejaVuSans-28" x="456.787109"/>
      <use xlink:href="#DejaVuSans-31" x="495.800781"/>
      <use xlink:href="#DejaVuSans-38" x="559.423828"/>
      <use xlink:href="#DejaVuSans-34" x="623.046875"/>
      <use xlink:href="#DejaVuSans-36" x="686.669922"/>
      <use xlink:href="#DejaVuSans-2e" x="750.292969"/>
      <use xlink:href="#DejaVuSans-34" x="782.080078"/>
      <use xlink:href="#DejaVuSans-29" x="845.703125"/>
     </g>
    </g>
   </g>
  </g>
  <g id="text_31">
   <!-- Renda -->
   <g transform="translate(593.120625 354.504135)scale(0.12 -0.12)">
    <defs>
     <path id="DejaVuSans-52" d="M 2841 2188 
Q 3044 2119 3236 1894 
Q 3428 1669 3622 1275 
L 4263 0 
L 3584 0 
L 2988 1197 
Q 2756 1666 2539 1819 
Q 2322 1972 1947 1972 
L 1259 1972 
L 1259 0 
L 628 0 
L 628 4666 
L 2053 4666 
Q 2853 4666 3247 4331 
Q 3641 3997 3641 3322 
Q 3641 2881 3436 2590 
Q 3231 2300 2841 2188 
z
M 1259 4147 
L 1259 2491 
L 2053 2491 
Q 2509 2491 2742 2702 
Q 2975 2913 2975 3322 
Q 2975 3731 2742 3939 
Q 2509 4147 2053 4147 
L 1259 4147 
z
" transform="scale(0.015625)"/>
    </defs>
    <use xlink:href="#DejaVuSans-52"/>
    <use xlink:href="#DejaVuSans-65" x="64.982422"/>
    <use xlink:href="#DejaVuSans-6e" x="126.505859"/>
    <use xlink:href="#DejaVuSans-64" x="189.884766"/>
    <use xlink:href="#DejaVuSans-61" x="253.361328"/>
   </g>
  </g>
  <g id="text_32">
   <!-- Contagem -->
   <g transform="translate(12.118365 211.037813)rotate(-90)scale(0.12 -0.12)">
    <defs>
     <path id="DejaVuSans-67" d="M 2906 1791 
Q 2906 2416 2648 2759 
Q 2391 3103 1925 3103 
Q 1463 3103 1205 2759 
Q 947 2416 947 1791 
Q 947 1169 1205 825 
Q 1463 481 1925 481 
Q 2391 481 2648 825 
Q 2906 1169 2906 1791 
z
M 3481 434 
Q 3481 -459 3084 -895 
Q 2688 -1331 1869 -1331 
Q 1566 -1331 1297 -1286 
Q 1028 -1241 775 -1147 
L 775 -588 
Q 1028 -725 1275 -790 
Q 1522 -856 1778 -856 
Q 2344 -856 2625 -561 
Q 2906 -266 2906 331 
L 2906 616 
Q 2728 306 2450 153 
Q 2172 0 1784 0 
Q 1141 0 747 490 
Q 353 981 353 1791 
Q 353 2603 747 3093 
Q 1141 3584 1784 3584 
Q 2172 3584 2450 3431 
Q 2728 3278 2906 2969 
L 2906 3500 
L 3481 3500 
L 3481 434 
z
" transform="scale(0.015625)"/>
    </defs>
    <use xlink:href="#DejaVuSans-43"/>
    <use xlink:href="#DejaVuSans-6f" x="69.824219"/>
    <use xlink:href="#DejaVuSans-6e" x="131.005859"/>
    <use xlink:href="#DejaVuSans-74" x="194.384766"/>
    <use xlink:href="#DejaVuSans-61" x="233.59375"/>
    <use xlink:href="#DejaVuSans-67" x="294.873047"/>
    <use xlink:href="#DejaVuSans-65" x="358.349609"/>
    <use xlink:href="#DejaVuSans-6d" x="419.873047"/>
   </g>
  </g>
  <g id="text_33">
   <!-- Distribuição de renda na população geral -->
   <g transform="translate(487.955625 12.32274)scale(0.12 -0.12)">
    <defs>
     <path id="DejaVuSans-44" d="M 1259 4147 
L 1259 519 
L 2022 519 
Q 2988 519 3436 956 
Q 3884 1394 3884 2338 
Q 3884 3275 3436 3711 
Q 2988 4147 2022 4147 
L 1259 4147 
z
M 628 4666 
L 1925 4666 
Q 3281 4666 3915 4102 
Q 4550 3538 4550 2338 
Q 4550 1131 3912 565 
Q 3275 0 1925 0 
L 628 0 
L 628 4666 
z
" transform="scale(0.015625)"/>
     <path id="DejaVuSans-62" d="M 3116 1747 
Q 3116 2381 2855 2742 
Q 2594 3103 2138 3103 
Q 1681 3103 1420 2742 
Q 1159 2381 1159 1747 
Q 1159 1113 1420 752 
Q 1681 391 2138 391 
Q 2594 391 2855 752 
Q 3116 1113 3116 1747 
z
M 1159 2969 
Q 1341 3281 1617 3432 
Q 1894 3584 2278 3584 
Q 2916 3584 3314 3078 
Q 3713 2572 3713 1747 
Q 3713 922 3314 415 
Q 2916 -91 2278 -91 
Q 1894 -91 1617 61 
Q 1341 213 1159 525 
L 1159 0 
L 581 0 
L 581 4863 
L 1159 4863 
L 1159 2969 
z
" transform="scale(0.015625)"/>
     <path id="DejaVuSans-75" d="M 544 1381 
L 544 3500 
L 1119 3500 
L 1119 1403 
Q 1119 906 1312 657 
Q 1506 409 1894 409 
Q 2359 409 2629 706 
Q 2900 1003 2900 1516 
L 2900 3500 
L 3475 3500 
L 3475 0 
L 2900 0 
L 2900 538 
Q 2691 219 2414 64 
Q 2138 -91 1772 -91 
Q 1169 -91 856 284 
Q 544 659 544 1381 
z
M 1991 3584 
L 1991 3584 
z
" transform="scale(0.015625)"/>
     <path id="DejaVuSans-e7" d="M 3122 3366 
L 3122 2828 
Q 2878 2963 2633 3030 
Q 2388 3097 2138 3097 
Q 1578 3097 1268 2742 
Q 959 2388 959 1747 
Q 959 1106 1268 751 
Q 1578 397 2138 397 
Q 2388 397 2633 464 
Q 2878 531 3122 666 
L 3122 134 
Q 2881 22 2623 -34 
Q 2366 -91 2075 -91 
Q 1284 -91 818 406 
Q 353 903 353 1747 
Q 353 2603 823 3093 
Q 1294 3584 2113 3584 
Q 2378 3584 2631 3529 
Q 2884 3475 3122 3366 
z
M 2309 0 
Q 2481 -194 2565 -358 
Q 2650 -522 2650 -672 
Q 2650 -950 2462 -1092 
Q 2275 -1234 1906 -1234 
Q 1763 -1234 1627 -1215 
Q 1491 -1197 1356 -1159 
L 1356 -750 
Q 1463 -803 1578 -826 
Q 1694 -850 1841 -850 
Q 2025 -850 2119 -775 
Q 2213 -700 2213 -556 
Q 2213 -463 2145 -327 
Q 2078 -191 1938 0 
L 2309 0 
z
" transform="scale(0.015625)"/>
     <path id="DejaVuSans-e3" d="M 2194 1759 
Q 1497 1759 1228 1600 
Q 959 1441 959 1056 
Q 959 750 1161 570 
Q 1363 391 1709 391 
Q 2188 391 2477 730 
Q 2766 1069 2766 1631 
L 2766 1759 
L 2194 1759 
z
M 3341 1997 
L 3341 0 
L 2766 0 
L 2766 531 
Q 2569 213 2275 61 
Q 1981 -91 1556 -91 
Q 1019 -91 701 211 
Q 384 513 384 1019 
Q 384 1609 779 1909 
Q 1175 2209 1959 2209 
L 2766 2209 
L 2766 2266 
Q 2766 2663 2505 2880 
Q 2244 3097 1772 3097 
Q 1472 3097 1187 3025 
Q 903 2953 641 2809 
L 641 3341 
Q 956 3463 1253 3523 
Q 1550 3584 1831 3584 
Q 2591 3584 2966 3190 
Q 3341 2797 3341 1997 
z
M 1844 4281 
L 1666 4453 
Q 1597 4516 1545 4545 
Q 1494 4575 1453 4575 
Q 1334 4575 1278 4461 
Q 1222 4347 1216 4091 
L 825 4091 
Q 831 4513 990 4742 
Q 1150 4972 1434 4972 
Q 1553 4972 1653 4928 
Q 1753 4884 1869 4781 
L 2047 4609 
Q 2116 4547 2167 4517 
Q 2219 4488 2259 4488 
Q 2378 4488 2434 4602 
Q 2491 4716 2497 4972 
L 2888 4972 
Q 2881 4550 2722 4320 
Q 2563 4091 2278 4091 
Q 2159 4091 2059 4134 
Q 1959 4178 1844 4281 
z
" transform="scale(0.015625)"/>
     <path id="DejaVuSans-6c" d="M 603 4863 
L 1178 4863 
L 1178 0 
L 603 0 
L 603 4863 
z
" transform="scale(0.015625)"/>
    </defs>
    <use xlink:href="#DejaVuSans-44"/>
    <use xlink:href="#DejaVuSans-69" x="77.001953"/>
    <use xlink:href="#DejaVuSans-73" x="104.785156"/>
    <use xlink:href="#DejaVuSans-74" x="156.884766"/>
    <use xlink:href="#DejaVuSans-72" x="196.09375"/>
    <use xlink:href="#DejaVuSans-69" x="237.207031"/>
    <use xlink:href="#DejaVuSans-62" x="264.990234"/>
    <use xlink:href="#DejaVuSans-75" x="328.466797"/>
    <use xlink:href="#DejaVuSans-69" x="391.845703"/>
    <use xlink:href="#DejaVuSans-e7" x="419.628906"/>
    <use xlink:href="#DejaVuSans-e3" x="474.609375"/>
    <use xlink:href="#DejaVuSans-6f" x="535.888672"/>
    <use xlink:href="#DejaVuSans-20" x="597.070312"/>
    <use xlink:href="#DejaVuSans-64" x="628.857422"/>
    <use xlink:href="#DejaVuSans-65" x="692.333984"/>
    <use xlink:href="#DejaVuSans-20" x="753.857422"/>
    <use xlink:href="#DejaVuSans-72" x="785.644531"/>
    <use xlink:href="#DejaVuSans-65" x="824.507812"/>
    <use xlink:href="#DejaVuSans-6e" x="886.03125"/>
    <use xlink:href="#DejaVuSans-64" x="949.410156"/>
    <use xlink:href="#DejaVuSans-61" x="1012.886719"/>
    <use xlink:href="#DejaVuSans-20" x="1074.166016"/>
    <use xlink:href="#DejaVuSans-6e" x="1105.953125"/>
    <use xlink:href="#DejaVuSans-61" x="1169.332031"/>
    <use xlink:href="#DejaVuSans-20" x="1230.611328"/>
    <use xlink:href="#DejaVuSans-70" x="1262.398438"/>
    <use xlink:href="#DejaVuSans-6f" x="1325.875"/>
    <use xlink:href="#DejaVuSans-70" x="1387.056641"/>
    <use xlink:href="#DejaVuSans-75" x="1450.533203"/>
    <use xlink:href="#DejaVuSans-6c" x="1513.912109"/>
    <use xlink:href="#DejaVuSans-61" x="1541.695312"/>
    <use xlink:href="#DejaVuSans-e7" x="1602.974609"/>
    <use xlink:href="#DejaVuSans-e3" x="1657.955078"/>
    <use xlink:href="#DejaVuSans-6f" x="1719.234375"/>
    <use xlink:href="#DejaVuSans-20" x="1780.416016"/>
    <use xlink:href="#DejaVuSans-67" x="1812.203125"/>
    <use xlink:href="#DejaVuSans-65" x="1875.679688"/>
    <use xlink:href="#DejaVuSans-72" x="1937.203125"/>
    <use xlink:href="#DejaVuSans-61" x="1978.316406"/>
    <use xlink:href="#DejaVuSans-6c" x="2039.595703"/>
   </g>
  </g>
 </g>
 <defs>
  <clipPath id="p164c562ab4">
   <rect x="40.33947" y="39.93697" width="574.347645" height="282.770435"/>
  </clipPath>
  <clipPath id="p49ffd940ae">
   <rect x="646.652115" y="39.93697" width="574.347645" height="282.770435"/>
  </clipPath>
 </defs>
</svg>
