<?xml version="1.0" standalone="no"?><!DOCTYPE svg PUBLIC "-//W3C//DTD SVG 1.1//EN" "http://www.w3.org/Graphics/SVG/1.1/DTD/svg11.dtd"><svg xmlns="http://www.w3.org/2000/svg" version="1.1" width="651.5" height="526.5" xmlns:xlink="http://www.w3.org/1999/xlink" xlink="http://www.w3.org/1999/xlink" style="position:relative;overflow:hidden;" viewBox="145.5 111.833 651.5 526.5"><defs/><g><g width="150" height="75" transform="scale(1,1) translate(471.5,124.333)"><g stroke="#B3D7EE" stroke-opacity="1" stroke-width="1" stroke-dasharray="none" width="150" height="75" transform="scale(1,1) translate(0,0)" fill="#B3D7EE" fill-opacity="1"><rect width="150" height="75"/></g><g width="143.33333333333331" height="68.33333333333333" transform="scale(1,1) translate(3.333,3.333)"><text width="143.33333333333331" height="31.666669845581055" transform="scale(1,1) translate(0,18.333331743876137)" xml:space="preserve"><tspan xml:space="preserve" text-rendering="optimizeSpeed" style="font-family: Arial, Helvetica Neue, Helvetica, sans-serif;" font-size="13.88888888888889" font-weight="normal" font-style="normal" text-decoration="none" fill="#333333" opacity="1" x="0.651" text-anchor="start" y="12.5" textLength="138.17709350585938">Renda menor que três</tspan><tspan xml:space="preserve" text-rendering="optimizeSpeed" style="font-family: Arial, Helvetica Neue, Helvetica, sans-serif;" font-size="13.88888888888889" font-weight="normal" font-style="normal" text-decoration="none" fill="#333333" opacity="1" x="15.712" text-anchor="start" y="28.333" textLength="111.90972900390625">salários mínimos?</tspan></text></g></g><g width="326" height="50.5" transform="scale(1,1) translate(383.5,199.333)"><g fill="#545454" stroke="#545454" stroke-opacity="1" transform="scale(1,1) translate(0,0)"><path fill="none" stroke-width="1" stroke-dasharray="none" d="M163,0 L163,0 M163,0 L163,0 M163,0 L163,0 M163,0 L0,50.5 M163,0 L326,50.5"/><g><g stroke-dasharray="none"><path d="M160,-3L166,-3L166,3L160,3z" stroke-width="0" fill="none"/></g></g></g><g stroke-width="0" stroke-dasharray="none" fill="#FFFFFF" opacity="1" width="25.924" height="17.833" transform="scale(1,1) translate(68.538,16.333)"><rect width="25.924" height="17.833"/></g><g width="23.92361068725586" height="90.5" transform="scale(1,1) translate(69.538,17.333)"><text width="23.92361068725586" height="15.833334922790527" transform="scale(1,1) translate(0,0)" xml:space="preserve"><tspan xml:space="preserve" text-rendering="optimizeSpeed" style="font-family: Arial, Helvetica Neue, Helvetica, sans-serif;" font-size="13.88888888888889" font-weight="normal" font-style="normal" text-decoration="none" fill="#333333" opacity="1" x="0" text-anchor="start" y="12.5" textLength="23.92361068725586">Sim</tspan></text></g><g stroke-width="0" stroke-dasharray="none" fill="#FFFFFF" opacity="1" width="27.486" height="17.833" transform="scale(1,1) translate(230.757,16.333)"><rect width="27.486" height="17.833"/></g><g width="25.486112594604492" height="90.5" transform="scale(1,1) translate(231.757,17.333)"><text width="25.486112594604492" height="15.833334922790527" transform="scale(1,1) translate(0,0)" xml:space="preserve"><tspan xml:space="preserve" text-rendering="optimizeSpeed" style="font-family: Arial, Helvetica Neue, Helvetica, sans-serif;" font-size="13.88888888888889" font-weight="normal" font-style="normal" text-decoration="none" fill="#333333" opacity="1" x="0" text-anchor="start" y="12.5" textLength="25.486112594604492">Não</tspan></text></g></g><g width="150" height="75" transform="scale(1,1) translate(634.5,249.833)"><g stroke="#B3D7EE" stroke-opacity="1" stroke-width="1" stroke-dasharray="none" width="150" height="75" transform="scale(1,1) translate(0,0)" fill="#FF5050" fill-opacity="1"><rect width="150" height="75"/></g><g width="143.33333333333331" height="68.33333333333333" transform="scale(1,1) translate(3.333,3.333)"><text width="143.33333333333331" height="31.666669845581055" transform="scale(1,1) translate(0,18.333331743876137)" xml:space="preserve"><tspan xml:space="preserve" text-rendering="optimizeSpeed" style="font-family: Arial, Helvetica Neue, Helvetica, sans-serif;" font-size="13.88888888888889" font-weight="normal" font-style="normal" text-decoration="none" fill="#333333" opacity="1" x="23.793" text-anchor="start" y="12.5" textLength="91.89236450195312">Não ganhará o</tspan><tspan xml:space="preserve" text-rendering="optimizeSpeed" style="font-family: Arial, Helvetica Neue, Helvetica, sans-serif;" font-size="13.88888888888889" font-weight="normal" font-style="normal" text-decoration="none" fill="#333333" opacity="1" x="43.09" text-anchor="start" y="28.333" textLength="57.15277862548828">notebook</tspan></text></g></g><g width="301" height="50.5" transform="scale(1,1) translate(233,324.833)"><g fill="#545454" stroke="#545454" stroke-opacity="1" transform="scale(1,1) translate(0,0)"><path fill="none" stroke-width="1" stroke-dasharray="none" d="M150.5,0 L150.5,0 M150.5,0 L150.5,0 M150.5,0 L150.5,0 M150.5,0 L0,50.5 M150.5,0 L301,50.5"/><g><g stroke-dasharray="none"><path d="M145.5,-5L155.5,-5L155.5,5L145.5,5z" stroke-width="0" fill="none"/></g></g></g><g stroke-width="0" stroke-dasharray="none" fill="#FFFFFF" opacity="1" width="25.924" height="17.833" transform="scale(1,1) translate(62.288,16.333)"><rect width="25.924" height="17.833"/></g><g width="23.92361068725586" height="90.5" transform="scale(1,1) translate(63.288,17.333)"><text width="23.92361068725586" height="15.833334922790527" transform="scale(1,1) translate(0,0)" xml:space="preserve"><tspan xml:space="preserve" text-rendering="optimizeSpeed" style="font-family: Arial, Helvetica Neue, Helvetica, sans-serif;" font-size="13.88888888888889" font-weight="normal" font-style="normal" text-decoration="none" fill="#333333" opacity="1" x="0" text-anchor="start" y="12.5" textLength="23.92361068725586">Sim</tspan></text></g><g stroke-width="0" stroke-dasharray="none" fill="#FFFFFF" opacity="1" width="27.486" height="17.833" transform="scale(1,1) translate(212.007,16.333)"><rect width="27.486" height="17.833"/></g><g width="25.486112594604492" height="90.5" transform="scale(1,1) translate(213.007,17.333)"><text width="25.486112594604492" height="15.833334922790527" transform="scale(1,1) translate(0,0)" xml:space="preserve"><tspan xml:space="preserve" text-rendering="optimizeSpeed" style="font-family: Arial, Helvetica Neue, Helvetica, sans-serif;" font-size="13.88888888888889" font-weight="normal" font-style="normal" text-decoration="none" fill="#333333" opacity="1" x="0" text-anchor="start" y="12.5" textLength="25.486112594604492">Não</tspan></text></g></g><g width="150" height="75" transform="scale(1,1) translate(308.5,249.833)"><g stroke="#B3D7EE" stroke-opacity="1" stroke-width="1" stroke-dasharray="none" width="150" height="75" transform="scale(1,1) translate(0,0)" fill="#B3D7EE" fill-opacity="1"><rect width="150" height="75"/></g><g width="143.33333333333331" height="68.33333333333333" transform="scale(1,1) translate(3.333,3.333)"><text width="143.33333333333331" height="31.666669845581055" transform="scale(1,1) translate(0,18.333331743876137)" xml:space="preserve"><tspan xml:space="preserve" text-rendering="optimizeSpeed" style="font-family: Arial, Helvetica Neue, Helvetica, sans-serif;" font-size="13.88888888888889" font-weight="normal" font-style="normal" text-decoration="none" fill="#333333" opacity="1" x="10.677" text-anchor="start" y="12.5" textLength="118.12500762939453">Estudou em escola</tspan><tspan xml:space="preserve" text-rendering="optimizeSpeed" style="font-family: Arial, Helvetica Neue, Helvetica, sans-serif;" font-size="13.88888888888889" font-weight="normal" font-style="normal" text-decoration="none" fill="#333333" opacity="1" x="45.79" text-anchor="start" y="28.333" textLength="51.75347900390625">pública?</tspan></text></g></g><g width="0" height="50" transform="scale(1,1) translate(233,450.333)"><g fill="#545454" stroke="#545454" stroke-opacity="1" transform="scale(1,1) translate(0,0)"><path fill="none" stroke-width="1" stroke-dasharray="none" d="M0,0"/></g></g><g width="150" height="75" transform="scale(1,1) translate(158,375.333)"><g stroke="#B3D7EE" stroke-opacity="1" stroke-width="1" stroke-dasharray="none" width="150" height="75" transform="scale(1,1) translate(0,0)" fill="#64FF64" fill-opacity="1"><rect width="150" height="75"/></g><g width="143.33333333333331" height="68.33333333333333" transform="scale(1,1) translate(3.333,3.333)"><text width="143.33333333333331" height="15.833334922790527" transform="scale(1,1) translate(0,26.2499992052714)" xml:space="preserve"><tspan xml:space="preserve" text-rendering="optimizeSpeed" style="font-family: Arial, Helvetica Neue, Helvetica, sans-serif;" font-size="13.88888888888889" font-weight="normal" font-style="normal" text-decoration="none" fill="#333333" opacity="1" x="15.712" text-anchor="start" y="12.5" textLength="111.90972900390625">Grupo prioritário 1</tspan></text></g></g><g width="0" height="50" transform="scale(1,1) translate(408.5,575.833)"><g fill="#545454" stroke="#545454" stroke-opacity="1" transform="scale(1,1) translate(0,0)"><path fill="none" stroke-width="1" stroke-dasharray="none" d="M0,0"/></g></g><g width="251" height="50.5" transform="scale(1,1) translate(408.5,450.333)"><g fill="#545454" stroke="#545454" stroke-opacity="1" transform="scale(1,1) translate(0,0)"><path fill="none" stroke-width="1" stroke-dasharray="none" d="M125.5,0 L125.5,0 M125.5,0 L125.5,0 M125.5,0 L125.5,0 M125.5,0 L0,50.5 M125.5,0 L251,50.5"/><g><g stroke-dasharray="none"><path d="M120.5,-5L130.5,-5L130.5,5L120.5,5z" stroke-width="0" fill="none"/></g></g></g><g stroke-width="0" stroke-dasharray="none" fill="#FFFFFF" opacity="1" width="25.924" height="17.833" transform="scale(1,1) translate(49.788,16.333)"><rect width="25.924" height="17.833"/></g><g width="23.92361068725586" height="90.5" transform="scale(1,1) translate(50.788,17.333)"><text width="23.92361068725586" height="15.833334922790527" transform="scale(1,1) translate(0,0)" xml:space="preserve"><tspan xml:space="preserve" text-rendering="optimizeSpeed" style="font-family: Arial, Helvetica Neue, Helvetica, sans-serif;" font-size="13.88888888888889" font-weight="normal" font-style="normal" text-decoration="none" fill="#333333" opacity="1" x="0" text-anchor="start" y="12.5" textLength="23.92361068725586">Sim</tspan></text></g><g stroke-width="0" stroke-dasharray="none" fill="#FFFFFF" opacity="1" width="27.486" height="17.833" transform="scale(1,1) translate(174.507,16.333)"><rect width="27.486" height="17.833"/></g><g width="25.486112594604492" height="90.5" transform="scale(1,1) translate(175.507,17.333)"><text width="25.486112594604492" height="15.833334922790527" transform="scale(1,1) translate(0,0)" xml:space="preserve"><tspan xml:space="preserve" text-rendering="optimizeSpeed" style="font-family: Arial, Helvetica Neue, Helvetica, sans-serif;" font-size="13.88888888888889" font-weight="normal" font-style="normal" text-decoration="none" fill="#333333" opacity="1" x="0" text-anchor="start" y="12.5" textLength="25.486112594604492">Não</tspan></text></g></g><g width="150" height="75" transform="scale(1,1) translate(459,375.333)"><g stroke="#B3D7EE" stroke-opacity="1" stroke-width="1" stroke-dasharray="none" width="150" height="75" transform="scale(1,1) translate(0,0)" fill="#B3D7EE" fill-opacity="1"><rect width="150" height="75"/></g><g width="143.33333333333331" height="68.33333333333333" transform="scale(1,1) translate(3.333,3.333)"><text width="143.33333333333331" height="15.833334922790527" transform="scale(1,1) translate(0,26.2499992052714)" xml:space="preserve"><tspan xml:space="preserve" text-rendering="optimizeSpeed" style="font-family: Arial, Helvetica Neue, Helvetica, sans-serif;" font-size="13.88888888888889" font-weight="normal" font-style="normal" text-decoration="none" fill="#333333" opacity="1" x="25.729" text-anchor="start" y="12.5" textLength="91.875">É preto/pardo?</tspan></text></g></g><g width="150" height="75" transform="scale(1,1) translate(333.5,500.833)"><g stroke="#B3D7EE" stroke-opacity="1" stroke-width="1" stroke-dasharray="none" width="150" height="75" transform="scale(1,1) translate(0,0)" fill="#64FF64" fill-opacity="1"><rect width="150" height="75"/></g><g width="143.33333333333331" height="68.33333333333333" transform="scale(1,1) translate(3.333,3.333)"><text width="143.33333333333331" height="15.833334922790527" transform="scale(1,1) translate(0,26.2499992052714)" xml:space="preserve"><tspan xml:space="preserve" text-rendering="optimizeSpeed" style="font-family: Arial, Helvetica Neue, Helvetica, sans-serif;" font-size="13.88888888888889" font-weight="normal" font-style="normal" text-decoration="none" fill="#333333" opacity="1" x="15.712" text-anchor="start" y="12.5" textLength="111.90972900390625">Grupo prioritário 2</tspan></text></g></g><g width="0" height="50" transform="scale(1,1) translate(659.5,575.833)"><g fill="#545454" stroke="#545454" stroke-opacity="1" transform="scale(1,1) translate(0,0)"><path fill="none" stroke-width="1" stroke-dasharray="none" d="M0,0"/></g></g><g width="150" height="75" transform="scale(1,1) translate(584.5,500.833)"><g stroke="#B3D7EE" stroke-opacity="1" stroke-width="1" stroke-dasharray="none" width="150" height="75" transform="scale(1,1) translate(0,0)" fill="#64FF64" fill-opacity="1"><rect width="150" height="75"/></g><g width="143.33333333333331" height="68.33333333333333" transform="scale(1,1) translate(3.333,3.333)"><text width="143.33333333333331" height="15.833334922790527" transform="scale(1,1) translate(0,26.2499992052714)" xml:space="preserve"><tspan xml:space="preserve" text-rendering="optimizeSpeed" style="font-family: Arial, Helvetica Neue, Helvetica, sans-serif;" font-size="13.88888888888889" font-weight="normal" font-style="normal" text-decoration="none" fill="#333333" opacity="1" x="15.712" text-anchor="start" y="12.5" textLength="111.90972900390625">Grupo prioritário 3</tspan></text></g></g></g></svg>